<svg width="92" height="92" viewBox="0 0 92 92" fill="none" xmlns="http://www.w3.org/2000/svg">
<path d="M45.9998 91.8332C20.7269 91.8332 0.166504 71.2728 0.166504 45.9998C0.166504 31.5165 6.79775 18.1915 18.3582 9.43734C18.8123 9.08942 19.4665 9.179 19.8165 9.63942C20.1644 10.0978 20.0748 10.7519 19.6144 11.0978C8.579 19.454 2.24984 32.1748 2.24984 45.9998C2.24984 70.1248 21.8769 89.7498 45.9998 89.7498C70.1227 89.7498 89.7498 70.1248 89.7498 45.9998C89.7498 21.8748 70.1227 2.24984 45.9998 2.24984C38.0873 2.24984 30.3353 4.38317 23.5832 8.42275C23.0873 8.71442 22.4478 8.55609 22.154 8.06234C21.8561 7.56859 22.0207 6.929 22.5123 6.63317C29.5915 2.404 37.7103 0.166504 45.9998 0.166504C71.2728 0.166504 91.8332 20.7269 91.8332 45.9998C91.8332 71.2728 71.2728 91.8332 45.9998 91.8332Z" fill="#FF5026"/>
<path d="M45.9998 85.5832C24.1728 85.5832 6.4165 67.8269 6.4165 45.9998C6.4165 24.1728 24.1728 6.4165 45.9998 6.4165C67.8269 6.4165 85.5832 24.1728 85.5832 45.9998C85.5832 54.6248 82.8561 62.8228 77.6998 69.7082C77.3519 70.1707 76.6998 70.2623 76.2415 69.9186C75.7811 69.5728 75.6873 68.9207 76.0311 68.4602C80.9186 61.9352 83.4998 54.1707 83.4998 45.9998C83.4998 25.3228 66.6769 8.49984 45.9998 8.49984C25.3228 8.49984 8.49984 25.3228 8.49984 45.9998C8.49984 66.6769 25.3228 83.4998 45.9998 83.4998C56.0019 83.4998 65.4061 79.6103 72.4832 72.5457C72.8894 72.1415 73.5498 72.1394 73.9561 72.5478C74.3623 72.954 74.3623 73.6144 73.9561 74.0207C66.4852 81.4769 56.5561 85.5832 45.9998 85.5832Z" fill="#FF5026"/>
<path d="M61.6247 19.9784C62.2 19.9784 62.6664 19.512 62.6664 18.9367C62.6664 18.3614 62.2 17.895 61.6247 17.895C61.0494 17.895 60.583 18.3614 60.583 18.9367C60.583 19.512 61.0494 19.9784 61.6247 19.9784Z" fill="#FF5026"/>
<path d="M61.6248 21.0202C62.7754 21.0202 63.7082 20.0874 63.7082 18.9368C63.7082 17.7863 62.7754 16.8535 61.6248 16.8535C60.4742 16.8535 59.5415 17.7863 59.5415 18.9368C59.5415 20.0874 60.4742 21.0202 61.6248 21.0202Z" fill="#FF5026"/>
<path d="M30.3747 74.1039C30.95 74.1039 31.4163 73.6375 31.4163 73.0622C31.4163 72.4869 30.95 72.0205 30.3747 72.0205C29.7994 72.0205 29.333 72.4869 29.333 73.0622C29.333 73.6375 29.7994 74.1039 30.3747 74.1039Z" fill="#FF5026"/>
<path d="M30.3748 75.1457C31.5254 75.1457 32.4582 74.2129 32.4582 73.0623C32.4582 71.9117 31.5254 70.979 30.3748 70.979C29.2242 70.979 28.2915 71.9117 28.2915 73.0623C28.2915 74.2129 29.2242 75.1457 30.3748 75.1457Z" fill="#FF5026"/>
<path d="M73.0617 31.4163C73.637 31.4163 74.1033 30.95 74.1033 30.3747C74.1033 29.7994 73.637 29.333 73.0617 29.333C72.4864 29.333 72.02 29.7994 72.02 30.3747C72.02 30.95 72.4864 31.4163 73.0617 31.4163Z" fill="#FF5026"/>
<path d="M73.0619 32.4582C74.2124 32.4582 75.1452 31.5254 75.1452 30.3748C75.1452 29.2242 74.2124 28.2915 73.0619 28.2915C71.9113 28.2915 70.9785 29.2242 70.9785 30.3748C70.9785 31.5254 71.9113 32.4582 73.0619 32.4582Z" fill="#FF5026"/>
<path d="M18.9367 62.6664C19.512 62.6664 19.9784 62.2 19.9784 61.6247C19.9784 61.0494 19.512 60.583 18.9367 60.583C18.3614 60.583 17.895 61.0494 17.895 61.6247C17.895 62.2 18.3614 62.6664 18.9367 62.6664Z" fill="#FF5026"/>
<path d="M18.9368 63.7082C20.0874 63.7082 21.0202 62.7754 21.0202 61.6248C21.0202 60.4742 20.0874 59.5415 18.9368 59.5415C17.7863 59.5415 16.8535 60.4742 16.8535 61.6248C16.8535 62.7754 17.7863 63.7082 18.9368 63.7082Z" fill="#FF5026"/>
<path d="M77.2497 47.0413C77.825 47.0413 78.2914 46.575 78.2914 45.9997C78.2914 45.4244 77.825 44.958 77.2497 44.958C76.6744 44.958 76.208 45.4244 76.208 45.9997C76.208 46.575 76.6744 47.0413 77.2497 47.0413Z" fill="#FF5026"/>
<path d="M77.2498 48.0832C78.4004 48.0832 79.3332 47.1504 79.3332 45.9998C79.3332 44.8492 78.4004 43.9165 77.2498 43.9165C76.0992 43.9165 75.1665 44.8492 75.1665 45.9998C75.1665 47.1504 76.0992 48.0832 77.2498 48.0832Z" fill="#FF5026"/>
<path d="M14.7497 47.0413C15.325 47.0413 15.7913 46.575 15.7913 45.9997C15.7913 45.4244 15.325 44.958 14.7497 44.958C14.1744 44.958 13.708 45.4244 13.708 45.9997C13.708 46.575 14.1744 47.0413 14.7497 47.0413Z" fill="#FF5026"/>
<path d="M14.7498 48.0832C15.9004 48.0832 16.8332 47.1504 16.8332 45.9998C16.8332 44.8492 15.9004 43.9165 14.7498 43.9165C13.5992 43.9165 12.6665 44.8492 12.6665 45.9998C12.6665 47.1504 13.5992 48.0832 14.7498 48.0832Z" fill="#FF5026"/>
<path d="M73.0617 62.6664C73.637 62.6664 74.1033 62.2 74.1033 61.6247C74.1033 61.0494 73.637 60.583 73.0617 60.583C72.4864 60.583 72.02 61.0494 72.02 61.6247C72.02 62.2 72.4864 62.6664 73.0617 62.6664Z" fill="#FF5026"/>
<path d="M73.0619 63.7082C74.2124 63.7082 75.1452 62.7754 75.1452 61.6248C75.1452 60.4742 74.2124 59.5415 73.0619 59.5415C71.9113 59.5415 70.9785 60.4742 70.9785 61.6248C70.9785 62.7754 71.9113 63.7082 73.0619 63.7082Z" fill="#FF5026"/>
<path d="M18.9367 31.4163C19.512 31.4163 19.9784 30.95 19.9784 30.3747C19.9784 29.7994 19.512 29.333 18.9367 29.333C18.3614 29.333 17.895 29.7994 17.895 30.3747C17.895 30.95 18.3614 31.4163 18.9367 31.4163Z" fill="#FF5026"/>
<path d="M18.9368 32.4582C20.0874 32.4582 21.0202 31.5254 21.0202 30.3748C21.0202 29.2242 20.0874 28.2915 18.9368 28.2915C17.7863 28.2915 16.8535 29.2242 16.8535 30.3748C16.8535 31.5254 17.7863 32.4582 18.9368 32.4582Z" fill="#FF5026"/>
<path d="M61.6247 74.1039C62.2 74.1039 62.6664 73.6375 62.6664 73.0622C62.6664 72.4869 62.2 72.0205 61.6247 72.0205C61.0494 72.0205 60.583 72.4869 60.583 73.0622C60.583 73.6375 61.0494 74.1039 61.6247 74.1039Z" fill="#FF5026"/>
<path d="M61.6248 75.1457C62.7754 75.1457 63.7082 74.2129 63.7082 73.0623C63.7082 71.9117 62.7754 70.979 61.6248 70.979C60.4742 70.979 59.5415 71.9117 59.5415 73.0623C59.5415 74.2129 60.4742 75.1457 61.6248 75.1457Z" fill="#FF5026"/>
<path d="M30.3747 19.9784C30.95 19.9784 31.4163 19.512 31.4163 18.9367C31.4163 18.3614 30.95 17.895 30.3747 17.895C29.7994 17.895 29.333 18.3614 29.333 18.9367C29.333 19.512 29.7994 19.9784 30.3747 19.9784Z" fill="#FF5026"/>
<path d="M30.3748 21.0202C31.5254 21.0202 32.4582 20.0874 32.4582 18.9368C32.4582 17.7863 31.5254 16.8535 30.3748 16.8535C29.2242 16.8535 28.2915 17.7863 28.2915 18.9368C28.2915 20.0874 29.2242 21.0202 30.3748 21.0202Z" fill="#FF5026"/>
<path d="M45.9997 78.2914C46.575 78.2914 47.0413 77.825 47.0413 77.2497C47.0413 76.6744 46.575 76.208 45.9997 76.208C45.4244 76.208 44.958 76.6744 44.958 77.2497C44.958 77.825 45.4244 78.2914 45.9997 78.2914Z" fill="#FF5026"/>
<path d="M45.9998 79.3332C47.1504 79.3332 48.0832 78.4004 48.0832 77.2498C48.0832 76.0992 47.1504 75.1665 45.9998 75.1665C44.8492 75.1665 43.9165 76.0992 43.9165 77.2498C43.9165 78.4004 44.8492 79.3332 45.9998 79.3332Z" fill="#FF5026"/>
<path d="M45.9997 15.7913C46.575 15.7913 47.0413 15.325 47.0413 14.7497C47.0413 14.1744 46.575 13.708 45.9997 13.708C45.4244 13.708 44.958 14.1744 44.958 14.7497C44.958 15.325 45.4244 15.7913 45.9997 15.7913Z" fill="#FF5026"/>
<path d="M45.9998 16.8332C47.1504 16.8332 48.0832 15.9004 48.0832 14.7498C48.0832 13.5992 47.1504 12.6665 45.9998 12.6665C44.8492 12.6665 43.9165 13.5992 43.9165 14.7498C43.9165 15.9004 44.8492 16.8332 45.9998 16.8332Z" fill="#FF5026"/>
<path d="M68.7976 34.0577C68.5289 33.5473 67.8997 33.3493 67.3893 33.6181L50.9497 42.2285C51.3705 42.7806 51.6935 43.4014 51.9143 44.0764L68.358 35.4639C68.8685 35.1973 69.0643 34.5681 68.7976 34.0577Z" fill="#FF5026"/>
<path d="M43.829 41.2776L35.3811 29.7589C35.0415 29.2943 34.3853 29.1943 33.9249 29.5359C33.4603 29.8776 33.3603 30.5297 33.702 30.9922L42.154 42.5172C42.6228 41.9984 43.1853 41.5734 43.829 41.2776Z" fill="#FF5026"/>
<path d="M46 52.25C42.5542 52.25 39.75 49.4458 39.75 46C39.75 42.5542 42.5542 39.75 46 39.75C49.4458 39.75 52.25 42.5542 52.25 46C52.25 49.4458 49.4458 52.25 46 52.25ZM46 41.8333C43.7021 41.8333 41.8333 43.7021 41.8333 46C41.8333 48.2979 43.7021 50.1667 46 50.1667C48.2979 50.1667 50.1667 48.2979 50.1667 46C50.1667 43.7021 48.2979 41.8333 46 41.8333Z" fill="#FF5026"/>
</svg>
