<svg width="100" height="100" viewBox="0 0 100 100" fill="none" xmlns="http://www.w3.org/2000/svg">
<path d="M50 95.8332C24.727 95.8332 4.16663 75.2728 4.16663 49.9998C4.16663 35.5165 10.7979 22.1915 22.3583 13.4373C22.8125 13.0894 23.4666 13.179 23.8166 13.6394C24.1645 14.0978 24.075 14.7519 23.6145 15.0978C12.5791 23.454 6.24996 36.1748 6.24996 49.9998C6.24996 74.1248 25.877 93.7498 50 93.7498C74.1229 93.7498 93.75 74.1248 93.75 49.9998C93.75 25.8748 74.1229 6.24984 50 6.24984C42.0875 6.24984 34.3354 8.38317 27.5833 12.4228C27.0875 12.7144 26.4479 12.5561 26.1541 12.0623C25.8562 11.5686 26.0208 10.929 26.5125 10.6332C33.5916 6.404 41.7104 4.1665 50 4.1665C75.2729 4.1665 95.8333 24.7269 95.8333 49.9998C95.8333 75.2728 75.2729 95.8332 50 95.8332Z" fill="#FF5026"/>
<path d="M50 89.5832C28.1729 89.5832 10.4166 71.8269 10.4166 49.9998C10.4166 28.1728 28.1729 10.4165 50 10.4165C71.827 10.4165 89.5833 28.1728 89.5833 49.9998C89.5833 58.6248 86.8562 66.8228 81.7 73.7082C81.352 74.1707 80.7 74.2623 80.2416 73.9186C79.7812 73.5728 79.6875 72.9207 80.0312 72.4602C84.9187 65.9352 87.5 58.1707 87.5 49.9998C87.5 29.3228 70.677 12.4998 50 12.4998C29.3229 12.4998 12.5 29.3228 12.5 49.9998C12.5 70.6769 29.3229 87.4998 50 87.4998C60.002 87.4998 69.4062 83.6103 76.4833 76.5457C76.8895 76.1415 77.55 76.1394 77.9562 76.5478C78.3625 76.954 78.3625 77.6144 77.9562 78.0207C70.4854 85.4769 60.5562 89.5832 50 89.5832Z" fill="#FF5026"/>
<path d="M65.6249 23.9784C66.2002 23.9784 66.6666 23.512 66.6666 22.9367C66.6666 22.3614 66.2002 21.895 65.6249 21.895C65.0496 21.895 64.5833 22.3614 64.5833 22.9367C64.5833 23.512 65.0496 23.9784 65.6249 23.9784Z" fill="#FF5026"/>
<path d="M65.625 25.0202C66.7755 25.0202 67.7083 24.0874 67.7083 22.9368C67.7083 21.7863 66.7755 20.8535 65.625 20.8535C64.4744 20.8535 63.5416 21.7863 63.5416 22.9368C63.5416 24.0874 64.4744 25.0202 65.625 25.0202Z" fill="#FF5026"/>
<path d="M34.3749 78.1039C34.9502 78.1039 35.4166 77.6375 35.4166 77.0622C35.4166 76.4869 34.9502 76.0205 34.3749 76.0205C33.7996 76.0205 33.3333 76.4869 33.3333 77.0622C33.3333 77.6375 33.7996 78.1039 34.3749 78.1039Z" fill="#FF5026"/>
<path d="M34.375 79.1457C35.5256 79.1457 36.4583 78.2129 36.4583 77.0623C36.4583 75.9117 35.5256 74.979 34.375 74.979C33.2244 74.979 32.2916 75.9117 32.2916 77.0623C32.2916 78.2129 33.2244 79.1457 34.375 79.1457Z" fill="#FF5026"/>
<path d="M77.0622 35.4163C77.6375 35.4163 78.1038 34.95 78.1038 34.3747C78.1038 33.7994 77.6375 33.333 77.0622 33.333C76.4869 33.333 76.0205 33.7994 76.0205 34.3747C76.0205 34.95 76.4869 35.4163 77.0622 35.4163Z" fill="#FF5026"/>
<path d="M77.0622 36.4582C78.2128 36.4582 79.1456 35.5254 79.1456 34.3748C79.1456 33.2242 78.2128 32.2915 77.0622 32.2915C75.9116 32.2915 74.9789 33.2242 74.9789 34.3748C74.9789 35.5254 75.9116 36.4582 77.0622 36.4582Z" fill="#FF5026"/>
<path d="M22.9372 66.6664C23.5125 66.6664 23.9788 66.2 23.9788 65.6247C23.9788 65.0494 23.5125 64.583 22.9372 64.583C22.3619 64.583 21.8955 65.0494 21.8955 65.6247C21.8955 66.2 22.3619 66.6664 22.9372 66.6664Z" fill="#FF5026"/>
<path d="M22.9372 67.7082C24.0878 67.7082 25.0205 66.7754 25.0205 65.6248C25.0205 64.4742 24.0878 63.5415 22.9372 63.5415C21.7866 63.5415 20.8539 64.4742 20.8539 65.6248C20.8539 66.7754 21.7866 67.7082 22.9372 67.7082Z" fill="#FF5026"/>
<path d="M81.2499 51.0413C81.8252 51.0413 82.2916 50.575 82.2916 49.9997C82.2916 49.4244 81.8252 48.958 81.2499 48.958C80.6746 48.958 80.2083 49.4244 80.2083 49.9997C80.2083 50.575 80.6746 51.0413 81.2499 51.0413Z" fill="#FF5026"/>
<path d="M81.25 52.0832C82.4005 52.0832 83.3333 51.1504 83.3333 49.9998C83.3333 48.8492 82.4005 47.9165 81.25 47.9165C80.0994 47.9165 79.1666 48.8492 79.1666 49.9998C79.1666 51.1504 80.0994 52.0832 81.25 52.0832Z" fill="#FF5026"/>
<path d="M18.7499 51.0413C19.3252 51.0413 19.7916 50.575 19.7916 49.9997C19.7916 49.4244 19.3252 48.958 18.7499 48.958C18.1746 48.958 17.7083 49.4244 17.7083 49.9997C17.7083 50.575 18.1746 51.0413 18.7499 51.0413Z" fill="#FF5026"/>
<path d="M18.75 52.0832C19.9006 52.0832 20.8333 51.1504 20.8333 49.9998C20.8333 48.8492 19.9006 47.9165 18.75 47.9165C17.5994 47.9165 16.6666 48.8492 16.6666 49.9998C16.6666 51.1504 17.5994 52.0832 18.75 52.0832Z" fill="#FF5026"/>
<path d="M77.0622 66.6664C77.6375 66.6664 78.1038 66.2 78.1038 65.6247C78.1038 65.0494 77.6375 64.583 77.0622 64.583C76.4869 64.583 76.0205 65.0494 76.0205 65.6247C76.0205 66.2 76.4869 66.6664 77.0622 66.6664Z" fill="#FF5026"/>
<path d="M77.0622 67.7082C78.2128 67.7082 79.1456 66.7754 79.1456 65.6248C79.1456 64.4742 78.2128 63.5415 77.0622 63.5415C75.9116 63.5415 74.9789 64.4742 74.9789 65.6248C74.9789 66.7754 75.9116 67.7082 77.0622 67.7082Z" fill="#FF5026"/>
<path d="M22.9372 35.4163C23.5125 35.4163 23.9788 34.95 23.9788 34.3747C23.9788 33.7994 23.5125 33.333 22.9372 33.333C22.3619 33.333 21.8955 33.7994 21.8955 34.3747C21.8955 34.95 22.3619 35.4163 22.9372 35.4163Z" fill="#FF5026"/>
<path d="M22.9372 36.4582C24.0878 36.4582 25.0205 35.5254 25.0205 34.3748C25.0205 33.2242 24.0878 32.2915 22.9372 32.2915C21.7866 32.2915 20.8539 33.2242 20.8539 34.3748C20.8539 35.5254 21.7866 36.4582 22.9372 36.4582Z" fill="#FF5026"/>
<path d="M65.6249 78.1039C66.2002 78.1039 66.6666 77.6375 66.6666 77.0622C66.6666 76.4869 66.2002 76.0205 65.6249 76.0205C65.0496 76.0205 64.5833 76.4869 64.5833 77.0622C64.5833 77.6375 65.0496 78.1039 65.6249 78.1039Z" fill="#FF5026"/>
<path d="M65.625 79.1457C66.7755 79.1457 67.7083 78.2129 67.7083 77.0623C67.7083 75.9117 66.7755 74.979 65.625 74.979C64.4744 74.979 63.5416 75.9117 63.5416 77.0623C63.5416 78.2129 64.4744 79.1457 65.625 79.1457Z" fill="#FF5026"/>
<path d="M34.3749 23.9784C34.9502 23.9784 35.4166 23.512 35.4166 22.9367C35.4166 22.3614 34.9502 21.895 34.3749 21.895C33.7996 21.895 33.3333 22.3614 33.3333 22.9367C33.3333 23.512 33.7996 23.9784 34.3749 23.9784Z" fill="#FF5026"/>
<path d="M34.375 25.0202C35.5256 25.0202 36.4583 24.0874 36.4583 22.9368C36.4583 21.7863 35.5256 20.8535 34.375 20.8535C33.2244 20.8535 32.2916 21.7863 32.2916 22.9368C32.2916 24.0874 33.2244 25.0202 34.375 25.0202Z" fill="#FF5026"/>
<path d="M49.9999 82.2914C50.5752 82.2914 51.0416 81.825 51.0416 81.2497C51.0416 80.6744 50.5752 80.208 49.9999 80.208C49.4246 80.208 48.9583 80.6744 48.9583 81.2497C48.9583 81.825 49.4246 82.2914 49.9999 82.2914Z" fill="#FF5026"/>
<path d="M50 83.3332C51.1506 83.3332 52.0833 82.4004 52.0833 81.2498C52.0833 80.0992 51.1506 79.1665 50 79.1665C48.8494 79.1665 47.9166 80.0992 47.9166 81.2498C47.9166 82.4004 48.8494 83.3332 50 83.3332Z" fill="#FF5026"/>
<path d="M49.9999 19.7913C50.5752 19.7913 51.0416 19.325 51.0416 18.7497C51.0416 18.1744 50.5752 17.708 49.9999 17.708C49.4246 17.708 48.9583 18.1744 48.9583 18.7497C48.9583 19.325 49.4246 19.7913 49.9999 19.7913Z" fill="#FF5026"/>
<path d="M50 20.8332C51.1506 20.8332 52.0833 19.9004 52.0833 18.7498C52.0833 17.5992 51.1506 16.6665 50 16.6665C48.8494 16.6665 47.9166 17.5992 47.9166 18.7498C47.9166 19.9004 48.8494 20.8332 50 20.8332Z" fill="#FF5026"/>
<path d="M72.7979 38.0577C72.5291 37.5473 71.9 37.3493 71.3895 37.6181L54.95 46.2285C55.3708 46.7806 55.6937 47.4014 55.9145 48.0764L72.3583 39.4639C72.8687 39.1973 73.0645 38.5681 72.7979 38.0577Z" fill="#FF5026"/>
<path d="M47.829 45.2776L39.3811 33.7589C39.0415 33.2943 38.3853 33.1943 37.9249 33.5359C37.4603 33.8776 37.3603 34.5297 37.702 34.9922L46.154 46.5172C46.6228 45.9984 47.1853 45.5734 47.829 45.2776Z" fill="#FF5026"/>
<path d="M50 56.25C46.5542 56.25 43.75 53.4458 43.75 50C43.75 46.5542 46.5542 43.75 50 43.75C53.4458 43.75 56.25 46.5542 56.25 50C56.25 53.4458 53.4458 56.25 50 56.25ZM50 45.8333C47.7021 45.8333 45.8333 47.7021 45.8333 50C45.8333 52.2979 47.7021 54.1667 50 54.1667C52.2979 54.1667 54.1667 52.2979 54.1667 50C54.1667 47.7021 52.2979 45.8333 50 45.8333Z" fill="#FF5026"/>
</svg>
