<svg width="26" height="26" viewBox="0 0 26 26" fill="none" xmlns="http://www.w3.org/2000/svg">
<path d="M22.0882 20.3807C20.113 19.2401 19.9579 19.7307 18.7082 19.0388C18.3223 18.8207 17.9561 18.5696 17.6137 18.2881V17.0552C18.9346 15.6839 18.9137 14.5056 18.8466 12.8617C19.6758 12.4651 20.3297 11.7769 20.6833 10.9285C20.914 10.2156 21.304 8.5004 20.4443 8.08943C20.0731 7.93214 19.6539 7.93214 19.2827 8.08943C19.2827 7.42685 19.2827 6.63008 19.2492 5.64879C19.0269 0.721369 13.4914 0.419434 13.4201 0.419434H12.5814C12.5101 0.419434 6.97464 0.721369 6.75238 5.6404C6.71044 6.62169 6.71044 7.41847 6.71044 8.08105C6.33921 7.92375 5.92006 7.92375 5.54883 8.08105C4.68915 8.5004 5.07915 10.2072 5.31399 10.9369C5.67034 11.778 6.32219 12.4597 7.14657 12.8533C7.07528 14.5307 7.0627 15.6756 8.37947 17.0469V18.2798C7.74126 18.8386 6.98399 19.2445 6.16528 19.4665C4.97431 19.6762 4.30335 20.1794 2.12689 21.341C1.6656 21.5843 0.910765 21.8359 0.583668 22.3936C0.365604 22.7878 0.42012 23.0898 0.42012 24.3227C0.42012 25.0175 0.983374 25.5807 1.67818 25.5807H24.3233C25.0182 25.5807 25.5814 25.0175 25.5814 24.3227C25.5814 21.7269 25.8204 22.4733 22.0882 20.3807ZM9.22657 17.9862C10.2204 19.2904 10.535 20.5485 12.1621 20.5485C14.5817 20.5485 14.9424 20.7749 16.1501 18.871C16.3304 18.5859 16.5317 18.2798 16.7708 17.9652V18.871C16.7708 20.9555 15.081 22.6452 12.9966 22.6452C10.9121 22.6452 9.22238 20.9555 9.22238 18.871L9.22657 17.9862ZM20.0669 8.83589C20.2053 9.00363 20.1172 9.90105 19.8866 10.6643C19.6729 11.1592 19.3204 11.5816 18.8717 11.8804C18.9262 11.2094 19.1611 10.3665 19.2575 9.03718C19.485 8.85517 19.7807 8.78164 20.0669 8.83589ZM6.11915 10.6852C5.88431 9.90105 5.79625 9.00782 5.91786 8.84847C6.21158 8.78157 6.51981 8.85092 6.75657 9.03718C6.85302 10.3498 7.08367 11.1843 7.14238 11.8804C6.69672 11.585 6.34235 11.1711 6.11915 10.6852ZM7.96851 13.1385C8.09012 10.421 7.34786 10.6559 7.57431 5.68234C7.7798 1.53072 12.4053 1.25814 12.5814 1.25814H13.4201C13.6172 1.25814 18.2427 1.53072 18.4524 5.68234C18.6662 10.4336 17.9659 10.6894 18.033 12.6185C18.075 14.3169 18.2553 15.3065 16.9008 16.6107C15.2233 18.221 15.2233 19.7098 13.8646 19.7098C11.554 19.7098 11.5414 19.9362 10.5853 18.4517C10.1822 17.7761 9.69457 17.1546 9.13431 16.6023C7.96851 15.4701 7.91818 14.581 7.96851 13.1385ZM24.7427 24.3227C24.7427 24.5543 24.5549 24.742 24.3233 24.742H1.67818C1.44658 24.742 1.25883 24.5543 1.25883 24.3227C1.25883 23.0269 1.23786 22.9556 1.31335 22.8298C1.50625 22.5027 1.85012 22.4985 4.32851 21.1104C6.37076 19.932 6.55528 20.6323 8.40883 19.3239C8.63525 21.6906 10.6233 23.4975 13.0008 23.4975C15.3782 23.4975 17.3663 21.6906 17.5927 19.3239C17.8202 19.4856 18.0568 19.634 18.3014 19.7685C19.765 20.582 19.7398 19.9949 21.6562 21.1104C24.1137 22.4901 24.4785 22.5069 24.6672 22.8298C24.7427 22.9556 24.7427 22.9723 24.7427 24.3227Z" fill="#EDECEA"/>
<path d="M10.0647 8.80677H15.9357C16.6966 8.80872 17.3635 8.29823 17.5603 7.56318C17.7571 6.82814 17.4345 6.0527 16.7744 5.67419C16.8464 5.1607 16.6768 4.64278 16.3151 4.27125C15.9534 3.89972 15.4403 3.71634 14.925 3.77451C14.5933 3.00655 13.8367 2.50928 13.0002 2.50928C12.1636 2.50928 11.4071 3.00655 11.0753 3.77451C10.5601 3.71634 10.0469 3.89972 9.68524 4.27125C9.32355 4.64278 9.15401 5.1607 9.22598 5.67419C8.56587 6.0527 8.24324 6.82814 8.44004 7.56318C8.63684 8.29823 9.30376 8.80872 10.0647 8.80677ZM9.82986 6.32838C10.1821 6.22774 10.3205 6.36193 10.4841 6.36193C10.6868 6.3597 10.8589 6.21278 10.8929 6.01293C10.9268 5.81307 10.813 5.61751 10.6224 5.54838C10.4433 5.48487 10.2547 5.45226 10.0647 5.45193C10.0654 5.10459 10.2802 4.79362 10.6047 4.66993C10.9293 4.54624 11.2965 4.63542 11.5282 4.89419C11.6834 5.06905 11.951 5.08501 12.1258 4.92983C12.3007 4.77466 12.3166 4.50711 12.1615 4.33225C12.075 4.2376 11.9779 4.15318 11.8721 4.08064C12.0805 3.64185 12.5228 3.36221 13.0086 3.36221C13.4943 3.36221 13.9367 3.64185 14.145 4.08064C14.0393 4.15318 13.9422 4.2376 13.8557 4.33225C13.7005 4.5048 13.7146 4.77047 13.8871 4.92564C14.0597 5.08082 14.3253 5.06673 14.4805 4.89419C14.7133 4.64175 15.0765 4.55675 15.3972 4.67966C15.7179 4.80257 15.9312 5.10854 15.9357 5.45193C15.7456 5.45226 15.557 5.48487 15.3779 5.54838C15.2726 5.5854 15.1865 5.66285 15.1384 5.76359C15.0904 5.86434 15.0846 5.98007 15.1221 6.08516C15.201 6.30057 15.4382 6.41268 15.6547 6.33677C15.9119 6.24533 16.1975 6.28476 16.4202 6.44246C16.643 6.60016 16.7751 6.8564 16.7744 7.12935C16.7744 7.59256 16.3989 7.96806 15.9357 7.96806H10.0647C9.65263 7.96139 9.30646 7.65633 9.24803 7.24837C9.1896 6.84041 9.43622 6.45045 9.82986 6.32838Z" fill="#EDECEA"/>
</svg>
