<svg width="92" height="92" viewBox="0 0 92 92" fill="none" xmlns="http://www.w3.org/2000/svg">
<path d="M48.4582 91.8332H43.5415C42.0561 91.8332 40.7665 90.7769 40.4769 89.3207L39.9748 86.8144C39.8894 86.3936 39.5478 86.0748 39.104 85.9978C36.6373 85.579 34.2311 84.9436 31.9498 84.1082C31.5228 83.9519 31.0707 84.0582 30.7894 84.379L29.1228 86.2769C28.1415 87.3894 26.4978 87.6623 25.2123 86.9207L20.954 84.4623C19.6686 83.7207 19.0811 82.1623 19.5561 80.754L20.3769 78.329C20.5144 77.9248 20.379 77.4769 20.0311 77.1873C18.1415 75.6123 16.3853 73.8561 14.8082 71.9644C14.5186 71.6186 14.0707 71.4832 13.6686 71.6207L11.2436 72.4415C9.83525 72.9186 8.27692 72.329 7.53525 71.0436L5.07692 66.7853C4.33525 65.4998 4.604 63.8561 5.72067 62.8748L7.61859 61.2082C7.93942 60.9269 8.04567 60.4707 7.88942 60.0478C7.054 57.7665 6.4165 55.3603 5.99984 52.8936C5.92484 52.4478 5.604 52.1061 5.18317 52.0228L2.67692 51.5207C1.22275 51.2332 0.166504 49.9436 0.166504 48.4582V43.5415C0.166504 42.0561 1.22275 40.7665 2.679 40.4769L5.18525 39.9748C5.604 39.8915 5.92484 39.5498 5.99984 39.104C6.41859 36.6373 7.054 34.2311 7.88942 31.9498C8.04567 31.5248 7.93734 31.0707 7.61859 30.7894L5.72067 29.1228C4.60609 28.1415 4.33525 26.4978 5.07692 25.2123L7.53525 20.954C8.27692 19.6686 9.83942 19.0811 11.2436 19.5561L13.6686 20.3769C14.0728 20.5144 14.5207 20.379 14.8082 20.0332C16.3832 18.1415 18.1415 16.3853 20.0311 14.8103C20.3769 14.5228 20.5123 14.0748 20.3748 13.6707L19.554 11.2457C19.0769 9.83942 19.6665 8.279 20.9519 7.53734L25.2103 5.079C26.4936 4.33734 28.1394 4.60609 29.1207 5.72275L30.7873 7.62067C31.0707 7.9415 31.5269 8.04984 31.9478 7.8915C34.229 7.05609 36.6353 6.41859 39.104 5.99984C39.5498 5.92484 39.8915 5.604 39.9748 5.18317L40.4769 2.67692C40.7665 1.22275 42.0561 0.166504 43.5415 0.166504H48.4582C49.9436 0.166504 51.2332 1.22275 51.5228 2.679L52.0248 5.18525C52.1082 5.604 52.4498 5.92484 52.8957 5.99984C55.3644 6.41859 57.7707 7.054 60.0498 7.8915C60.4686 8.0415 60.9269 7.93942 61.2103 7.61859L62.8769 5.72067C63.8561 4.60609 65.4998 4.33317 66.7873 5.07692L71.0457 7.53525C72.3311 8.27692 72.9186 9.83525 72.4436 11.2436L71.6227 13.6686C71.4853 14.0728 71.6207 14.5207 71.9665 14.8082C73.8582 16.3832 75.6144 18.1415 77.1894 20.0311C77.479 20.3769 77.9228 20.5103 78.329 20.3748L80.754 19.554C82.1623 19.0748 83.7207 19.6665 84.4623 20.9519L86.9207 25.2103C87.6623 26.4957 87.3936 28.1394 86.2769 29.1207L84.379 30.7873C84.0582 31.0686 83.9519 31.5248 84.1082 31.9478C84.9436 34.229 85.5811 36.6353 85.9978 39.1019C86.0728 39.5478 86.3936 39.8894 86.8144 39.9728L89.3207 40.4748C90.7769 40.7686 91.8332 42.0561 91.8332 43.5415V48.4582C91.8332 49.9436 90.7769 51.2332 89.3207 51.5228L86.8144 52.0248C86.3936 52.1103 86.0748 52.4519 85.9978 52.8957C85.579 55.3623 84.9436 57.7686 84.1082 60.0498C83.9519 60.4748 84.0602 60.929 84.379 61.2103L86.2769 62.8769C87.3915 63.8582 87.6623 65.5019 86.9207 66.7873L84.4623 71.0457C83.7207 72.3311 82.1582 72.9186 80.754 72.4436L78.329 71.6227C77.9248 71.4853 77.479 71.6227 77.1873 71.9686C75.6123 73.8582 73.8561 75.6144 71.9644 77.1915C71.6186 77.479 71.4832 77.9269 71.6207 78.3311L72.4415 80.7561C72.9186 82.1623 72.329 83.7228 71.0436 84.4644L66.7853 86.9228C65.4998 87.6644 63.854 87.3936 62.8748 86.279L61.2082 84.3811C60.929 84.0623 60.4748 83.9561 60.0478 84.1103C57.7665 84.9457 55.3603 85.5832 52.8936 85.9998C52.4478 86.0748 52.1061 86.3957 52.0228 86.8165L51.5207 89.3227C51.2332 90.7769 49.9436 91.8332 48.4582 91.8332ZM31.5519 81.954C31.9228 81.954 32.2998 82.0186 32.6665 82.154C34.8269 82.9457 37.1103 83.5478 39.4498 83.9436C40.754 84.1644 41.7603 85.1311 42.0165 86.4061L42.5186 88.9123C42.6165 89.3978 43.0457 89.7498 43.5415 89.7498H48.4582C48.954 89.7498 49.3832 89.3978 49.479 88.9144L49.9811 86.4061C50.2373 85.1311 51.2436 84.1644 52.5478 83.9436C54.8894 83.5478 57.1707 82.9457 59.3332 82.154C60.5686 81.6978 61.9207 82.0332 62.7748 83.0061L64.4415 84.904C64.7686 85.2728 65.3165 85.3623 65.7457 85.1186L70.004 82.6602C70.4332 82.4123 70.629 81.8936 70.4707 81.4248L69.6498 78.9998C69.2353 77.7748 69.6207 76.4373 70.6332 75.5915C72.4269 74.0957 74.0957 72.429 75.5894 70.6353C76.4332 69.6207 77.7728 69.2353 78.9977 69.6498L81.4227 70.4707C81.8915 70.6269 82.4123 70.4311 82.6582 70.004L85.1165 65.7457C85.3644 65.3165 85.2748 64.7686 84.9019 64.4415L83.004 62.7748C82.0332 61.9207 81.6978 60.5686 82.1519 59.3332C82.9436 57.1728 83.5457 54.8894 83.9415 52.5498C84.1623 51.2457 85.129 50.2394 86.404 49.9832L88.9102 49.4811C89.3978 49.3832 89.7498 48.954 89.7498 48.4582V43.5415C89.7498 43.0457 89.3978 42.6165 88.9144 42.5207L86.4082 42.0186C85.1332 41.7623 84.1686 40.7561 83.9457 39.4519C83.5498 37.1103 82.9477 34.829 82.1561 32.6665C81.7019 31.4311 82.0352 30.079 83.0082 29.2248L84.9061 27.5582C85.2769 27.2311 85.3686 26.6832 85.1207 26.254L82.6623 21.9957C82.4144 21.5665 81.8957 21.3728 81.4269 21.529L79.0019 22.3498C77.7769 22.7665 76.4373 22.3811 75.5936 21.3644C74.0998 19.5707 72.4311 17.904 70.6394 16.4103C69.6248 15.5665 69.2394 14.229 69.654 13.0019L70.4748 10.5769C70.6332 10.1082 70.4373 9.58734 70.0082 9.3415L65.7498 6.88317C65.3228 6.63525 64.7728 6.72484 64.4457 7.09775L62.779 8.99567C61.9269 9.96859 60.5748 10.3019 59.3373 9.84984C57.1769 9.05609 54.8936 8.454 52.5519 8.05817C51.2478 7.83734 50.2415 6.87067 49.9853 5.59567L49.479 3.08734C49.3832 2.60192 48.954 2.24984 48.4582 2.24984H43.5415C43.0457 2.24984 42.6165 2.60192 42.5207 3.08525L42.0186 5.59359C41.7623 6.86859 40.7561 7.83525 39.4519 8.05609C37.1082 8.45192 34.8269 9.054 32.6686 9.84775C31.4353 10.3019 30.0811 9.96859 29.2269 8.99567L27.5603 7.09775C27.2332 6.72692 26.6832 6.63317 26.2561 6.88317L21.9978 9.3415C21.5686 9.58942 21.3728 10.1082 21.5311 10.5769L22.3519 13.0019C22.7665 14.229 22.3811 15.5665 21.3665 16.4103C19.5728 17.904 17.9061 19.5728 16.4123 21.3644C15.5707 22.379 14.229 22.7644 13.004 22.3498L10.579 21.529C10.1061 21.3707 9.58942 21.5665 9.34359 21.9957L6.88525 26.254C6.63734 26.6832 6.72692 27.2311 7.09984 27.5582L8.99775 29.2248C9.96859 30.079 10.304 31.4311 9.84984 32.6665C9.05817 34.8269 8.45609 37.1103 8.06025 39.4498C7.83942 40.754 6.87275 41.7603 5.59775 42.0165L3.08734 42.5207C2.60192 42.6165 2.24984 43.0457 2.24984 43.5415V48.4582C2.24984 48.954 2.60192 49.3832 3.08525 49.479L5.59359 49.9811C6.86859 50.2373 7.83525 51.2436 8.05609 52.5478C8.45192 54.8894 9.054 57.1707 9.84567 59.3332C10.2998 60.5686 9.9665 61.9207 8.99359 62.7748L7.09567 64.4415C6.72484 64.7686 6.63317 65.3165 6.88109 65.7457L9.33942 70.004C9.58734 70.4332 10.104 70.6269 10.5748 70.4707L12.9998 69.6498C14.2228 69.2353 15.5623 69.6207 16.4082 70.6332C17.904 72.4269 19.5707 74.0957 21.3644 75.5894C22.379 76.4352 22.7644 77.7728 22.3498 78.9977L21.529 81.4227C21.3707 81.8915 21.5665 82.4123 21.9957 82.6582L26.254 85.1165C26.6811 85.3644 27.2311 85.2748 27.5582 84.9019L29.2248 83.004C29.8248 82.3228 30.6728 81.954 31.5519 81.954ZM45.9998 60.5832C37.9582 60.5832 31.4165 54.0415 31.4165 45.9998C31.4165 37.9582 37.9582 31.4165 45.9998 31.4165C54.0415 31.4165 60.5832 37.9582 60.5832 45.9998C60.5832 54.0415 54.0415 60.5832 45.9998 60.5832ZM45.9998 33.4998C39.1061 33.4998 33.4998 39.1061 33.4998 45.9998C33.4998 52.8936 39.1061 58.4998 45.9998 58.4998C52.8936 58.4998 58.4998 52.8936 58.4998 45.9998C58.4998 39.1061 52.8936 33.4998 45.9998 33.4998Z" fill="#FF5026"/>
<path d="M45.9997 75.1663C29.9163 75.1663 16.833 62.083 16.833 45.9997C16.833 29.9163 29.9163 16.833 45.9997 16.833C62.083 16.833 75.1663 29.9163 75.1663 45.9997C75.1663 53.1976 72.5226 60.108 67.7226 65.4622C67.3372 65.8934 66.6809 65.9268 66.2518 65.5413C65.8226 65.158 65.7872 64.4997 66.1726 64.0705C70.6288 59.0997 73.083 52.683 73.083 45.9997C73.083 31.0663 60.933 18.9163 45.9997 18.9163C31.0663 18.9163 18.9163 31.0663 18.9163 45.9997C18.9163 60.933 31.0663 73.083 45.9997 73.083C51.7872 73.083 57.3101 71.283 61.9684 67.8768C62.433 67.5372 63.0851 67.6372 63.4247 68.1038C63.7643 68.5684 63.6622 69.2205 63.1976 69.5601C58.1809 73.2268 52.233 75.1663 45.9997 75.1663Z" fill="#FF5026"/>
</svg>
