<svg width="26" height="26" viewBox="0 0 26 26" fill="none" xmlns="http://www.w3.org/2000/svg">
<circle cx="13" cy="13" r="13" fill="url(#paint0_linear)"/>
<path d="M17.2783 7.7998H9.37328C8.48078 7.7998 7.80078 8.47981 7.80078 9.37231V17.2773C7.80078 18.1698 8.48078 18.8498 9.37328 18.8498H17.2783C18.1708 18.8498 18.8508 18.1698 18.8508 17.2773V9.37231C18.8508 8.47981 18.1708 7.7998 17.2783 7.7998ZM13.3258 16.6398C15.1533 16.6398 16.6408 15.1948 16.6408 13.4523C16.6408 13.1548 16.5983 12.8148 16.5133 12.5598H17.4483V17.0648C17.4483 17.2773 17.2783 17.4898 17.0233 17.4898H9.62828C9.41578 17.4898 9.20328 17.3198 9.20328 17.0648V12.5173H10.1808C10.0958 12.8148 10.0533 13.1123 10.0533 13.4098C10.0108 15.1948 11.4983 16.6398 13.3258 16.6398ZM13.3258 15.3648C12.1358 15.3648 11.2008 14.4298 11.2008 13.2823C11.2008 12.1348 12.1358 11.1998 13.3258 11.1998C14.5158 11.1998 15.4508 12.1348 15.4508 13.2823C15.4508 14.4723 14.5158 15.3648 13.3258 15.3648ZM17.4058 10.8173C17.4058 11.0723 17.1933 11.2848 16.9383 11.2848H15.7483C15.4933 11.2848 15.2808 11.0723 15.2808 10.8173V9.6698C15.2808 9.4148 15.4933 9.2023 15.7483 9.2023H16.9383C17.1933 9.2023 17.4058 9.4148 17.4058 9.6698V10.8173Z" fill="white"/>
<defs>
<linearGradient id="paint0_linear" x1="5.525" y1="23.075" x2="22.75" y2="5.2" gradientUnits="userSpaceOnUse">
<stop stop-color="#EEA054"/>
<stop offset="0.502762" stop-color="#D64763"/>
<stop offset="1" stop-color="#B62A99"/>
</linearGradient>
</defs>
</svg>
