<svg width="84" height="40" viewBox="0 0 84 40" fill="none" xmlns="http://www.w3.org/2000/svg">
<path d="M47.0975 31.2667C46.6225 31.1265 45.7263 31.2597 45.8332 31.6589C45.7263 31.2597 45.7263 31.2597 45.0605 31.1172C45.1318 31.3833 44.5816 31.4595 44.2266 31.4833C44.4882 31.2527 44.8519 31.1196 45.6193 30.8605C46.4718 31.2739 47.6995 30.0357 48.5254 30.4205C48.0864 30.6986 47.7321 31.2927 47.0975 31.2667Z" fill="white"/>
<path d="M44.1678 33.8155L44.0345 33.6729C44.4916 33.6752 44.9576 33.7108 45.4057 33.6799C45.1084 33.6348 44.1676 33.6016 44.1678 33.8155Z" fill="white"/>
<path d="M39.8314 33.9621C39.9648 34.2472 39.3083 34.4944 39.3264 34.7748C39.3213 34.1879 38.2481 34.725 37.6533 34.6348L37.4131 34.1643C37.6881 33.9837 38.1895 33.9385 38.7752 33.9242C39.352 33.8766 40.0043 33.8266 40.6077 33.7362L39.8314 33.9621Z" fill="#F8F2EC"/>
<path d="M38.7548 34.4111L38.3683 34.1046C38.6791 34.1996 39.416 34.1804 38.7548 34.4111Z" fill="white"/>
<path d="M39.4901 32.6815C40.4044 32.5434 38.9488 32.9335 39.8855 32.9499C39.548 32.8977 39.1929 32.9215 39.4901 32.6815Z" fill="white"/>
<path d="M35.6086 33.7384L37.6013 33.9354L36.7673 34.1589L35.6086 33.7384Z" fill="#F8F2EC"/>
<path d="M35.4409 34.7462C35.7072 34.7461 36.133 34.5607 35.7689 34.4088C35.0195 34.8056 34.6107 34.2736 33.9143 34.5137L34.5402 34.7202C34.4163 35.1098 33.2262 34.2169 33.1825 34.9058C32.3655 34.3406 33.9141 34.3712 32.8265 33.9319C33.865 34.117 34.6637 34.1168 35.551 33.9504C35.2849 34.0929 35.1829 34.0668 34.8147 34.1833C35.4448 34.1927 36.297 34.392 37.0469 34.4228C36.6347 34.8718 36.0885 34.4657 35.4409 34.7462Z" fill="#F8F2EC"/>
<path d="M32.1739 34.6244C31.4683 34.6174 30.3943 34.5129 30.3315 33.9236C31.1078 33.6978 31.1482 34.1326 31.4414 34.375C31.6721 34.3132 32.3599 34.325 32.1288 34.0303C32.0091 34.1515 32.5109 34.4628 32.1739 34.6244Z" fill="#F8F2EC"/>
<path d="M29.4573 34.3542L29.0838 33.8124L29.3858 33.9454L29.492 33.6317C29.5365 33.7268 29.6304 34.3612 30.323 34.4609C29.9103 34.625 29.8434 34.3042 29.4573 34.3542Z" fill="#F8F2EC"/>
<path d="M29.8109 32.0496C29.3185 32.1993 29.0964 32.0093 28.6392 31.7933C29.3138 31.9689 30.3079 32.1302 30.4812 32.3511L30.4368 32.2561C30.4368 32.2561 31.0362 32.6479 31.4537 32.9994C30.801 32.6219 29.4301 32.8288 29.8109 32.0496Z" fill="#F8F2EC"/>
<path d="M30.7207 32.1796L30.2808 31.8161L30.7207 32.1796Z" fill="#F8F2EC"/>
<path d="M27.3847 33.8577L28.4635 33.9074L28.1661 34.0049L27.3847 33.8577Z" fill="#F8F2EC"/>
<path d="M28.9767 32.6997C28.1553 32.6167 29.5091 32.4144 28.7543 32.2957C28.5589 32.2055 29.8554 32.4999 29.8601 32.7304C29.6293 32.7922 29.145 32.3337 28.9767 32.6997Z" fill="#F8F2EC"/>
<path d="M26.7078 33.7358L25.9836 33.1632L26.7078 33.7358Z" fill="#F8F2EC"/>
<path d="M24.5362 33.3737L24.4605 33.0911C23.5509 33.1031 22.6714 32.3052 21.8642 32.6284C22.1257 32.3979 21.8057 31.9134 22.5336 32.0748C22.5649 32.2624 22.8179 32.355 22.6938 32.5308C23.0134 32.5878 23.0442 32.3478 23.2705 32.3407C23.6615 32.8062 24.5401 32.8202 24.8821 33.1741C24.7001 33.0625 24.6158 33.1029 24.4605 33.0911C25.2066 33.7465 25.707 32.7749 25.8632 33.5706C25.6321 33.2761 24.9181 33.5922 24.5362 33.3737Z" fill="#F8F2EC"/>
<path d="M25.2097 31.7672L25.9198 31.8621C25.8173 31.4796 25.0942 31.6199 25.0849 31.3016C25.1913 31.1306 25.9013 31.2254 25.697 31.0307C25.5203 31.7909 26.6114 31.3203 25.9732 32.0616C26.8255 32.4035 26.4032 31.679 27.3176 31.9687L27.4646 32.4461C26.4745 31.9451 26.1775 32.2563 25.2097 31.7672Z" fill="#F8F2EC"/>
<path d="M22.5681 30.9955L22.1423 31.1096L22.4703 30.8435C21.0099 30.2903 19.4933 31.1601 18.6718 30.5783C17.8011 29.671 16.4743 29.6879 15.391 29.0515C15.0487 28.4839 16.0123 29.1702 16.1675 29.0395C16.3665 28.4337 15.4619 29.0325 15.519 28.4648C15.7094 28.0395 16.9037 28.664 17.4938 28.6663C17.8535 28.9441 17.7693 29.0558 17.7519 29.3456C17.9913 29.1745 18.4352 29.3407 18.6702 29.153C19.3543 29.8607 20.126 29.4757 20.7791 30.2096C21.2048 30.0243 20.1708 29.8558 20.477 29.9341L20.9343 30.1502L20.8633 30.1692C21.3166 30.7963 22.6923 30.891 23.1936 30.8458C22.8298 30.8363 22.4794 31.0193 22.8258 31.2473L23.3092 30.993L23.918 31.8457C23.4426 31.278 22.3825 31.7225 22.5681 30.9955Z" fill="#F8F2EC"/>
<path d="M23.7754 30.6727C24.8455 30.8317 23.4209 31.1956 24.5797 31.4021C24.2023 31.2715 23.8336 31.1028 23.4517 30.9556L23.7754 30.6727Z" fill="#F8F2EC"/>
<path d="M18.6666 29.6352L18.0407 29.6424C18.5952 29.2977 18.9736 30.2839 18.6666 29.6352Z" fill="white"/>
<path d="M16.958 28.7217L16.9231 29.3015L16.6562 28.8025L16.958 28.7217Z" fill="white"/>
<path d="M15.0564 28.3749C14.8828 27.9401 15.3845 28.0374 15.7577 28.294C15.3891 28.1253 15.0961 28.1682 15.0564 28.3749Z" fill="#F8F2EC"/>
<path d="M11.9689 27.5631C12.7019 28.0977 11.2227 27.1926 11.4632 27.9482C11.5118 27.7035 11.3381 27.1973 11.9689 27.5631Z" fill="white"/>
<path d="M8.78097 26.7419C8.97216 27.0294 9.14976 27.0531 9.26511 26.9865C9.06961 26.825 8.89194 26.7299 8.78097 26.7419Z" fill="#F8F2EC"/>
<path d="M19.5598 31.4099C19.6487 31.4574 19.7552 31.5001 19.8574 31.5262L19.5598 31.4099Z" fill="#F8F2EC"/>
<path d="M19.3679 31.3363L19.5589 31.4099C19.4923 31.3743 19.4301 31.3553 19.3679 31.3363Z" fill="#F8F2EC"/>
<path d="M12.7459 28.9765C12.7862 28.9841 12.804 28.9793 12.8397 28.9697L12.7459 28.9765Z" fill="#F8F2EC"/>
<path d="M41.5108 34.4746C41.7017 34.477 41.8348 34.4769 41.9458 34.465L41.5108 34.4746Z" fill="#F8F2EC"/>
<path d="M41.9185 33.724C41.1284 33.4722 41.1917 34.5605 39.9269 34.4537C40.4284 34.4798 40.9609 34.4797 41.5111 34.4749C42.1539 33.8926 40.9385 34.254 41.9185 33.724Z" fill="#F8F2EC"/>
<path d="M31.8351 33.2173C31.8126 33.2053 31.8126 33.2053 31.7902 33.1934C31.7274 33.1744 31.7723 33.1982 31.8351 33.2173Z" fill="#F8F2EC"/>
<path d="M70.4722 17.9987L70.5922 18.0914L70.8623 17.4663L70.4722 17.9987Z" fill="white"/>
<path d="M70.6101 18.229L70.0921 19.2767C70.8499 18.4142 71.5856 17.5399 72.228 16.6015C72.937 15.6986 73.5794 14.7602 74.1552 13.7861L73.858 13.8836C73.7779 13.7268 70.8013 18.5877 70.6101 18.229Z" fill="white"/>
<path d="M70.225 18.3509C69.3333 18.5008 69.7025 19.311 68.851 19.6818C69.4143 19.4418 69.8978 19.33 70.128 18.8405L70.225 18.3509Z" fill="white"/>
<path d="M65.9166 18.9532C65.8678 18.9841 65.8412 19.0269 65.8146 19.0697C65.8812 19.034 65.9344 19.0198 65.9877 19.0055L65.9166 18.9532Z" fill="#F8F2EC"/>
<path d="M65.9881 19.0055L66.1525 19.1219C66.1568 18.9959 66.0946 18.9769 65.9881 19.0055Z" fill="#F8F2EC"/>
<path d="M65.793 19.0577C65.6377 19.1172 65.4868 19.1933 65.3536 19.1933L65.4379 19.0816C65.256 19.1838 64.8966 19.3336 64.9145 19.4714C65.1583 19.1743 65.2738 19.2504 65.496 19.4404L65.0748 19.9277C65.6656 20.2864 65.4516 19.488 65.793 19.0577Z" fill="#F8F2EC"/>
<path d="M63.8738 21.3358C64.0736 21.3002 64.5259 20.858 64.362 21.2407C64.4908 21.224 64.5794 21.1289 64.6681 21.0339C64.2733 21.2645 64.246 20.6656 63.8738 21.3358Z" fill="#F8F2EC"/>
<path d="M64.6673 21.0345C64.7161 21.0036 64.7649 20.9727 64.827 20.9204C64.756 20.9394 64.7117 20.987 64.6673 21.0345Z" fill="#F8F2EC"/>
<path d="M63.1642 22.5234L62.9824 22.697C63.0445 22.6447 63.0933 22.6138 63.1421 22.5829L63.1642 22.5234Z" fill="#F8F2EC"/>
<path d="M78.4652 7.08984C78.2088 7.97832 77.9834 8.84067 77.2214 9.97155C76.7864 9.76735 76.8625 10.4063 76.3343 10.2805C76.6842 9.66998 76.0154 10.7937 75.2933 11.9317C74.6068 13.0602 73.6894 14.108 73.8974 13.6067L74.2699 13.4356L73.6354 13.4809C73.4009 14.0962 73.2999 15.0678 72.7854 15.2769C72.8565 15.4004 73.5785 14.1911 74.3139 13.0318C75.0448 11.8558 75.607 10.618 75.6426 10.751C75.4514 10.3924 74.5525 12.0768 73.3827 13.6733C72.3063 15.334 70.9191 16.8997 70.7949 16.933L70.9948 17.1824C70.1169 17.8097 69.314 18.007 68.6179 18.5322L68.8091 18.8908C69.1013 18.3492 69.412 18.3728 69.9529 17.9784C69.195 18.7696 69.2574 19.0736 68.6546 19.6629C68.2815 19.3351 68.9467 18.9787 68.0289 19.5989C67.9716 19.9528 68.8721 19.765 68.1451 20.3875C67.4583 21.3022 67.0627 20.6775 66.349 21.3499L66.6634 20.7489C66.3886 21.0007 65.8743 21.4237 65.7904 21.8204C66.0963 21.5424 66.9787 20.9317 67.3385 21.2809C66.966 21.5232 66.4521 22.3025 66.1329 22.5306L66.5545 22.6137C66.4796 23.1149 65.9558 22.9345 65.7789 23.4809C65.2777 23.6686 65.6541 22.944 65.3524 23.0249C65.3526 23.1674 64.7766 23.9277 64.395 23.9943C64.0837 23.3292 65.375 23.3931 65.3297 22.5141L64.7713 23.1984C63.8793 23.0632 65.8131 22.2599 65.2094 22.0652C64.2198 21.9918 64.6917 23.4692 63.5999 23.2271C63.777 22.8233 64.7079 21.9679 64.4061 21.9062C64.2513 22.3932 63.6654 22.2651 63.1644 22.5954C63.0626 22.8543 62.9297 23.0681 62.8013 23.2986C62.4108 23.3319 62.597 23.1751 62.6988 22.9161C62.1053 23.895 60.3756 24.6792 59.3563 25.9147C58.5403 26.3472 59.081 25.739 58.593 25.7628C58.4428 26.409 57.5199 26.5137 57.0942 26.7703C56.9878 26.8701 56.5306 26.654 56.5658 26.4307L57.8034 26.01C57.6257 25.8438 57.5854 25.4803 57.9845 25.2665C58.2073 26.0978 59.1323 23.8718 59.772 24.5558L59.4965 24.2376C60.011 24.0284 60.4944 23.7742 60.9601 23.5246L60.9601 23.5959C60.858 23.4985 62.2241 22.9899 62.7958 22.2843C62.5119 22.3603 61.4524 23.3749 61.8287 22.5077C61.1411 22.7098 60.5344 23.7813 59.4123 24.278L59.3897 23.9098C58.7553 24.0976 58.1834 24.5182 57.6071 24.9934C57.0218 25.4353 56.4233 25.8987 55.8024 26.2076L56.366 26.3239C56.0248 26.6827 55.6438 27.3194 55.0624 27.2078C55.6035 26.9559 55.2307 26.9132 55.0487 26.8016C54.2324 26.9491 53.2969 27.7166 52.2368 28.0185C52.2368 28.0185 52.3256 28.066 52.3079 28.142L51.15 28.3631C50.6711 28.634 50.5915 28.9049 50.3656 29.2684C50.1659 29.304 49.6958 29.4657 49.7931 29.1901C49.8906 29.1283 49.9749 29.0879 50.0503 29.0855C49.349 28.8814 49.7133 29.3184 48.9324 29.3138C49.5848 29.4776 48.9418 29.8459 49.1019 30.1594C48.2412 30.2831 48.8306 29.5727 48.6663 29.4564C47.7527 29.9507 47.7265 30.3497 46.7241 30.654C46.6129 30.4521 47.4026 30.3474 47.4201 30.0576C47.154 30.2002 46.8079 30.2573 46.7324 30.1884L47.2912 29.8605C46.3244 30.369 45.3353 30.7232 44.1195 30.7995L44.1815 30.6759L43.4584 30.8162L43.8004 31.1701C43.3922 31.1369 43.0155 31.5765 42.7489 31.2915L42.8864 31.2368L42.3805 31.1941L42.9799 31.5147C42.3546 31.807 41.3909 31.1207 40.3838 31.2658C40.2158 31.8455 42.181 31.3011 42.408 31.9353C42.0798 32.1301 41.5032 32.3203 41.2634 32.1351C41.2853 31.9332 41.5294 31.9212 41.7822 31.8713C40.8323 31.5912 39.5064 32.3207 38.8979 31.7531L39.5587 31.4513C38.7689 31.4847 38.2816 32.2212 38.0016 31.8151L38.6458 32.5157C37.8112 32.169 36.7685 32.2524 36.0183 32.0079C36.0223 31.5969 37.101 32.0029 37.061 31.9245L36.7146 31.6253C35.5257 31.8726 36.3688 31.8962 34.9314 32.1388L34.9311 31.8537C34.4256 32.2386 33.2443 31.3077 33.6267 32.0963L34.0259 31.9537L33.9642 32.291L32.3442 31.9231C32.4732 32.1915 31.6743 32.0492 31.8433 32.396L31.2749 32.0493C30.9027 32.5054 32.3095 32.7165 32.3277 33.0681C32.2702 33.2795 31.9729 33.2345 31.8441 33.1799C32.5457 33.5978 33.0551 32.8019 33.7917 32.854L34.1205 33.2293L34.1422 32.8136C34.4352 32.9133 34.6885 33.2197 34.7907 33.3883C35.5711 32.8228 36.3394 33.4901 37.4797 33.345C36.5431 33.1147 38.0738 32.9363 37.914 32.8365C38.4154 32.8626 39.7206 33.4752 40.1238 32.9216C40.4031 32.6864 39.489 32.6818 40.19 32.5296C40.647 32.5319 40.9844 32.7266 40.7007 32.9452C41.7435 33.0044 42.9634 32.6597 44.077 32.4861L43.7706 32.2652C44.4225 31.9301 45.1682 32.158 45.5988 32.3456C45.6785 32.2173 45.7318 32.2743 45.603 32.1484C46.3699 31.4617 46.8813 32.4475 48.3007 31.9246C48.3366 32.3426 47.6934 32.5684 47.1564 32.4807L47.3965 32.8797C46.1012 33.2268 44.6327 33.4955 43.5366 33.3793L44.0737 33.6097C43.2492 34.3652 43.3233 33.1513 42.5743 33.9758C41.9176 33.9379 43.0044 33.6645 42.5029 33.5672C42.0638 33.774 42.7211 34.3107 41.9625 34.4605C44.8731 34.2509 48.1426 33.4639 51.0568 32.487C51.1501 32.5511 50.9993 32.6271 50.8485 32.7032C51.1547 32.7815 51.8422 32.5082 52.7204 32.0947C53.603 31.6978 54.6318 31.137 55.6118 30.5358C56.6184 29.9631 57.5407 29.3595 58.2858 28.946C59.0308 28.5325 59.6074 28.3424 59.834 28.549C59.8692 28.3257 59.3457 28.4303 59.9045 28.1024C60.0066 28.1285 60.1974 28.1308 60.1621 28.3541C60.6716 27.6295 61.4609 27.0972 62.3078 26.5673C63.1237 25.9923 63.9705 25.3911 64.6043 24.6332C64.7109 24.8185 65.1101 24.6046 65.2122 24.702C65.4022 23.9204 66.5998 23.4926 66.8743 22.8844L66.8968 23.1813C67.4066 22.7418 67.8453 22.2499 68.3108 21.7866C68.4084 21.7961 68.2356 22.0028 68.1381 22.1359C68.5283 21.8887 68.3905 21.6583 68.2705 21.4945L69.2686 21.1736C69.8619 19.9809 70.8325 18.9189 71.9096 17.8283C72.9023 16.7069 74.0193 15.5522 74.5325 14.1316C75.0869 13.9295 75.4372 13.6753 75.8758 13.0409L75.7875 13.421C76.488 12.9125 75.6409 13.2999 76.0974 12.8033C76.5319 12.5087 76.7055 12.9434 76.2134 13.3782C76.1251 13.7583 76.3734 13.6205 76.6084 13.4327C77.153 12.3423 77.6444 11.2661 77.9671 10.1994C78.2677 9.12091 78.4441 8.07567 78.4652 7.08984Z" fill="#F8F2EC"/>
<path d="M1.97246 21.7051C2.29646 21.7786 1.41241 20.8215 2.15812 21.0494C4.06725 22.0704 5.90271 24.733 8.15796 25.7682C8.85036 25.9391 8.988 26.027 9.52516 26.2573C9.48529 26.3214 9.44097 26.3689 9.36116 26.426C9.86299 26.8083 10.6536 27.4875 11.2839 27.7107C11.3861 27.8793 11.2844 28.2095 11.0623 27.9483C11.6755 28.7463 12.8066 28.4254 13.1134 28.9313C12.5941 28.8388 13.3402 29.423 12.7632 29.2568C13.6069 29.8505 14.1694 28.8978 14.9196 29.2136C14.9064 29.3062 14.911 29.3941 14.7467 29.349C15.7629 29.3797 16.9448 30.8808 17.4278 30.2702L17.5659 30.7143C18.045 30.6572 18.0493 30.4601 18.6707 30.65C18.9905 30.9207 18.5068 30.8899 18.5913 31.0633C18.8972 30.8566 19.8386 31.4598 20.4951 31.2839C20.7431 30.861 19.3904 31.4907 19.1324 30.8827C19.1634 30.7853 19.2433 30.7995 19.3453 30.8256C18.1157 30.3532 16.913 30.123 15.79 29.8358C14.6405 29.5914 13.6195 29.1877 12.7978 28.4634C12.1944 28.4825 12.0563 28.0383 12.1003 27.6345C12.5086 27.7389 13.6405 28.0594 13.2595 28.6248L14.0981 28.6318C14.2935 28.7933 14.6923 28.2231 14.8387 28.2017C14.3903 28.0189 14.3584 27.1898 15.0197 27.3156C14.0471 26.596 14.4975 28.703 13.6759 27.9786L13.8307 27.4916C13.8399 27.8099 12.9166 27.4871 12.7165 27.1664L12.9074 27.1687C10.3499 25.7155 7.49391 23.0769 5.45904 20.6639C3.95948 20.8875 4.22779 18.6949 2.98095 18.726C2.90068 18.3555 3.65999 18.847 3.34429 18.2366C3.20641 17.9349 2.90929 18.1036 2.84722 18.1559L2.74483 17.8448C1.60936 18.2916 1.04709 19.4581 1.97246 21.7051Z" fill="#F8F2EC"/>
<path d="M16.464 9.856C17.08 9.856 17.586 9.372 17.586 8.756C17.586 8.14 17.08 7.634 16.464 7.634C15.87 7.634 15.364 8.14 15.364 8.756C15.364 9.372 15.87 9.856 16.464 9.856ZM17.3 22V11.374H15.65V22H17.3ZM33.8574 22L38.0374 7.326H36.0134L32.7794 19.558L29.4134 7.326H27.8954L24.5294 19.558L21.2734 7.326H19.2494L23.4294 22H25.4094L28.6434 10.164L31.8774 22H33.8574ZM43.9284 22.264C45.6664 22.264 47.0964 21.692 48.1524 20.636L47.3604 19.558C46.5244 20.416 45.2924 20.9 44.0824 20.9C41.7944 20.9 40.3864 19.228 40.2544 17.226H48.8564V16.808C48.8564 13.618 46.9644 11.11 43.7524 11.11C40.7164 11.11 38.5164 13.596 38.5164 16.676C38.5164 19.998 40.7824 22.264 43.9284 22.264ZM47.2284 16.016H40.2544C40.3424 14.388 41.4644 12.474 43.7304 12.474C46.1504 12.474 47.2064 14.432 47.2284 16.016ZM53.1789 22V7.326H51.5289V22H53.1789ZM58.1203 22V7.326H56.4703V22H58.1203Z" fill="#F8F2EC"/>
</svg>
