<svg width="62" height="21" viewBox="0 0 62 21" fill="none" xmlns="http://www.w3.org/2000/svg">
<path d="M4.71289 20H0.421875V6.26367H4.71289V20ZM0.167969 2.72168C0.167969 2.1123 0.388021 1.61296 0.828125 1.22363C1.26823 0.83431 1.83952 0.639648 2.54199 0.639648C3.24447 0.639648 3.81576 0.83431 4.25586 1.22363C4.69596 1.61296 4.91602 2.1123 4.91602 2.72168C4.91602 3.33105 4.69596 3.8304 4.25586 4.21973C3.81576 4.60905 3.24447 4.80371 2.54199 4.80371C1.83952 4.80371 1.26823 4.60905 0.828125 4.21973C0.388021 3.8304 0.167969 3.33105 0.167969 2.72168ZM28.3516 13.1064L30.4717 1.51562H34.8896L30.9668 20H26.3457L23.8701 9.46289L21.4453 20H16.8369L12.9014 1.51562H17.332L19.4521 13.1064L21.9912 1.51562H25.7744L28.3516 13.1064ZM42.6719 20.2539C40.5645 20.2539 38.859 19.6276 37.5557 18.375C36.2523 17.1139 35.6006 15.4762 35.6006 13.4619V13.1064C35.6006 11.7015 35.8587 10.4616 36.375 9.38672C36.8997 8.31185 37.6615 7.48242 38.6602 6.89844C39.6589 6.30599 40.8438 6.00977 42.2148 6.00977C44.1445 6.00977 45.668 6.61068 46.7852 7.8125C47.9023 9.00586 48.4609 10.6732 48.4609 12.8145V14.4775H39.9551C40.1074 15.2477 40.4417 15.8529 40.958 16.293C41.4743 16.7331 42.1429 16.9531 42.9639 16.9531C44.318 16.9531 45.376 16.4792 46.1377 15.5312L48.0928 17.8418C47.5596 18.5781 46.8021 19.1663 45.8203 19.6064C44.847 20.0381 43.7975 20.2539 42.6719 20.2539ZM42.1895 9.31055C40.9368 9.31055 40.1921 10.14 39.9551 11.7988H44.2715V11.4688C44.2884 10.7832 44.1149 10.2542 43.751 9.88184C43.387 9.50098 42.8665 9.31055 42.1895 9.31055ZM54.707 20H50.416V0.5H54.707V20ZM61.8672 20H57.5762V0.5H61.8672V20Z" fill="white"/>
</svg>
