<svg width="40" height="30" viewBox="0 0 40 30" fill="none" xmlns="http://www.w3.org/2000/svg">
<path d="M33.5855 22.0066C36.8043 22.0813 38.2902 22.9521 38.8228 25.0447C39.2551 26.7413 38.4253 28.5724 36.8468 29.4244C35.164 30.3287 33.2304 30.0597 31.841 28.6957C31.9413 28.5462 32.0455 28.3855 32.2269 28.1165C31.9876 28.2697 31.8487 28.3594 31.7175 28.4453C31.0459 27.9035 30.9186 27.6045 30.6214 25.908C23.682 31.2293 16.677 31.334 9.62563 26.3564C9.62563 26.2816 9.62949 26.2032 9.62949 26.1284C10.853 26.3228 12.0764 26.5358 13.2999 26.7114C15.2181 26.9879 17.1324 27.3317 19.066 27.4887C22.1266 27.739 24.9054 26.8758 27.4218 25.1867C27.4836 25.1456 27.5145 25.0559 27.6457 24.8616C26.8082 25.0373 26.1057 25.1867 25.3995 25.3287C19.3516 26.5395 13.3115 26.8123 7.30992 25.1157C4.48476 24.3198 1.9259 23.0193 0 21.1658C1.401 21.6964 2.98726 22.4027 4.64299 22.8997C7.56851 23.7779 10.6021 23.8601 13.6357 23.677C17.6804 23.4341 21.567 22.5634 25.1216 20.609C27.7345 19.174 29.7298 17.1935 30.5982 14.3123C31.1463 12.4812 31.1154 10.6352 30.7912 8.77791C30.7487 8.53875 30.7063 8.30332 30.6368 7.896C31.7059 8.07163 32.6939 8.19495 33.655 8.4229C33.8827 8.47522 34.0756 8.8676 34.1876 9.13665C35.8665 13.2921 35.8086 17.4065 33.8248 21.461C33.7399 21.6367 33.6704 21.8123 33.5855 22.0066Z" fill="#6FA543"/>
<path d="M6.41444 7.99325C3.1956 7.91851 1.70969 7.04781 1.17708 4.95514C0.74481 3.25484 1.57075 1.42375 3.14929 0.575466C4.83203 -0.328869 6.76565 -0.0598107 8.15508 1.30417C8.05473 1.45364 7.95052 1.61433 7.76912 1.88339C8.00841 1.73017 8.14736 1.64049 8.27858 1.55454C8.95014 2.09639 9.0775 2.39535 9.37468 4.09191C16.3179 -1.2332 23.3191 -1.33784 30.3743 3.64348C30.3743 3.71822 30.3704 3.79669 30.3704 3.87143C29.147 3.67711 27.9235 3.46411 26.7 3.28847C24.7819 3.01194 22.8675 2.66814 20.9339 2.51119C17.8733 2.26082 15.0945 3.12405 12.5781 4.81313C12.5163 4.85424 12.4854 4.94393 12.3542 5.13825C13.1917 4.96261 13.8942 4.81313 14.6005 4.67113C20.6483 3.46037 26.6885 3.18757 32.69 4.88414C35.5152 5.68384 38.074 6.98428 39.9999 8.8378C38.5989 8.30715 37.0127 7.60088 35.3569 7.10387C32.4314 6.22569 29.3978 6.14348 26.3643 6.32659C22.3195 6.56949 18.433 7.44019 14.8783 9.3946C12.2655 10.8296 10.2701 12.8101 9.4017 15.6913C8.85365 17.5224 8.88452 19.3684 9.20872 21.2257C9.25118 21.4649 9.29363 21.7003 9.3631 22.1076C8.29402 21.932 7.30598 21.8086 6.34496 21.5807C6.11725 21.5284 5.92428 21.136 5.81235 20.8669C4.13346 16.704 4.19521 12.5934 6.17515 8.53511C6.26005 8.36321 6.32953 8.18384 6.41444 7.99325Z" fill="#1375BE"/>
</svg>
