<svg width="26" height="26" viewBox="0 0 26 26" fill="none" xmlns="http://www.w3.org/2000/svg">
<g clip-path="url(#clip0)">
<path d="M26 11.6124C26 10.1169 24.8007 8.89737 23.3136 8.86266C24.0251 8.11522 24.5452 7.19065 24.8106 6.18077C24.8612 5.98796 24.7569 5.78821 24.5694 5.71997C23.7418 5.41786 22.8589 5.29805 21.9867 5.3653C22.1297 4.50757 22.092 3.61969 21.8631 2.76395C21.8115 2.57134 21.6217 2.44974 21.4253 2.48306C20.4549 2.6485 19.5478 3.03967 18.77 3.62287C18.4312 2.71753 17.8808 1.89372 17.1532 1.23059C17.0058 1.0963 16.7802 1.0963 16.6328 1.23059C15.3572 2.39301 14.6256 4.04895 14.6256 5.77313C14.6256 6.87366 14.9108 7.92797 15.4563 8.86107H12.5469L11.1266 6.95142C10.9993 6.78043 10.7573 6.74472 10.5863 6.87207C10.4151 6.99922 10.3796 7.24123 10.507 7.41242L11.5845 8.86107H5.8567L4.53778 5.16773C4.48026 5.00705 4.32414 4.90331 4.15395 4.91184C3.46483 4.94754 2.93837 4.75374 2.74536 4.39292C2.57596 4.07633 2.65411 3.61612 2.95999 3.13013C3.31229 2.57034 3.90817 2.04706 4.63795 1.65668C5.36754 1.2661 6.13342 1.06059 6.79457 1.07845C7.36844 1.09372 7.79472 1.28415 7.96432 1.60074C8.15733 1.96176 8.02661 2.50766 7.61421 3.0609C7.51225 3.19757 7.51205 3.38523 7.61382 3.5221L9.58516 6.17244C9.71251 6.34363 9.95432 6.37914 10.1255 6.25199C10.2967 6.12464 10.3322 5.88283 10.2048 5.71164L8.39835 3.28287C8.86292 2.54912 8.95456 1.81478 8.64511 1.23635C8.03851 0.10309 6.11835 -0.0113659 4.27356 0.975695C3.42754 1.42836 2.7289 2.04746 2.30638 2.71872C1.84181 3.45683 1.75592 4.18086 2.06458 4.75731C2.37363 5.33534 3.03517 5.66641 3.90321 5.68744L5.03687 8.86107H2.75111C1.23422 8.86107 0 10.0953 0 11.6124C0 12.9238 0.922592 14.0231 2.15265 14.297C2.2562 17.8148 4.06329 21.0573 6.97191 23.0029C6.58113 23.2681 6.32385 23.716 6.32385 24.2228C6.32385 25.0351 6.9846 25.6958 7.7971 25.6958H18.2029C19.0152 25.6958 19.6761 25.0351 19.6761 24.2226C19.6761 23.7156 19.4187 23.2677 19.0277 23.0027C19.4175 22.7418 19.7908 22.456 20.1431 22.1477C20.3036 22.0073 20.3198 21.7633 20.1794 21.6028C20.039 21.4423 19.795 21.4263 19.6345 21.5665C19.1217 22.0154 18.5613 22.4125 17.968 22.7495H8.03296C4.98926 21.0222 3.06116 17.8434 2.92786 14.3635H23.0719C22.9855 16.6181 22.1436 18.787 20.6785 20.5082C20.5402 20.6705 20.5599 20.9143 20.7223 21.0525C20.7949 21.1144 20.884 21.1446 20.9725 21.1446C21.0818 21.1446 21.1903 21.0986 21.2666 21.0087C22.8649 19.1312 23.7742 16.7589 23.8468 14.2972C25.0772 14.0233 26 12.924 26 11.6124ZM18.2029 24.9236H7.7971C7.41049 24.9236 7.09608 24.6092 7.09608 24.2228C7.09608 23.8362 7.41049 23.5218 7.7971 23.5218H18.2029C18.5895 23.5218 18.9039 23.8362 18.9039 24.2228C18.9039 24.6092 18.5895 24.9236 18.2029 24.9236ZM23.9594 6.33232C23.6228 7.33208 22.9964 8.21639 22.1662 8.86107H20.107C20.4839 8.51135 20.8161 8.11383 21.1 7.67148C21.4035 7.19818 21.6372 6.68898 21.7994 6.15994C22.5217 6.07028 23.258 6.129 23.9594 6.33232ZM21.199 3.31738C21.4644 4.67122 21.1986 6.08734 20.45 7.25452C20.032 7.90575 19.495 8.4455 18.8527 8.86107H18.3297C18.8752 7.92797 19.1604 6.87366 19.1604 5.77313C19.1604 5.31412 19.108 4.86026 19.0079 4.4191C19.6426 3.88748 20.3909 3.51119 21.199 3.31738ZM15.3978 5.77313C15.3978 4.38696 15.9388 3.05138 16.8929 2.05499C17.8472 3.05138 18.3882 4.38696 18.3882 5.77313C18.3882 6.89171 18.0508 7.95494 17.4116 8.86107H16.3742C15.735 7.95494 15.3978 6.89171 15.3978 5.77313ZM23.2489 13.5913H2.75111C1.66011 13.5913 0.772232 12.7034 0.772232 11.6124C0.772232 10.5212 1.66011 9.6333 2.75111 9.6333H23.2489C24.3401 9.6333 25.2278 10.5212 25.2278 11.6124C25.2278 12.7034 24.3399 13.5913 23.2489 13.5913Z" fill="#EDECEA"/>
</g>
<defs>
<clipPath id="clip0">
<rect width="26" height="26" fill="white"/>
</clipPath>
</defs>
</svg>
