<svg width="76" height="92" viewBox="0 0 76 92" fill="none" xmlns="http://www.w3.org/2000/svg">
<path d="M46.2646 11.6603C46.2208 11.6603 46.175 11.6582 46.1292 11.6519C45.5583 11.579 45.1562 11.0561 45.2313 10.4853C45.2708 10.1748 45.2917 9.86025 45.2917 9.5415C45.2917 5.52067 42.0208 2.24984 38 2.24984C33.9792 2.24984 30.7083 5.52067 30.7083 9.5415C30.7083 9.84775 30.7271 10.1498 30.7625 10.4478C30.8333 11.0186 30.4271 11.5373 29.8562 11.6082C29.2708 11.679 28.7667 11.2728 28.6958 10.7019C28.65 10.3228 28.625 9.93317 28.625 9.5415C28.625 4.37275 32.8312 0.166504 38 0.166504C43.1687 0.166504 47.375 4.37275 47.375 9.5415C47.375 9.95192 47.3479 10.3561 47.2958 10.754C47.2292 11.2769 46.7812 11.6603 46.2646 11.6603Z" fill="#FF5026"/>
<path d="M37.9997 91.8331C33.5539 91.8331 29.4726 89.2268 27.6018 85.1935C27.3601 84.6726 27.5872 84.0518 28.1081 83.8101C28.6289 83.5706 29.2518 83.7956 29.4914 84.3164C31.0226 87.6185 34.3622 89.7497 37.9997 89.7497C41.6164 89.7497 44.8497 87.7268 46.4351 84.4726C46.6872 83.956 47.3122 83.7393 47.8268 83.9914C48.3456 84.2435 48.5601 84.8664 48.3081 85.3831C46.3706 89.3622 42.4206 91.8331 37.9997 91.8331Z" fill="#FF5026"/>
<path d="M7.27306 68.9332C7.18764 68.9332 7.1043 68.9228 7.01889 68.9019C6.46055 68.7623 6.12097 68.1978 6.26264 67.6394L9.88555 53.1873C10.4376 50.9873 10.5293 48.5311 10.1606 45.8853C9.97097 44.5332 9.87514 43.1728 9.87514 41.8332C9.87514 25.7498 22.4918 12.6665 38.0001 12.6665C53.5085 12.6665 66.1251 25.7498 66.1251 41.8332C66.1251 43.1728 66.0293 44.5332 65.8418 45.8832C65.473 48.529 65.5647 50.9853 66.1168 53.1852L69.7189 67.554C69.8585 68.1123 69.521 68.679 68.9626 68.8165C68.4085 68.954 67.8376 68.6186 67.7001 68.0603L64.0981 53.6915C63.4814 51.2311 63.3731 48.5061 63.7814 45.5936C63.9543 44.3415 64.0418 43.0748 64.0418 41.8332C64.0418 26.8998 52.3606 14.7498 38.0001 14.7498C23.6397 14.7498 11.9585 26.8998 11.9585 41.8332C11.9585 43.0748 12.046 44.3415 12.221 45.5936C12.6272 48.5061 12.521 51.2311 11.9043 53.6915L8.28139 68.1436C8.16472 68.6165 7.73972 68.9332 7.27306 68.9332Z" fill="#FF5026"/>
<path d="M70.2917 81.4167H5.70833C2.8375 81.4167 0.5 79.0792 0.5 76.2083C0.5 73.3375 2.8375 71 5.70833 71H70.2917C73.1625 71 75.5 73.3375 75.5 76.2083C75.5 79.0792 73.1625 81.4167 70.2917 81.4167ZM5.70833 73.0833C3.98542 73.0833 2.58333 74.4854 2.58333 76.2083C2.58333 77.9313 3.98542 79.3333 5.70833 79.3333H70.2917C72.0146 79.3333 73.4167 77.9313 73.4167 76.2083C73.4167 74.4854 72.0146 73.0833 70.2917 73.0833H5.70833Z" fill="#FF5026"/>
</svg>
