<svg width="100" height="100" viewBox="0 0 100 100" fill="none" xmlns="http://www.w3.org/2000/svg">
<path d="M58.2646 15.6603C58.2208 15.6603 58.175 15.6582 58.1292 15.6519C57.5583 15.579 57.1562 15.0561 57.2313 14.4853C57.2708 14.1748 57.2917 13.8603 57.2917 13.5415C57.2917 9.52067 54.0208 6.24984 50 6.24984C45.9792 6.24984 42.7083 9.52067 42.7083 13.5415C42.7083 13.8478 42.7271 14.1498 42.7625 14.4478C42.8333 15.0186 42.4271 15.5373 41.8562 15.6082C41.2708 15.679 40.7667 15.2728 40.6958 14.7019C40.65 14.3228 40.625 13.9332 40.625 13.5415C40.625 8.37275 44.8312 4.1665 50 4.1665C55.1687 4.1665 59.375 8.37275 59.375 13.5415C59.375 13.9519 59.3479 14.3561 59.2958 14.754C59.2292 15.2769 58.7812 15.6603 58.2646 15.6603Z" fill="#FF5026"/>
<path d="M49.9997 95.8331C45.5539 95.8331 41.4726 93.2268 39.6018 89.1935C39.3601 88.6726 39.5872 88.0518 40.1081 87.8101C40.6289 87.5706 41.2518 87.7956 41.4914 88.3164C43.0226 91.6185 46.3622 93.7497 49.9997 93.7497C53.6164 93.7497 56.8497 91.7268 58.4351 88.4726C58.6872 87.956 59.3122 87.7393 59.8268 87.9914C60.3456 88.2435 60.5601 88.8664 60.3081 89.3831C58.3706 93.3622 54.4206 95.8331 49.9997 95.8331Z" fill="#FF5026"/>
<path d="M19.2728 72.9332C19.1874 72.9332 19.1041 72.9228 19.0186 72.9019C18.4603 72.7623 18.1207 72.1978 18.2624 71.6394L21.8853 57.1873C22.4374 54.9873 22.5291 52.5311 22.1603 49.8853C21.9707 48.5332 21.8749 47.1728 21.8749 45.8332C21.8749 29.7498 34.4916 16.6665 49.9999 16.6665C65.5082 16.6665 78.1249 29.7498 78.1249 45.8332C78.1249 47.1728 78.0291 48.5332 77.8416 49.8832C77.4728 52.529 77.5645 54.9853 78.1166 57.1852L81.7186 71.554C81.8582 72.1123 81.5207 72.679 80.9624 72.8165C80.4082 72.954 79.8374 72.6186 79.6999 72.0603L76.0978 57.6915C75.4811 55.2311 75.3728 52.5061 75.7811 49.5936C75.9541 48.3415 76.0416 47.0748 76.0416 45.8332C76.0416 30.8998 64.3603 18.7498 49.9999 18.7498C35.6395 18.7498 23.9582 30.8998 23.9582 45.8332C23.9582 47.0748 24.0457 48.3415 24.2207 49.5936C24.627 52.5061 24.5207 55.2311 23.9041 57.6915L20.2811 72.1436C20.1645 72.6165 19.7395 72.9332 19.2728 72.9332Z" fill="#FF5026"/>
<path d="M82.2917 85.4167H17.7083C14.8375 85.4167 12.5 83.0792 12.5 80.2083C12.5 77.3375 14.8375 75 17.7083 75H82.2917C85.1625 75 87.5 77.3375 87.5 80.2083C87.5 83.0792 85.1625 85.4167 82.2917 85.4167ZM17.7083 77.0833C15.9854 77.0833 14.5833 78.4854 14.5833 80.2083C14.5833 81.9313 15.9854 83.3333 17.7083 83.3333H82.2917C84.0146 83.3333 85.4167 81.9313 85.4167 80.2083C85.4167 78.4854 84.0146 77.0833 82.2917 77.0833H17.7083Z" fill="#FF5026"/>
</svg>
