<svg width="93" height="91" viewBox="0 0 93 91" fill="none" xmlns="http://www.w3.org/2000/svg">
<path d="M65.7915 90.8338H41.8332C41.2582 90.8338 40.7915 90.3672 40.7915 89.7922V87.5943C40.7915 87.2234 40.9894 86.8797 41.3103 86.6943C43.5936 85.3651 44.9582 83.0193 44.9582 80.4172C44.9582 78.1797 43.9519 76.0963 42.1978 74.7047C40.4436 73.3088 38.1457 72.8109 35.904 73.3318C33.3144 73.9338 31.2332 75.9901 30.6019 78.5755C29.804 81.8338 31.1478 85.0213 34.0248 86.6963C34.3457 86.8818 34.5436 87.2255 34.5436 87.5963V89.7922C34.5436 90.3672 34.0769 90.8338 33.5019 90.8338H9.5415C4.37275 90.8338 0.166504 86.6276 0.166504 81.4588V57.5005C0.166504 56.9255 0.633171 56.4588 1.20817 56.4588H3.40609C3.77692 56.4588 4.12067 56.6568 4.30609 56.9776C5.63525 59.2609 7.98109 60.6255 10.5832 60.6255C12.8207 60.6255 14.904 59.6193 16.2957 57.8651C17.6894 56.1109 18.1915 53.8172 17.6686 51.5713C17.0665 48.9818 15.0103 46.9005 12.4248 46.2693C9.1665 45.4713 5.979 46.8151 4.304 49.6922C4.11859 50.0109 3.77692 50.2088 3.40609 50.2088H1.20817C0.633171 50.2088 0.166504 49.7422 0.166504 49.1672V27.2922C0.166504 22.1234 4.37275 17.9172 9.5415 17.9172H32.4582V17.338C29.8728 15.6026 28.2915 12.6838 28.2915 9.58384C28.2915 6.70676 29.5853 4.02968 31.8394 2.24009C34.0957 0.450509 37.0332 -0.19949 39.9019 0.46926C43.2478 1.24634 45.9394 3.90468 46.7561 7.24634C47.7123 11.1588 46.1603 15.138 42.8748 17.338V17.9172H65.7915C70.9603 17.9172 75.1665 22.1234 75.1665 27.2922V49.1672H75.7457C77.9457 45.8818 81.9207 44.3255 85.8373 45.2859C89.179 46.1026 91.8373 48.7943 92.6144 52.1401C93.2811 55.0068 92.6353 57.9463 90.8436 60.2026C89.054 62.4568 86.3769 63.7505 83.4998 63.7505C80.3998 63.7505 77.4832 62.1693 75.7457 59.5838H75.1665V81.4588C75.1665 86.6276 70.9603 90.8338 65.7915 90.8338ZM42.8748 88.7505H65.7915C69.8123 88.7505 73.0832 85.4797 73.0832 81.4588V58.5422C73.0832 57.9672 73.5498 57.5005 74.1248 57.5005H76.3228C76.6936 57.5005 77.0373 57.6984 77.2228 58.0193C78.5519 60.3026 80.8978 61.6672 83.4998 61.6672C85.7373 61.6672 87.8207 60.6609 89.2123 58.9068C90.6061 57.1526 91.1082 54.8588 90.5853 52.613C89.9832 50.0234 87.9269 47.9422 85.3415 47.3109C82.0853 46.513 78.8957 47.8568 77.2207 50.7338C77.0353 51.0526 76.6936 51.2505 76.3228 51.2505H74.1248C73.5498 51.2505 73.0832 50.7838 73.0832 50.2088V27.2922C73.0832 23.2713 69.8123 20.0005 65.7915 20.0005H41.8332C41.2582 20.0005 40.7915 19.5338 40.7915 18.9588V16.7609C40.7915 16.3901 40.9894 16.0463 41.3103 15.8609C44.1853 14.1859 45.529 11.0005 44.7332 7.74009C44.1019 5.15676 42.0207 3.09843 39.4311 2.49634C37.1936 1.97551 34.8936 2.47551 33.1373 3.86926C31.3811 5.26301 30.3748 7.34634 30.3748 9.58384C30.3748 12.1859 31.7394 14.5318 34.0228 15.8609C34.3436 16.0463 34.5415 16.3901 34.5415 16.7609V18.9588C34.5415 19.5338 34.0748 20.0005 33.4998 20.0005H9.5415C5.52067 20.0005 2.24984 23.2713 2.24984 27.2922V48.1255H2.829C5.029 44.8401 9.00609 43.2859 12.9207 44.2443C16.2623 45.0609 18.9207 47.7526 19.6978 51.0984C20.3644 53.9651 19.7186 56.9047 17.9269 59.1609C16.1373 61.4151 13.4603 62.7088 10.5832 62.7088C7.48317 62.7088 4.5665 61.1276 2.829 58.5422H2.24984V81.4588C2.24984 85.4797 5.52067 88.7505 9.5415 88.7505H32.4582V88.1713C29.1728 85.9713 27.6207 81.9922 28.5769 78.0797C29.3936 74.738 32.0853 72.0797 35.4311 71.3026C38.2998 70.6318 41.2373 71.2818 43.4936 73.0734C45.7478 74.863 47.0415 77.5401 47.0415 80.4172C47.0415 83.5172 45.4603 86.4338 42.8748 88.1713V88.7505Z" fill="#FF5026"/>
</svg>
