<svg width="100" height="100" viewBox="0 0 100 100" fill="none" xmlns="http://www.w3.org/2000/svg">
<path d="M69.7916 95.8338H45.8333C45.2583 95.8338 44.7916 95.3672 44.7916 94.7922V92.5943C44.7916 92.2234 44.9895 91.8797 45.3104 91.6943C47.5937 90.3651 48.9583 88.0193 48.9583 85.4172C48.9583 83.1797 47.952 81.0963 46.1979 79.7047C44.4437 78.3088 42.1458 77.8109 39.9041 78.3318C37.3145 78.9338 35.2333 80.9901 34.602 83.5755C33.8041 86.8338 35.1479 90.0213 38.025 91.6963C38.3458 91.8818 38.5437 92.2255 38.5437 92.5963V94.7922C38.5437 95.3672 38.077 95.8338 37.502 95.8338H13.5416C8.37288 95.8338 4.16663 91.6276 4.16663 86.4588V62.5005C4.16663 61.9255 4.63329 61.4588 5.20829 61.4588H7.40621C7.77704 61.4588 8.12079 61.6568 8.30621 61.9776C9.63538 64.2609 11.9812 65.6255 14.5833 65.6255C16.8208 65.6255 18.9041 64.6193 20.2958 62.8651C21.6895 61.1109 22.1916 58.8172 21.6687 56.5713C21.0666 53.9818 19.0104 51.9005 16.425 51.2693C13.1666 50.4713 9.97913 51.8151 8.30413 54.6922C8.11871 55.0109 7.77704 55.2088 7.40621 55.2088H5.20829C4.63329 55.2088 4.16663 54.7422 4.16663 54.1672V32.2922C4.16663 27.1234 8.37288 22.9172 13.5416 22.9172H36.4583V22.338C33.8729 20.6026 32.2916 17.6838 32.2916 14.5838C32.2916 11.7068 33.5854 9.02968 35.8395 7.24009C38.0958 5.45051 41.0333 4.80051 43.902 5.46926C47.2479 6.24634 49.9395 8.90468 50.7562 12.2463C51.7125 16.1588 50.1604 20.138 46.875 22.338V22.9172H69.7916C74.9604 22.9172 79.1666 27.1234 79.1666 32.2922V54.1672H79.7458C81.9458 50.8818 85.9208 49.3255 89.8375 50.2859C93.1791 51.1026 95.8375 53.7943 96.6145 57.1401C97.2812 60.0068 96.6354 62.9463 94.8437 65.2026C93.0541 67.4568 90.3771 68.7505 87.5 68.7505C84.4 68.7505 81.4833 67.1693 79.7458 64.5838H79.1666V86.4588C79.1666 91.6276 74.9604 95.8338 69.7916 95.8338ZM46.875 93.7505H69.7916C73.8125 93.7505 77.0833 90.4797 77.0833 86.4588V63.5422C77.0833 62.9672 77.55 62.5005 78.125 62.5005H80.3229C80.6937 62.5005 81.0375 62.6984 81.2229 63.0193C82.552 65.3026 84.8979 66.6672 87.5 66.6672C89.7375 66.6672 91.8208 65.6609 93.2125 63.9068C94.6062 62.1526 95.1083 59.8588 94.5854 57.613C93.9833 55.0234 91.927 52.9422 89.3416 52.3109C86.0854 51.513 82.8958 52.8568 81.2208 55.7338C81.0354 56.0526 80.6937 56.2505 80.3229 56.2505H78.125C77.55 56.2505 77.0833 55.7838 77.0833 55.2088V32.2922C77.0833 28.2713 73.8125 25.0005 69.7916 25.0005H45.8333C45.2583 25.0005 44.7916 24.5338 44.7916 23.9588V21.7609C44.7916 21.3901 44.9895 21.0463 45.3104 20.8609C48.1854 19.1859 49.5291 16.0005 48.7333 12.7401C48.102 10.1568 46.0208 8.09843 43.4312 7.49634C41.1937 6.97551 38.8937 7.47551 37.1375 8.86926C35.3812 10.263 34.375 12.3463 34.375 14.5838C34.375 17.1859 35.7395 19.5318 38.0229 20.8609C38.3437 21.0463 38.5416 21.3901 38.5416 21.7609V23.9588C38.5416 24.5338 38.075 25.0005 37.5 25.0005H13.5416C9.52079 25.0005 6.24996 28.2713 6.24996 32.2922V53.1255H6.82913C9.02913 49.8401 13.0062 48.2859 16.9208 49.2443C20.2625 50.0609 22.9208 52.7526 23.6979 56.0984C24.3645 58.9651 23.7187 61.9047 21.927 64.1609C20.1375 66.4151 17.4604 67.7088 14.5833 67.7088C11.4833 67.7088 8.56663 66.1276 6.82913 63.5422H6.24996V86.4588C6.24996 90.4797 9.52079 93.7505 13.5416 93.7505H36.4583V93.1713C33.1729 90.9713 31.6208 86.9922 32.577 83.0797C33.3937 79.738 36.0854 77.0797 39.4312 76.3026C42.3 75.6318 45.2375 76.2818 47.4937 78.0734C49.7479 79.863 51.0416 82.5401 51.0416 85.4172C51.0416 88.5172 49.4604 91.4338 46.875 93.1713V93.7505Z" fill="#FF5026"/>
</svg>
