<svg width="92" height="88" viewBox="0 0 92 88" fill="none" xmlns="http://www.w3.org/2000/svg">
<path d="M71.6831 87.7458C70.9997 87.7458 70.3122 87.5812 69.6747 87.25L47.0081 75.3542C46.356 75.0125 45.6414 75.0125 44.9893 75.3542L22.3247 87.2479C20.8601 88.0125 19.1331 87.8896 17.8081 86.9292C16.4831 85.9687 15.831 84.3667 16.1018 82.7437L20.4268 57.5375C20.5456 56.8333 20.306 56.0812 19.8018 55.5792L1.45806 37.7521C0.283055 36.6 -0.129444 34.9125 0.383056 33.3479C0.889306 31.7937 2.20389 30.6854 3.81222 30.4521L29.1518 26.7687C29.8893 26.6729 30.5018 26.2375 30.8081 25.5979L42.1706 2.63125C42.8789 1.16667 44.3476 0.25 45.9997 0.25C47.6518 0.25 49.1206 1.16667 49.831 2.63958L60.8206 24.8521C61.0747 25.3687 60.8643 25.9917 60.3476 26.2479C59.8351 26.5 59.206 26.2937 58.9518 25.775L47.9581 3.55417C47.2185 2.01875 44.7768 2.02708 44.0435 3.54583L32.6831 26.5083C32.081 27.775 30.8643 28.65 29.4351 28.8333L4.11431 32.5146C3.28306 32.6354 2.62889 33.1896 2.36431 33.9958C2.09556 34.8146 2.30181 35.6625 2.91431 36.2625L21.2664 54.0958C22.2643 55.0896 22.7164 56.5042 22.4851 57.8875L18.1601 83.0937C18.0185 83.9375 18.3456 84.7438 19.0351 85.2438C19.7247 85.7479 20.5956 85.8042 21.3622 85.4021L44.0247 73.5083C45.2831 72.85 46.7226 72.85 47.9789 73.5083L70.6435 85.4021C71.4081 85.8042 72.281 85.7438 72.9685 85.2417C73.6581 84.7417 73.9851 83.9354 73.8435 83.0875L69.5185 57.8896C69.2872 56.5021 69.7393 55.0875 70.7289 54.1021L89.0893 36.2583C89.6997 35.6604 89.906 34.8146 89.6372 33.9958C89.3726 33.1896 88.7206 32.6354 87.8893 32.5146L63.6976 28.9979C63.131 28.9146 62.7351 28.3875 62.8164 27.8187C62.8997 27.2479 63.431 26.8396 63.9976 26.9375L88.1872 30.4542C89.7935 30.6854 91.1081 31.7958 91.6164 33.35C92.1289 34.9146 91.7185 36.6021 90.5435 37.75L72.1872 55.5896C71.6914 56.0833 71.4518 56.8354 71.5706 57.5437L75.8956 82.7417C76.1664 84.3667 75.5122 85.9708 74.1893 86.9312C73.4435 87.4708 72.5685 87.7458 71.6831 87.7458Z" fill="#FF5026"/>
</svg>
