<svg width="100" height="100" viewBox="0 0 100 100" fill="none" xmlns="http://www.w3.org/2000/svg">
<path d="M75.6833 93.7458C75 93.7458 74.3125 93.5812 73.675 93.25L51.0083 81.3542C50.3562 81.0125 49.6416 81.0125 48.9895 81.3542L26.325 93.2479C24.8604 94.0125 23.1333 93.8896 21.8083 92.9292C20.4833 91.9687 19.8312 90.3667 20.102 88.7437L24.427 63.5375C24.5458 62.8333 24.3062 62.0812 23.802 61.5792L5.4583 43.7521C4.2833 42.6 3.8708 40.9125 4.3833 39.3479C4.88955 37.7937 6.20413 36.6854 7.81247 36.4521L33.152 32.7687C33.8895 32.6729 34.502 32.2375 34.8083 31.5979L46.1708 8.63125C46.8791 7.16667 48.3479 6.25 50 6.25C51.652 6.25 53.1208 7.16667 53.8312 8.63958L64.8208 30.8521C65.075 31.3687 64.8645 31.9917 64.3479 32.2479C63.8354 32.5 63.2062 32.2937 62.952 31.775L51.9583 9.55417C51.2187 8.01875 48.7771 8.02708 48.0437 9.54583L36.6833 32.5083C36.0812 33.775 34.8645 34.65 33.4354 34.8333L8.11455 38.5146C7.2833 38.6354 6.62913 39.1896 6.36455 39.9958C6.0958 40.8146 6.30205 41.6625 6.91455 42.2625L25.2666 60.0958C26.2645 61.0896 26.7166 62.5042 26.4854 63.8875L22.1604 89.0937C22.0187 89.9375 22.3458 90.7438 23.0354 91.2438C23.725 91.7479 24.5958 91.8042 25.3625 91.4021L48.025 79.5083C49.2833 78.85 50.7229 78.85 51.9791 79.5083L74.6437 91.4021C75.4083 91.8042 76.2812 91.7438 76.9687 91.2417C77.6583 90.7417 77.9854 89.9354 77.8437 89.0875L73.5187 63.8896C73.2875 62.5021 73.7395 61.0875 74.7291 60.1021L93.0895 42.2583C93.7 41.6604 93.9062 40.8146 93.6375 39.9958C93.3729 39.1896 92.7208 38.6354 91.8895 38.5146L67.6979 34.9979C67.1312 34.9146 66.7354 34.3875 66.8166 33.8187C66.9 33.2479 67.4312 32.8396 67.9979 32.9375L92.1875 36.4542C93.7937 36.6854 95.1083 37.7958 95.6166 39.35C96.1291 40.9146 95.7187 42.6021 94.5437 43.75L76.1875 61.5896C75.6916 62.0833 75.452 62.8354 75.5708 63.5437L79.8958 88.7417C80.1666 90.3667 79.5125 91.9708 78.1895 92.9312C77.4437 93.4708 76.5687 93.7458 75.6833 93.7458Z" fill="#FF5026"/>
</svg>
