<svg width="240" height="56" viewBox="0 0 240 56" fill="none" xmlns="http://www.w3.org/2000/svg">
<path fill-rule="evenodd" clip-rule="evenodd" d="M5.91992 2H235C236.657 2 238 3.34315 238 5V51C238 52.6569 236.657 54 235 54H5.91993C4.26307 54 2.91992 52.6569 2.91992 51V40.25H0.919922V51C0.919922 53.7614 3.1585 56 5.91993 56H235C237.762 56 240 53.7614 240 51V5C240 2.23858 237.762 0 235 0H5.91992C3.1585 0 0.919922 2.23858 0.919922 5V15.75H2.91992V5C2.91992 3.34315 4.26307 2 5.91992 2Z" fill="#FF5026"/>
</svg>
