<svg width="92" height="92" viewBox="0 0 92 92" fill="none" xmlns="http://www.w3.org/2000/svg">
<path d="M45.9998 91.8332C20.7269 91.8332 0.166504 71.2728 0.166504 45.9998C0.166504 20.7269 20.7269 0.166504 45.9998 0.166504C58.9561 0.166504 71.3644 5.68734 80.0457 15.3144C80.4332 15.7415 80.3978 16.3998 79.9707 16.7853C79.5415 17.1707 78.8832 17.1353 78.4998 16.7103C70.2123 7.52067 58.3686 2.24984 45.9998 2.24984C21.8769 2.24984 2.24984 21.8748 2.24984 45.9998C2.24984 70.1248 21.8769 89.7498 45.9998 89.7498C70.1227 89.7498 89.7498 70.1248 89.7498 45.9998C89.7498 41.2103 88.9811 36.4998 87.4623 31.9998C87.2769 31.454 87.5707 30.8644 88.1144 30.6811C88.6728 30.4978 89.2519 30.7894 89.4352 31.3353C91.0269 36.0498 91.8332 40.9832 91.8332 45.9998C91.8332 71.2728 71.2728 91.8332 45.9998 91.8332Z" fill="#FF5026"/>
<path d="M44.4352 68.9267C42.904 68.9267 41.3706 68.36 40.2311 67.2246L21.7186 48.7871C20.5831 47.6579 19.9561 46.1517 19.9561 44.5475C19.9561 42.9454 20.5831 41.4412 21.7186 40.3121C23.9623 38.0746 27.8727 38.0704 30.1248 40.3121L43.5894 53.7204C44.0165 54.1454 44.8519 54.1475 45.2769 53.7204L80.6227 18.5204C82.9019 16.2517 86.7498 16.2517 89.029 18.5204C90.1644 19.6496 90.7915 21.1558 90.7915 22.7579C90.7915 24.36 90.1644 25.8642 89.029 26.9933L48.6415 67.2246C47.5019 68.36 45.9665 68.9267 44.4352 68.9267ZM25.9227 40.66C24.8915 40.66 23.9206 41.0621 23.1894 41.7892C22.4498 42.5267 22.0394 43.5058 22.0394 44.5496C22.0394 45.5933 22.4456 46.5746 23.1873 47.31L41.6998 65.7496C43.1561 67.1975 45.7144 67.1996 47.1706 65.7496L87.5602 25.5204C88.2977 24.785 88.7081 23.8037 88.7081 22.76C88.7081 21.7162 88.3019 20.735 87.5602 19.9996C86.104 18.5496 83.5477 18.5475 82.0915 19.9996L46.7477 55.1996C45.5186 56.4287 43.3519 56.4287 42.1186 55.1996L28.6561 41.7912C27.9248 41.06 26.954 40.66 25.9227 40.66Z" fill="#FF5026"/>
</svg>
