<svg width="100" height="100" viewBox="0 0 100 100" fill="none" xmlns="http://www.w3.org/2000/svg">
<path d="M50 95.8332C24.727 95.8332 4.16663 75.2728 4.16663 49.9998C4.16663 24.7269 24.727 4.1665 50 4.1665C62.9562 4.1665 75.3645 9.68734 84.0458 19.3144C84.4333 19.7415 84.3979 20.3998 83.9708 20.7853C83.5416 21.1707 82.8833 21.1353 82.5 20.7103C74.2125 11.5207 62.3687 6.24984 50 6.24984C25.877 6.24984 6.24996 25.8748 6.24996 49.9998C6.24996 74.1248 25.877 93.7498 50 93.7498C74.1229 93.7498 93.75 74.1248 93.75 49.9998C93.75 45.2103 92.9812 40.4998 91.4625 35.9998C91.277 35.454 91.5708 34.8644 92.1145 34.6811C92.6729 34.4978 93.252 34.7894 93.4354 35.3353C95.027 40.0498 95.8333 44.9832 95.8333 49.9998C95.8333 75.2728 75.2729 95.8332 50 95.8332Z" fill="#FF5026"/>
<path d="M48.4353 72.9267C46.9041 72.9267 45.3708 72.36 44.2312 71.2246L25.7187 52.7871C24.5833 51.6579 23.9562 50.1517 23.9562 48.5475C23.9562 46.9454 24.5833 45.4412 25.7187 44.3121C27.9624 42.0746 31.8728 42.0704 34.1249 44.3121L47.5895 57.7204C48.0166 58.1454 48.852 58.1475 49.277 57.7204L84.6228 22.5204C86.902 20.2517 90.7499 20.2517 93.0291 22.5204C94.1645 23.6496 94.7916 25.1558 94.7916 26.7579C94.7916 28.36 94.1645 29.8642 93.0291 30.9933L52.6416 71.2246C51.502 72.36 49.9666 72.9267 48.4353 72.9267ZM29.9228 44.66C28.8916 44.66 27.9208 45.0621 27.1895 45.7892C26.4499 46.5267 26.0395 47.5058 26.0395 48.5496C26.0395 49.5933 26.4458 50.5746 27.1874 51.31L45.6999 69.7496C47.1562 71.1975 49.7145 71.1996 51.1708 69.7496L91.5603 29.5204C92.2979 28.785 92.7083 27.8037 92.7083 26.76C92.7083 25.7162 92.302 24.735 91.5603 23.9996C90.1041 22.5496 87.5479 22.5475 86.0916 23.9996L50.7478 59.1996C49.5187 60.4287 47.352 60.4287 46.1187 59.1996L32.6562 45.7912C31.9249 45.06 30.9541 44.66 29.9228 44.66Z" fill="#FF5026"/>
</svg>
