<svg width="26" height="26" viewBox="0 0 26 26" fill="none" xmlns="http://www.w3.org/2000/svg">
<g clip-path="url(#clip0)">
<path d="M17.3497 3.92422C17.4164 3.85864 17.5194 3.84752 17.5985 3.89735C17.6406 3.92013 17.6731 3.95738 17.6899 4.00222C17.7726 4.22683 18.0217 4.34187 18.2463 4.25919C18.4709 4.1765 18.5859 3.92739 18.5033 3.70279C18.3739 3.35866 18.0782 3.10407 17.7187 3.02725C17.3592 2.95044 16.9853 3.06196 16.7266 3.32318C16.5606 3.49562 16.5659 3.76995 16.7383 3.93592C16.9107 4.10189 17.1851 4.09665 17.351 3.92422H17.3497Z" fill="#EDECEA"/>
<path d="M9.96579 21.2204C10.2051 21.2204 10.3991 21.0264 10.3991 20.7871C10.3991 20.5478 10.2051 20.3538 9.96579 20.3538C7.83702 20.3508 5.84412 19.3074 4.62885 17.5596C4.49196 17.3632 4.2218 17.315 4.02544 17.4519C3.82907 17.5888 3.78086 17.859 3.91775 18.0554C5.29529 20.0355 7.55364 21.2173 9.96579 21.2204Z" fill="#EDECEA"/>
<path d="M0.884867 14.2259C1.07933 19.103 5.08566 22.9589 9.96667 22.9666H12.3153C12.5547 22.9666 12.7487 22.7726 12.7487 22.5333C12.7487 22.294 12.5547 22.1 12.3153 22.1H9.96667C5.59266 22.0927 1.98716 18.6678 1.75543 14.3H4.33333C4.57266 14.3 4.76667 14.1059 4.76667 13.8666C4.76667 13.6273 4.57266 13.4333 4.33333 13.4333H1.3C1.06068 13.4333 0.866667 13.2393 0.866667 13V12.5666C0.866667 12.3273 1.06068 12.1333 1.3 12.1333H22.5333C22.7727 12.1333 22.9667 12.3273 22.9667 12.5666V12.753C22.9667 12.9923 23.1607 13.1863 23.4 13.1863C23.6393 13.1863 23.8333 12.9923 23.8333 12.753V12.5666C23.8333 11.8486 23.2513 11.2666 22.5333 11.2666H18.9661C19.4703 10.9928 20.001 10.771 20.55 10.6045C21.2122 10.9671 21.9994 11.0237 22.7066 10.7594C23.4139 10.4951 23.9711 9.93624 24.2333 9.22822C24.6997 7.96355 24.1232 6.55206 22.9047 5.97562C23.0615 4.84483 22.5161 3.7321 21.5263 3.16328C21.0605 2.89533 20.5282 2.76519 19.9914 2.78802C19.6077 2.048 18.916 1.51592 18.1024 1.33494C17.2887 1.15396 16.4367 1.34266 15.7755 1.85028C15.717 1.80998 15.6568 1.77142 15.5944 1.73545C14.4274 1.04622 12.9267 1.36905 12.1464 2.47718C11.366 3.58531 11.5678 5.107 12.61 5.97345C12.7138 6.05742 12.8239 6.13333 12.9393 6.20052C13.1208 6.97572 13.1905 7.77288 13.1465 8.56782L11.2779 5.99338C10.5946 5.04587 9.42424 4.58 8.27667 4.79868L7.787 2.68272C7.70894 2.34503 7.43719 2.08631 7.09608 2.02494C6.75496 1.96356 6.41008 2.11132 6.2192 2.40062L5.96743 2.78325L4.8165 0.476616C4.67509 0.195321 4.39224 0.0128424 4.07767 -5.05331e-05C3.76054 -0.0100347 3.46256 0.151371 3.29767 0.422449L3.0017 0.917316L1.9357 0.323649C1.5974 0.135476 1.17533 0.194478 0.901594 0.46821C0.627862 0.741942 0.56886 1.16401 0.757033 1.50232L1.3507 2.57005L0.8554 2.86602C0.584809 3.02857 0.424002 3.3254 0.435629 3.64085C0.447255 3.9563 0.629476 4.24049 0.9113 4.38268L3.21533 5.53535L2.83053 5.78885C2.5421 5.98108 2.39595 6.32667 2.45893 6.66751C2.52191 7.00836 2.78192 7.27889 3.12 7.35535L5.23207 7.84328C5.01321 8.99131 5.47948 10.1621 6.42763 10.8454L7.00657 11.2657H1.3C0.58203 11.2657 0 11.8478 0 12.5658V12.9991C0.0022124 13.5552 0.357886 14.0483 0.884867 14.2259ZM12.6282 3.49868C12.7825 2.98573 13.1629 2.5715 13.6608 2.37418C14.1519 2.18055 14.7047 2.22238 15.161 2.48772C15.2808 2.557 15.3919 2.6402 15.4921 2.73558C15.6647 2.89896 15.9368 2.89277 16.1018 2.72172C16.5674 2.24475 17.2448 2.03944 17.8969 2.17769C18.5489 2.31594 19.0847 2.77848 19.3167 3.40335C19.3889 3.5993 19.5906 3.7159 19.7964 3.68068C20.4537 3.57015 21.1217 3.80381 21.5668 4.29989C22.012 4.79596 22.1721 5.48537 21.9912 6.12685C21.9251 6.35528 22.0555 6.5943 22.2833 6.66245C22.744 6.79693 23.1283 7.1164 23.3447 7.54478C23.5612 7.97316 23.5903 8.47208 23.4251 8.92272C23.249 9.40332 22.8694 9.78147 22.3881 9.95582C21.9068 10.1302 21.3731 10.0829 20.93 9.82665C20.5791 9.62717 20.3106 9.30937 20.1725 8.93008C20.1101 8.75917 19.9476 8.64544 19.7656 8.64538C19.7298 8.64524 19.6942 8.64961 19.6595 8.65838C19.3278 8.74444 18.9756 8.69666 18.6788 8.52535C18.3251 8.32264 18.0879 7.96467 18.0392 7.55988C18.008 7.28718 17.8495 7.04536 17.6119 6.908C17.3742 6.77065 17.0856 6.75398 16.8337 6.86308C16.4586 7.02286 16.0301 6.99587 15.678 6.79028C15.3809 6.61878 15.163 6.33742 15.0713 6.00682C15.0109 5.79313 14.7987 5.65971 14.5799 5.69785C13.9905 5.79768 13.3912 5.58673 12.9943 5.13968C12.5974 4.69262 12.4589 4.07259 12.6278 3.49912L12.6282 3.49868ZM16.2374 7.82898C16.559 7.84197 16.8795 7.78382 17.176 7.65868C17.1762 7.66142 17.1762 7.66418 17.176 7.66692C17.2156 7.98755 17.3265 8.29524 17.5006 8.56738C17.0674 8.76513 16.6494 8.99455 16.25 9.25378C16.2826 8.77923 16.2783 8.30286 16.237 7.82898H16.2374ZM13.8974 6.55628C14.0529 6.58073 14.2102 6.59131 14.3676 6.58792C14.5553 6.9877 14.8609 7.32041 15.2434 7.54125C15.275 7.55945 15.3084 7.57375 15.3409 7.59065C15.4072 8.12242 15.4225 8.6593 15.3868 9.19398C15.3616 9.52618 15.5291 9.84342 15.8176 10.01C16.1061 10.1766 16.4645 10.1631 16.7397 9.97528C17.187 9.67899 17.6615 9.4258 18.1567 9.21912C18.1853 9.23775 18.2121 9.25812 18.2433 9.27545C18.6252 9.49683 19.0657 9.59589 19.5056 9.55928C19.5823 9.6979 19.6715 9.82918 19.7721 9.95145C18.9144 10.2685 18.1088 10.7118 17.3819 11.2666H15.1064L13.8979 9.60132C14.0673 8.59334 14.0669 7.56411 13.8966 6.55628H13.8974ZM3.31067 6.51078L3.69547 6.25728C3.95311 6.08629 4.10013 5.79099 4.08128 5.48235C4.06243 5.1737 3.88057 4.89848 3.60403 4.76012L1.3 3.60918L1.79833 3.31235C2.19813 3.06999 2.33479 2.55493 2.10773 2.14625L1.51363 1.08068L2.58137 1.67522C2.99123 1.90115 3.50638 1.76279 3.7479 1.36192L4.04127 0.866616L5.19393 3.17238C5.33297 3.44916 5.60914 3.6307 5.91835 3.64858C6.22757 3.66646 6.52283 3.51796 6.69283 3.25905L6.9446 2.87945L7.45333 5.07385C7.16514 5.21913 6.90186 5.40928 6.67333 5.63718L6.07533 6.23518C5.84743 6.46371 5.65728 6.72699 5.512 7.01518L3.31067 6.51078ZM6.93767 10.1456C6.42419 9.77122 6.10051 9.19069 6.05198 8.55709C6.00346 7.92348 6.23498 7.30043 6.68547 6.85225L7.28347 6.25425C8.04827 5.483 9.26595 5.39721 10.1313 6.05362L8.84 7.01995C8.71615 7.11284 8.65126 7.26475 8.66978 7.41845C8.6883 7.57215 8.78741 7.7043 8.92978 7.76512C9.07215 7.82593 9.23615 7.80617 9.36 7.71328L10.7176 6.69495L11.2771 7.46628L10.14 8.31995C9.94854 8.46354 9.90974 8.73516 10.0533 8.92662C10.1969 9.11808 10.4685 9.15688 10.66 9.01328L11.7867 8.16785L12.347 8.93962L11.44 9.61995C11.2485 9.76355 11.2097 10.0352 11.3533 10.2266C11.4969 10.4181 11.7685 10.4569 11.96 10.3133L12.8561 9.64118L14.0361 11.2666H8.48293L6.93767 10.1456Z" fill="#EDECEA"/>
<path d="M14.547 13.8664C14.547 13.6271 14.353 13.4331 14.1137 13.4331H6.93333C6.69401 13.4331 6.5 13.6271 6.5 13.8664C6.5 14.1058 6.69401 14.2998 6.93333 14.2998H14.1137C14.353 14.2998 14.547 14.1058 14.547 13.8664Z" fill="#EDECEA"/>
<path d="M22.7243 13.8634C22.7112 13.8544 22.6976 13.8461 22.6835 13.8387C20.1453 12.4053 16.9627 12.8397 14.9014 14.9009C12.8401 16.9622 12.4058 20.1448 13.8392 22.683C13.847 22.698 13.8557 22.7125 13.8652 22.7264C15.2234 25.1041 17.9268 26.3747 20.6242 25.903C23.3215 25.4312 25.4333 23.3185 25.9038 20.621C26.3744 17.9234 25.1026 15.2205 22.7243 13.8634ZM19.5003 25.1331C16.3891 25.1331 13.867 22.611 13.867 19.4998C13.867 16.3886 16.3891 13.8665 19.5003 13.8665C22.6115 13.8665 25.1336 16.3886 25.1336 19.4998C25.13 22.6095 22.61 25.1295 19.5003 25.1331Z" fill="#EDECEA"/>
<path d="M22.6602 16.5933L17.3332 21.9203L15.9063 20.4933C15.7362 20.3291 15.4659 20.3314 15.2988 20.4986C15.1316 20.6658 15.1293 20.936 15.2935 21.1061L17.0269 22.8394C17.1961 23.0086 17.4704 23.0086 17.6396 22.8394L23.2729 17.2061C23.4371 17.036 23.4348 16.7658 23.2676 16.5986C23.1005 16.4314 22.8302 16.4291 22.6602 16.5933Z" fill="#EDECEA"/>
<path d="M3.46654 16.8999C3.70586 16.8999 3.89987 16.7058 3.89987 16.4665C3.89987 16.2272 3.70586 16.0332 3.46654 16.0332C3.22721 16.0332 3.0332 16.2272 3.0332 16.4665C3.0332 16.7058 3.22721 16.8999 3.46654 16.8999Z" fill="#EDECEA"/>
</g>
<defs>
<clipPath id="clip0">
<rect width="26" height="26" fill="white"/>
</clipPath>
</defs>
</svg>
