<svg width="26" height="26" viewBox="0 0 26 26" fill="none" xmlns="http://www.w3.org/2000/svg">
<circle cx="13" cy="13" r="13" fill="#7294C7"/>
<path d="M19.3748 16.3253C19.3748 16.2713 19.3208 16.2713 19.3208 16.2173C19.1049 15.7856 18.6193 15.246 17.9717 14.6523C17.6479 14.3825 17.486 14.1667 17.3781 14.0587C17.2162 13.8429 17.2162 13.681 17.2701 13.4651C17.3241 13.3032 17.54 13.0334 17.9177 12.5477C18.1336 12.2779 18.2415 12.116 18.4034 11.9541C19.2129 10.8748 19.5906 10.1733 19.4827 9.84947L19.4287 9.79551C19.3748 9.74154 19.3208 9.68758 19.2129 9.68758C19.1049 9.63362 18.943 9.63362 18.7811 9.68758H16.7305C16.6765 9.68758 16.6765 9.68758 16.5686 9.68758C16.5146 9.68758 16.4607 9.68758 16.4607 9.68758H16.4067H16.3527L16.2988 9.74154C16.2448 9.79551 16.2448 9.7955 16.2448 9.84947C16.0289 10.4431 15.7591 10.9288 15.4893 11.4684C15.3274 11.7382 15.1655 12.0081 15.0036 12.2239C14.8417 12.4398 14.7338 12.6017 14.6258 12.7096C14.5179 12.8175 14.41 12.8715 14.356 12.9794C14.3021 13.0334 14.1941 13.0874 14.1941 13.0334C14.1402 13.0334 14.0862 13.0334 14.0862 12.9794C14.0322 12.9255 13.9783 12.8715 13.9243 12.8175C13.8703 12.7636 13.8703 12.6556 13.8164 12.5477C13.8164 12.4398 13.8164 12.3319 13.8164 12.2779C13.8164 12.2239 13.8164 12.062 13.8164 11.9541C13.8164 11.7922 13.8164 11.6843 13.8164 11.6303C13.8164 11.4684 13.8164 11.2526 13.8164 11.0367C13.8164 10.8208 13.8164 10.6589 13.8164 10.551C13.8164 10.4431 13.8164 10.2812 13.8164 10.1733C13.8164 10.0114 13.8164 9.90343 13.8164 9.84947C13.8164 9.7955 13.7624 9.68758 13.7624 9.63361C13.7085 9.57965 13.6545 9.52568 13.6005 9.47172C13.5465 9.41775 13.4386 9.41775 13.3847 9.36379C13.1148 9.30982 12.7911 9.25586 12.4133 9.25586C11.5499 9.25586 10.9562 9.30983 10.7404 9.41776C10.6325 9.47172 10.5245 9.52568 10.4706 9.63361C10.3626 9.74154 10.3626 9.79551 10.4166 9.79551C10.6864 9.84947 10.9023 9.9574 11.0102 10.1193L11.0642 10.2272C11.1181 10.2812 11.1181 10.3891 11.1721 10.551C11.2261 10.7129 11.2261 10.8748 11.2261 11.0907C11.2261 11.4145 11.2261 11.7382 11.2261 11.9541C11.2261 12.2239 11.1721 12.3858 11.1721 12.5477C11.1721 12.7096 11.1181 12.8175 11.0642 12.8715C11.0102 12.9794 11.0102 13.0334 10.9562 13.0334C10.9562 13.0334 10.9562 13.0874 10.9023 13.0874C10.8483 13.0874 10.7943 13.1413 10.6864 13.1413C10.6324 13.1413 10.5245 13.0874 10.4706 13.0334C10.3626 12.9794 10.2547 12.8715 10.2007 12.7636C10.0928 12.6556 9.98487 12.4937 9.87694 12.2779C9.76901 12.062 9.60711 11.8462 9.49918 11.5224L9.39126 11.3065C9.33729 11.1986 9.22936 10.9827 9.12143 10.7129C9.0135 10.4431 8.90557 10.2272 8.79764 9.9574C8.74368 9.84948 8.68972 9.79551 8.63575 9.74154H8.58179C8.58179 9.74154 8.52781 9.68758 8.47385 9.68758C8.41988 9.68758 8.36593 9.63361 8.31196 9.63361H6.36922C6.15336 9.63361 6.04543 9.68758 5.99147 9.74154L5.9375 9.79551C5.9375 9.79551 5.9375 9.84947 5.9375 9.90344C5.9375 9.9574 5.9375 10.0114 5.99147 10.1193C6.26129 10.7669 6.58508 11.4145 6.90887 12.062C7.23266 12.6556 7.55645 13.1953 7.77231 13.5731C8.04214 13.9508 8.25799 14.3286 8.52782 14.6523C8.79764 14.9761 8.95953 15.192 9.0135 15.2999C9.12143 15.4079 9.17539 15.4618 9.22935 15.5158L9.39126 15.6777C9.49919 15.7856 9.66108 15.9475 9.87694 16.1094C10.0928 16.2713 10.3626 16.4332 10.6324 16.5951C10.9023 16.757 11.2261 16.8649 11.5499 16.9728C11.9276 17.0808 12.2514 17.1347 12.5752 17.0808H13.3847C13.5466 17.0808 13.6545 17.0268 13.7624 16.9189L13.8164 16.8649C13.8164 16.8109 13.8703 16.8109 13.8703 16.757C13.8703 16.703 13.8703 16.6491 13.8703 16.5411C13.8703 16.3253 13.8703 16.1634 13.9243 16.0015C13.9783 15.8396 13.9783 15.7316 14.0322 15.6237C14.0862 15.5158 14.1402 15.4618 14.1941 15.4079C14.2481 15.3539 14.3021 15.2999 14.3021 15.2999H14.356C14.4639 15.246 14.6259 15.2999 14.7338 15.4079C14.8957 15.5158 15.0576 15.6777 15.1655 15.8396C15.2734 16.0015 15.4353 16.1634 15.6512 16.3792C15.8671 16.5951 16.0289 16.757 16.1369 16.8109L16.2988 16.9189C16.4067 16.9728 16.5146 17.0268 16.6765 17.0808C16.8384 17.1347 16.9463 17.1347 17.0543 17.1347L18.8891 17.0808C19.051 17.0808 19.2129 17.0268 19.3208 16.9728C19.4287 16.9189 19.4827 16.8649 19.4827 16.757C19.4827 16.703 19.4827 16.5951 19.4827 16.5411C19.3748 16.4332 19.3748 16.3792 19.3748 16.3253Z" fill="white"/>
</svg>
