<svg width="100" height="100" viewBox="0 0 100 100" fill="none" xmlns="http://www.w3.org/2000/svg">
<path d="M52.4583 95.8332H47.5416C46.0562 95.8332 44.7666 94.7769 44.477 93.3207L43.975 90.8144C43.8895 90.3936 43.5479 90.0748 43.1041 89.9978C40.6375 89.579 38.2312 88.9436 35.95 88.1082C35.5229 87.9519 35.0708 88.0582 34.7895 88.379L33.1229 90.2769C32.1416 91.3894 30.4979 91.6623 29.2125 90.9207L24.9541 88.4623C23.6687 87.7207 23.0812 86.1623 23.5562 84.754L24.377 82.329C24.5145 81.9248 24.3791 81.4769 24.0312 81.1873C22.1416 79.6123 20.3854 77.8561 18.8083 75.9644C18.5187 75.6186 18.0708 75.4832 17.6687 75.6207L15.2437 76.4415C13.8354 76.9186 12.277 76.329 11.5354 75.0436L9.07704 70.7853C8.33538 69.4998 8.60413 67.8561 9.72079 66.8748L11.6187 65.2082C11.9395 64.9269 12.0458 64.4707 11.8895 64.0478C11.0541 61.7665 10.4166 59.3603 9.99996 56.8936C9.92496 56.4478 9.60413 56.1061 9.18329 56.0228L6.67704 55.5207C5.22288 55.2332 4.16663 53.9436 4.16663 52.4582V47.5415C4.16663 46.0561 5.22288 44.7665 6.67913 44.4769L9.18538 43.9748C9.60413 43.8915 9.92496 43.5498 9.99996 43.104C10.4187 40.6373 11.0541 38.2311 11.8895 35.9498C12.0458 35.5248 11.9375 35.0707 11.6187 34.7894L9.72079 33.1228C8.60621 32.1415 8.33538 30.4978 9.07704 29.2123L11.5354 24.954C12.277 23.6686 13.8395 23.0811 15.2437 23.5561L17.6687 24.3769C18.0729 24.5144 18.5208 24.379 18.8083 24.0332C20.3833 22.1415 22.1416 20.3853 24.0312 18.8103C24.377 18.5228 24.5125 18.0748 24.375 17.6707L23.5541 15.2457C23.077 13.8394 23.6666 12.279 24.952 11.5373L29.2104 9.079C30.4937 8.33734 32.1395 8.60609 33.1208 9.72275L34.7875 11.6207C35.0708 11.9415 35.527 12.0498 35.9479 11.8915C38.2291 11.0561 40.6354 10.4186 43.1041 9.99984C43.55 9.92484 43.8916 9.604 43.975 9.18317L44.477 6.67692C44.7666 5.22275 46.0562 4.1665 47.5416 4.1665H52.4583C53.9437 4.1665 55.2333 5.22275 55.5229 6.679L56.025 9.18525C56.1083 9.604 56.45 9.92484 56.8958 9.99984C59.3645 10.4186 61.7708 11.054 64.05 11.8915C64.4687 12.0415 64.927 11.9394 65.2104 11.6186L66.877 9.72067C67.8562 8.60609 69.5 8.33317 70.7875 9.07692L75.0458 11.5353C76.3312 12.2769 76.9187 13.8353 76.4437 15.2436L75.6229 17.6686C75.4854 18.0728 75.6208 18.5207 75.9666 18.8082C77.8583 20.3832 79.6145 22.1415 81.1895 24.0311C81.4791 24.3769 81.9229 24.5103 82.3291 24.3748L84.7541 23.554C86.1625 23.0748 87.7208 23.6665 88.4625 24.9519L90.9208 29.2103C91.6625 30.4957 91.3937 32.1394 90.277 33.1207L88.3791 34.7873C88.0583 35.0686 87.952 35.5248 88.1083 35.9478C88.9437 38.229 89.5812 40.6353 89.9979 43.1019C90.0729 43.5478 90.3937 43.8894 90.8145 43.9728L93.3208 44.4748C94.777 44.7686 95.8333 46.0561 95.8333 47.5415V52.4582C95.8333 53.9436 94.777 55.2332 93.3208 55.5228L90.8145 56.0248C90.3937 56.1103 90.075 56.4519 89.9979 56.8957C89.5791 59.3623 88.9437 61.7686 88.1083 64.0498C87.952 64.4748 88.0604 64.929 88.3791 65.2103L90.277 66.8769C91.3916 67.8582 91.6625 69.5019 90.9208 70.7873L88.4625 75.0457C87.7208 76.3311 86.1583 76.9186 84.7541 76.4436L82.3291 75.6227C81.925 75.4853 81.4791 75.6227 81.1875 75.9686C79.6125 77.8582 77.8562 79.6144 75.9645 81.1915C75.6187 81.479 75.4833 81.9269 75.6208 82.3311L76.4416 84.7561C76.9187 86.1623 76.3291 87.7228 75.0437 88.4644L70.7854 90.9228C69.5 91.6644 67.8541 91.3936 66.875 90.279L65.2083 88.3811C64.9291 88.0623 64.475 87.9561 64.0479 88.1103C61.7666 88.9457 59.3604 89.5832 56.8937 89.9998C56.4479 90.0748 56.1062 90.3957 56.0229 90.8165L55.5208 93.3227C55.2333 94.7769 53.9437 95.8332 52.4583 95.8332ZM35.552 85.954C35.9229 85.954 36.3 86.0186 36.6666 86.154C38.827 86.9457 41.1104 87.5478 43.45 87.9436C44.7541 88.1644 45.7604 89.1311 46.0166 90.4061L46.5187 92.9123C46.6166 93.3978 47.0458 93.7498 47.5416 93.7498H52.4583C52.9541 93.7498 53.3833 93.3978 53.4791 92.9144L53.9812 90.4061C54.2375 89.1311 55.2437 88.1644 56.5479 87.9436C58.8895 87.5478 61.1708 86.9457 63.3333 86.154C64.5687 85.6978 65.9208 86.0332 66.775 87.0061L68.4416 88.904C68.7687 89.2728 69.3166 89.3623 69.7458 89.1186L74.0041 86.6602C74.4333 86.4123 74.6291 85.8936 74.4708 85.4248L73.65 82.9998C73.2354 81.7748 73.6208 80.4373 74.6333 79.5915C76.427 78.0957 78.0958 76.429 79.5895 74.6353C80.4333 73.6207 81.7729 73.2353 82.9979 73.6498L85.4229 74.4707C85.8916 74.6269 86.4125 74.4311 86.6583 74.004L89.1166 69.7457C89.3645 69.3165 89.275 68.7686 88.902 68.4415L87.0041 66.7748C86.0333 65.9207 85.6979 64.5686 86.152 63.3332C86.9437 61.1728 87.5458 58.8894 87.9416 56.5498C88.1625 55.2457 89.1291 54.2394 90.4041 53.9832L92.9104 53.4811C93.3979 53.3832 93.75 52.954 93.75 52.4582V47.5415C93.75 47.0457 93.3979 46.6165 92.9145 46.5207L90.4083 46.0186C89.1333 45.7623 88.1687 44.7561 87.9458 43.4519C87.55 41.1103 86.9479 38.829 86.1562 36.6665C85.702 35.4311 86.0354 34.079 87.0083 33.2248L88.9062 31.5582C89.277 31.2311 89.3687 30.6832 89.1208 30.254L86.6625 25.9957C86.4145 25.5665 85.8958 25.3728 85.427 25.529L83.002 26.3498C81.777 26.7665 80.4375 26.3811 79.5937 25.3644C78.1 23.5707 76.4312 21.904 74.6395 20.4103C73.625 19.5665 73.2395 18.229 73.6541 17.0019L74.475 14.5769C74.6333 14.1082 74.4375 13.5873 74.0083 13.3415L69.75 10.8832C69.3229 10.6353 68.7729 10.7248 68.4458 11.0978L66.7791 12.9957C65.927 13.9686 64.575 14.3019 63.3375 13.8498C61.177 13.0561 58.8937 12.454 56.552 12.0582C55.2479 11.8373 54.2416 10.8707 53.9854 9.59567L53.4791 7.08734C53.3833 6.60192 52.9541 6.24984 52.4583 6.24984H47.5416C47.0458 6.24984 46.6166 6.60192 46.5208 7.08525L46.0187 9.59359C45.7625 10.8686 44.7562 11.8353 43.452 12.0561C41.1083 12.4519 38.827 13.054 36.6687 13.8478C35.4354 14.3019 34.0812 13.9686 33.227 12.9957L31.5604 11.0978C31.2333 10.7269 30.6833 10.6332 30.2562 10.8832L25.9979 13.3415C25.5687 13.5894 25.3729 14.1082 25.5312 14.5769L26.352 17.0019C26.7666 18.229 26.3812 19.5665 25.3666 20.4103C23.5729 21.904 21.9062 23.5728 20.4125 25.3644C19.5708 26.379 18.2291 26.7644 17.0041 26.3498L14.5791 25.529C14.1062 25.3707 13.5895 25.5665 13.3437 25.9957L10.8854 30.254C10.6375 30.6832 10.727 31.2311 11.1 31.5582L12.9979 33.2248C13.9687 34.079 14.3041 35.4311 13.85 36.6665C13.0583 38.8269 12.4562 41.1103 12.0604 43.4498C11.8395 44.754 10.8729 45.7603 9.59788 46.0165L7.08746 46.5207C6.60204 46.6165 6.24996 47.0457 6.24996 47.5415V52.4582C6.24996 52.954 6.60204 53.3832 7.08538 53.479L9.59371 53.9811C10.8687 54.2373 11.8354 55.2436 12.0562 56.5478C12.452 58.8894 13.0541 61.1707 13.8458 63.3332C14.3 64.5686 13.9666 65.9207 12.9937 66.7748L11.0958 68.4415C10.725 68.7686 10.6333 69.3165 10.8812 69.7457L13.3395 74.004C13.5875 74.4332 14.1041 74.6269 14.575 74.4707L17 73.6498C18.2229 73.2353 19.5625 73.6207 20.4083 74.6332C21.9041 76.4269 23.5708 78.0957 25.3645 79.5894C26.3791 80.4352 26.7645 81.7728 26.35 82.9977L25.5291 85.4227C25.3708 85.8915 25.5666 86.4123 25.9958 86.6582L30.2541 89.1165C30.6812 89.3644 31.2312 89.2748 31.5583 88.9019L33.225 87.004C33.825 86.3228 34.6729 85.954 35.552 85.954ZM50 64.5832C41.9583 64.5832 35.4166 58.0415 35.4166 49.9998C35.4166 41.9582 41.9583 35.4165 50 35.4165C58.0416 35.4165 64.5833 41.9582 64.5833 49.9998C64.5833 58.0415 58.0416 64.5832 50 64.5832ZM50 37.4998C43.1062 37.4998 37.5 43.1061 37.5 49.9998C37.5 56.8936 43.1062 62.4998 50 62.4998C56.8937 62.4998 62.5 56.8936 62.5 49.9998C62.5 43.1061 56.8937 37.4998 50 37.4998Z" fill="#FF5026"/>
<path d="M49.9999 79.1663C33.9166 79.1663 20.8333 66.083 20.8333 49.9997C20.8333 33.9163 33.9166 20.833 49.9999 20.833C66.0833 20.833 79.1666 33.9163 79.1666 49.9997C79.1666 57.1976 76.5228 64.108 71.7228 69.4622C71.3374 69.8934 70.6812 69.9268 70.252 69.5413C69.8228 69.158 69.7874 68.4997 70.1728 68.0705C74.6291 63.0997 77.0833 56.683 77.0833 49.9997C77.0833 35.0663 64.9333 22.9163 49.9999 22.9163C35.0666 22.9163 22.9166 35.0663 22.9166 49.9997C22.9166 64.933 35.0666 77.083 49.9999 77.083C55.7874 77.083 61.3103 75.283 65.9687 71.8768C66.4333 71.5372 67.0853 71.6372 67.4249 72.1038C67.7645 72.5684 67.6624 73.2205 67.1978 73.5601C62.1812 77.2268 56.2333 79.1663 49.9999 79.1663Z" fill="#FF5026"/>
</svg>
