<svg width="26" height="26" viewBox="0 0 26 26" fill="none" xmlns="http://www.w3.org/2000/svg">
<path d="M24.2669 6.50039C23.9617 6.50219 23.6626 6.58536 23.4002 6.74132V5.63372C23.4002 4.67643 22.6242 3.90039 21.6669 3.90039C20.7096 3.90039 19.9336 4.67643 19.9336 5.63372V9.53372H18.0546L16.4669 7.93299V6.14419C16.4669 5.74067 16.3061 5.35378 16.0201 5.06913C15.7341 4.78449 15.3464 4.62556 14.9429 4.62752C14.6757 4.62915 14.4139 4.70264 14.185 4.84029C13.9719 4.32322 13.4915 3.96538 12.9351 3.9092C12.3787 3.85301 11.8365 4.10759 11.5243 4.57162C11.1505 4.28753 10.6658 4.19359 10.213 4.3175C9.76018 4.44141 9.39082 4.76904 9.21378 5.20386C8.98015 5.06564 8.7139 4.9922 8.44244 4.99109C7.60925 4.99181 6.93406 5.66719 6.93358 6.50039V9.53372H6.08425V5.63372C6.08425 4.67643 5.30821 3.90039 4.35091 3.90039C3.39362 3.90039 2.61758 4.67643 2.61758 5.63372V6.74132C2.35526 6.58536 2.05609 6.50219 1.75091 6.50039C0.793618 6.50039 0.0175781 7.27643 0.0175781 8.23372V14.7337C0.0175781 15.691 0.793618 16.4671 1.75091 16.4671C2.05609 16.4653 2.35526 16.3821 2.61758 16.2261V17.3337C2.61758 18.291 3.39362 19.0671 4.35091 19.0671C5.30821 19.0671 6.08425 18.291 6.08425 17.3337V13.4337H7.36691V13.7067C7.33865 14.4994 7.53612 15.2839 7.93631 15.9687L8.43941 16.8389C8.57218 17.0331 8.65072 17.2593 8.66691 17.4941V21.3941C8.66739 21.784 8.98335 22.0999 9.37324 22.1004H14.8896C15.2819 22.0999 15.5998 21.782 15.6002 21.3897V17.4507C15.6003 17.3741 15.6217 17.2991 15.6622 17.2341L17.8891 13.4337H19.9336V17.3337C19.9336 18.291 20.7096 19.0671 21.6669 19.0671C22.6242 19.0671 23.4002 18.291 23.4002 17.3337V16.2261C23.6626 16.3821 23.9617 16.4653 24.2669 16.4671C25.2242 16.4671 26.0002 15.691 26.0002 14.7337V8.23372C26.0002 7.27643 25.2242 6.50039 24.2669 6.50039ZM14.9576 5.49419C15.3143 5.49681 15.6017 5.78748 15.6002 6.14419L15.6003 7.05939L15.3953 6.85269C15.1473 6.60692 14.8123 6.46894 14.4632 6.46876H14.4588C14.4057 6.47043 14.3527 6.47564 14.3002 6.48436V6.14419C14.3002 5.97052 14.3697 5.80406 14.4932 5.68195C14.6167 5.55983 14.7839 5.49222 14.9576 5.49419ZM12.1336 5.41706C12.1336 5.05807 12.4246 4.76706 12.7836 4.76706C13.1426 4.76706 13.4336 5.05807 13.4336 5.41706V7.02039C12.9708 7.73174 12.9708 8.64904 13.4336 9.36039V9.62256C13.3357 9.89721 13.0752 10.0802 12.7836 10.0793C12.612 10.081 12.4469 10.0142 12.3248 9.89358C12.2028 9.773 12.1339 9.60866 12.1336 9.43709V5.41706ZM9.96691 5.77412C9.96691 5.41514 10.2579 5.12412 10.6169 5.12412C10.9759 5.12412 11.2669 5.41514 11.2669 5.77412V9.43622C11.2667 9.79159 10.9788 10.0797 10.6234 10.0802H10.6104C10.255 10.0797 9.96715 9.79159 9.96691 9.43622V5.77412ZM7.80024 6.50039C7.80024 6.14141 8.09126 5.85039 8.45024 5.85039C8.80923 5.85039 9.10025 6.14141 9.10025 6.50039V10.1582C9.10025 10.5171 8.80923 10.8082 8.45024 10.8082C8.09126 10.8082 7.80024 10.5171 7.80024 10.1582V6.50039ZM1.75091 15.6004C1.27226 15.6004 0.884245 15.2124 0.884245 14.7337V8.23372C0.884245 7.75508 1.27226 7.36706 1.75091 7.36706C2.22956 7.36706 2.61758 7.75508 2.61758 8.23372V14.7337C2.61758 15.2124 2.22956 15.6004 1.75091 15.6004ZM5.21758 17.3337C5.21758 17.8124 4.82956 18.2004 4.35091 18.2004C3.87226 18.2004 3.48425 17.8124 3.48425 17.3337V5.63372C3.48425 5.15508 3.87226 4.76706 4.35091 4.76706C4.82956 4.76706 5.21758 5.15508 5.21758 5.63372V17.3337ZM6.08425 10.4004H6.95828C7.07738 11.1325 7.70851 11.6711 8.45024 11.6735C9.06426 11.673 9.61736 11.3022 9.85121 10.7345C10.0806 10.8719 10.3426 10.9453 10.61 10.9468H10.623C11.0287 10.9468 11.4172 10.7829 11.7002 10.4923C11.705 10.4975 11.7085 10.5035 11.7137 10.5087C11.9982 10.7908 12.383 10.9483 12.7836 10.9468C13.3505 10.9455 13.8721 10.6368 14.146 10.1404C14.1893 10.1837 14.2374 10.2323 14.279 10.2747L14.7938 10.7947C14.0165 11.1698 13.3474 11.7364 12.8494 12.4414C12.8191 12.4847 12.7953 12.5281 12.7667 12.5714H6.08425V10.4004ZM14.9186 16.7869C14.7968 16.9868 14.7327 17.2166 14.7336 17.4507V21.2337H9.53358V17.4941C9.52157 17.1036 9.40157 16.7241 9.18691 16.3977L8.67991 15.5233C8.36228 14.9722 8.20751 14.3423 8.23358 13.7067V13.4337H12.3069C12.2497 13.5681 12.1921 13.7028 12.1435 13.8441C12.0664 14.0707 12.1875 14.317 12.4142 14.3942C12.6408 14.4714 12.8871 14.3502 12.9643 14.1236C13.0714 13.8064 13.2116 13.5014 13.3824 13.2136C13.4345 13.12 13.4923 13.0299 13.5558 12.9436C14.0734 12.2062 14.8161 11.6564 15.6726 11.3767C15.8235 11.3389 15.9425 11.2231 15.9845 11.0734C16.0265 10.9237 15.985 10.7629 15.8758 10.6522C15.8758 10.6522 15.5504 10.322 14.8978 9.66546C14.7145 9.47782 14.503 9.26679 14.2643 9.02716L14.23 8.99249C14.2172 8.97323 14.2027 8.9551 14.1867 8.93832C13.8636 8.48873 13.8699 7.88134 14.2023 7.43856C14.2686 7.36635 14.3646 7.32878 14.4623 7.33672C14.5812 7.33651 14.6953 7.38323 14.7799 7.46672L17.9402 10.6487C18.1602 10.8673 18.1996 11.2091 18.0351 11.472L14.9186 16.7869ZM18.3974 12.5671L18.7792 11.9171C19.0583 11.4535 19.0726 10.8772 18.8169 10.4004H19.9336V12.5671H18.3974ZM22.5336 17.3337C22.5336 17.8124 22.1456 18.2004 21.6669 18.2004C21.1883 18.2004 20.8002 17.8124 20.8002 17.3337V5.63372C20.8002 5.15508 21.1883 4.76706 21.6669 4.76706C22.1456 4.76706 22.5336 5.15508 22.5336 5.63372V17.3337ZM25.1336 14.7337C25.1336 15.2124 24.7456 15.6004 24.2669 15.6004C23.7883 15.6004 23.4002 15.2124 23.4002 14.7337V8.23372C23.4002 7.75508 23.7883 7.36706 24.2669 7.36706C24.7456 7.36706 25.1336 7.75508 25.1336 8.23372V14.7337Z" fill="#EDECEA"/>
</svg>
