<svg width="493" height="491" viewBox="0 0 493 491" fill="none" xmlns="http://www.w3.org/2000/svg">
<path d="M303.3 275.728L0 275.728C0.000158621 310.054 35.2222 388.519 108.601 434.617C181.98 480.716 256.338 472.058 303.3 455.214L303.3 275.728Z" fill="black" fill-opacity="0.1"/>
<path d="M284.918 279.404L0 279.404C0.000149007 311.571 33.0875 385.098 102.019 428.297C170.951 471.495 240.802 463.382 284.918 447.598V279.404Z" fill="#34847B"/>
<path d="M292.271 194.848L292.271 490.795C325.618 490.795 401.84 456.427 446.621 384.827C491.403 313.227 482.993 240.672 466.63 194.847L292.271 194.848Z" fill="black" fill-opacity="0.1"/>
<path d="M284.918 196.686L284.918 481.604C317.085 481.604 390.613 448.516 433.811 379.585C477.009 310.653 468.896 240.802 453.112 196.686L284.918 196.686Z" fill="#E95C7B"/>
<path d="M198.524 207.715L492.633 207.715C492.633 174.562 458.478 98.782 387.323 54.2603C316.168 9.73862 198.524 34.3681 198.524 34.3681L198.524 207.715Z" fill="black" fill-opacity="0.1"/>
<path d="M198.524 197.409L483.442 197.409C483.442 165.242 450.355 91.7141 381.423 48.5159C312.492 5.31766 242.64 13.4306 198.524 29.2149L198.524 197.409Z" fill="#F3CF63"/>
<path d="M209.713 292.271L209.713 7.35254C177.546 7.35269 104.018 40.4401 60.8201 109.372C17.6219 178.303 41.5192 292.271 41.5192 292.271L209.713 292.271Z" fill="black" fill-opacity="0.1"/>
<path d="M198.684 284.918L198.684 0C166.517 0.000147601 92.989 33.0875 49.7908 102.019C6.59257 170.951 14.7056 240.802 30.4899 284.918L198.684 284.918Z" fill="#895A8E"/>
<circle cx="240.802" cy="240.802" r="91.9091" fill="black" fill-opacity="0.1"/>
<circle cx="240.802" cy="240.802" r="84.5564" fill="white"/>
<circle cx="239.883" cy="239.883" r="74.4464" fill="black" fill-opacity="0.1"/>
<circle cx="239.882" cy="239.883" r="70.77" fill="white"/>
<path d="M201.148 233.084C203.308 233.084 204.244 231.968 204.244 230.456V229.664C204.244 228.152 203.308 227.036 201.148 227.036C198.988 227.036 198.052 228.152 198.052 229.664V230.456C198.052 231.968 198.988 233.084 201.148 233.084ZM198.484 254H203.812V235.1H198.484V254ZM219.737 254L222.905 240.392L224.165 234.884H224.273L225.497 240.392L228.665 254H234.893L240.725 228.872H235.541L233.129 240.932L231.797 247.916H231.689L230.141 240.932L227.333 228.872H221.357L218.585 240.932L217.001 247.916H216.893L215.561 240.932L213.185 228.872H207.785L213.473 254H219.737ZM251.65 254.432C255.106 254.432 257.878 253.244 259.57 251.3L256.906 247.988C255.718 249.212 254.494 250.256 252.262 250.256C249.418 250.256 248.086 248.672 248.086 246.188V245.9H260.218V244.316C260.218 239.204 257.698 234.668 251.434 234.668C245.746 234.668 242.578 238.556 242.578 244.532C242.578 250.58 245.854 254.432 251.65 254.432ZM251.542 238.592C253.666 238.592 254.71 240.14 254.71 242.444V242.768H248.086V242.48C248.086 240.14 249.418 238.592 251.542 238.592ZM272.125 254V249.86H269.749V227.36H264.421V248.816C264.421 252.164 266.077 254 269.713 254H272.125ZM283.182 254V249.86H280.806V227.36H275.478V248.816C275.478 252.164 277.134 254 280.77 254H283.182Z" fill="#4C4C4C"/>
<path d="M61.208 191.4H62.888V189H71.064V191.4H72.744V187.4H71.08V177.832H63.8V181.224C63.8 184.552 63.256 186.312 62.392 187.4H61.208V191.4ZM64.472 187.4V187.336C65.144 186.312 65.544 184.616 65.544 181.432V179.432H69.272V187.4H64.472ZM75.0347 189H80.4748C82.1228 189 83.3547 187.592 83.3547 185.784C83.3547 183.912 81.9307 183.208 81.0187 183.176V183.08C81.9307 183 82.9548 182.392 82.9548 180.712C82.9548 178.968 81.8188 177.832 79.9787 177.832H75.0347V189ZM76.8427 184.056H79.9467C80.8748 184.056 81.4507 184.568 81.4507 185.48V186.024C81.4507 186.936 80.8748 187.448 79.9467 187.448H76.8427V184.056ZM76.8427 179.384H79.6427C80.5227 179.384 81.0507 179.864 81.0507 180.712V181.224C81.0507 182.072 80.5227 182.552 79.6427 182.552H76.8427V179.384ZM86.0216 189H87.6536L91.9416 182.408L93.0616 180.344H93.1096L92.9336 182.648V189H94.6936V177.832H93.0616L88.7736 184.424L87.6536 186.488H87.6056L87.7816 184.184V177.832H86.0216V189ZM97.1795 189H98.2995C99.0355 189 99.4675 188.712 99.9475 187.752L101.772 184.12H103.531V189H105.34V184.12H107.1L108.924 187.752C109.404 188.712 109.836 189 110.572 189H111.692V187.4H110.7L109.18 184.392C108.844 183.72 108.508 183.432 108.012 183.32V183.24C108.46 183.096 108.828 182.824 109.116 182.2L110.411 179.432H111.404V177.832H110.524C109.724 177.832 109.163 178.168 108.748 179.048L107.1 182.536H105.34V177.832H103.531V182.536H101.772L100.123 179.048C99.7075 178.168 99.1475 177.832 98.3475 177.832H97.4675V179.432H98.4595L99.7555 182.2C100.043 182.824 100.411 183.096 100.859 183.24V183.32C100.363 183.432 100.027 183.72 99.6915 184.392L98.1715 187.4H97.1795V189ZM121.335 189V187.4H115.991V184.136H120.839V182.536H115.991V179.432H121.335V177.832H114.183V189H121.335ZM130.971 189H132.779V177.832H130.971V182.536H125.915V177.832H124.107V189H125.915V184.136H130.971V189ZM135.969 189H137.601L141.889 182.408L143.009 180.344H143.057L142.881 182.648V189H144.641V177.832H143.009L138.721 184.424L137.601 186.488H137.553L137.729 184.184V177.832H135.969V189ZM154.983 189V187.4H149.639V184.136H154.487V182.536H149.639V179.432H154.983V177.832H147.831V189H154.983Z" fill="white"/>
<path d="M310.376 121H312.184V111.432H317V121H318.808V109.832H310.376V121ZM322.003 121H323.635L327.924 114.408L329.043 112.344H329.092L328.915 114.648V121H330.675V109.832H329.043L324.755 116.424L323.635 118.488H323.587L323.763 116.184V109.832H322.003V121ZM336.201 121H338.009V111.432H341.337V109.832H332.873V111.432H336.201V121ZM351.357 121L347.549 109.832H345.277L341.469 121H343.309L344.285 117.976H348.461L349.469 121H351.357ZM348.013 116.424H344.717L346.333 111.496H346.413L348.013 116.424ZM360.391 121H362.199V109.832H360.391V114.536H355.335V109.832H353.527V121H355.335V116.136H360.391V121ZM365.389 121H367.021L371.309 114.408L372.429 112.344H372.477L372.301 114.648V121H374.061V109.832H372.429L368.141 116.424L367.021 118.488H366.973L367.149 116.184V109.832H365.389V121ZM384.402 121V119.4H379.058V116.136H383.906V114.536H379.058V111.432H384.402V109.832H377.25V121H384.402Z" fill="white"/>
<path d="M140.376 377H142.184V367.432H147V377H148.808V365.832H140.376V377ZM156.195 377.192C158.131 377.192 159.476 376.216 160.227 374.6L158.771 373.72C158.372 374.808 157.523 375.576 156.195 375.576C154.483 375.576 153.427 374.328 153.427 372.264V370.568C153.427 368.504 154.483 367.256 156.195 367.256C157.491 367.256 158.275 367.944 158.66 369L160.179 368.168C159.427 366.504 158.131 365.64 156.195 365.64C153.283 365.64 151.507 367.672 151.507 371.416C151.507 375.16 153.283 377.192 156.195 377.192ZM162.584 377H164.216L168.504 370.408L169.624 368.344H169.672L169.496 370.648V377H171.256V365.832H169.624L165.336 372.424L164.216 374.488H164.168L164.344 372.184V365.832H162.584V377ZM173.406 377H175.406L178.078 372.552H178.126L180.83 377H182.958L179.294 371.272L182.814 365.832H180.814L178.238 369.992H178.206L175.662 365.832H173.534L177.022 371.288L173.406 377ZM189.081 377.192C191.993 377.192 193.897 375.176 193.897 371.416C193.897 367.656 191.993 365.64 189.081 365.64C186.169 365.64 184.265 367.656 184.265 371.416C184.265 375.176 186.169 377.192 189.081 377.192ZM189.081 375.576C187.353 375.576 186.201 374.328 186.201 372.296V370.536C186.201 368.504 187.353 367.256 189.081 367.256C190.809 367.256 191.961 368.504 191.961 370.536V372.296C191.961 374.328 190.809 375.576 189.081 375.576ZM195.033 377.048H195.721C196.633 377.048 197.241 376.808 197.785 376.28C198.697 375.368 199.273 373.64 199.273 369.32V367.432H202.937V377H204.745V365.832H197.529V369.112C197.529 373.112 197.113 374.536 196.265 375.4H195.033V377.048ZM212.258 377.192C215.17 377.192 217.074 375.176 217.074 371.416C217.074 367.656 215.17 365.64 212.258 365.64C209.346 365.64 207.442 367.656 207.442 371.416C207.442 375.176 209.346 377.192 212.258 377.192ZM212.258 375.576C210.53 375.576 209.378 374.328 209.378 372.296V370.536C209.378 368.504 210.53 367.256 212.258 367.256C213.986 367.256 215.138 368.504 215.138 370.536V372.296C215.138 374.328 213.986 375.576 212.258 375.576ZM219.769 377H221.577V367.432H226.057V365.832H219.769V377ZM228.287 377H229.919L234.207 370.408L235.327 368.344H235.375L235.199 370.648V377H236.959V365.832H235.327L231.039 372.424L229.919 374.488H229.871L230.047 372.184V365.832H228.287V377ZM239.428 377H240.516C241.22 377 241.652 376.76 242.164 375.864L244.052 372.504H246.084V377H247.892V365.832H243.076C241.06 365.832 239.844 367.096 239.844 369.176C239.844 370.952 240.804 372.136 242.676 372.248V372.328C242.132 372.456 241.892 372.712 241.588 373.256L240.404 375.4H239.428V377ZM243.22 370.968C242.308 370.968 241.748 370.472 241.748 369.576V368.808C241.748 367.912 242.308 367.416 243.22 367.416H246.084V370.968H243.22Z" fill="white"/>
<path d="M327.376 347H332.816C334.464 347 335.696 345.592 335.696 343.784C335.696 341.912 334.272 341.208 333.36 341.176V341.08C334.272 341 335.296 340.392 335.296 338.712C335.296 336.968 334.16 335.832 332.32 335.832H327.376V347ZM329.184 342.056H332.288C333.216 342.056 333.792 342.568 333.792 343.48V344.024C333.792 344.936 333.216 345.448 332.288 345.448H329.184V342.056ZM329.184 337.384H331.984C332.864 337.384 333.392 337.864 333.392 338.712V339.224C333.392 340.072 332.864 340.552 331.984 340.552H329.184V337.384ZM345.227 347H347.035V335.832H345.227V340.536H340.171V335.832H338.363V347H340.171V342.136H345.227V347ZM357.377 347V345.4H352.033V342.136H356.881V340.536H352.033V337.432H357.377V335.832H350.225V347H357.377ZM360.149 347H373.189V335.832H371.381V345.4H367.573V335.832H365.765V345.4H361.957V335.832H360.149V347ZM383.25 347H385.058V335.832H383.25V340.536H378.194V335.832H376.386V347H378.194V342.136H383.25V347ZM388.248 347H389.88L394.168 340.408L395.288 338.344H395.336L395.16 340.648V347H396.92V335.832H395.288L391 342.424L389.88 344.488H389.832L390.008 342.184V335.832H388.248V347ZM404.43 334.92C405.694 334.92 406.414 334.36 406.862 333.448L407.182 332.744L405.758 332.168L405.214 333.608C405.006 333.672 404.686 333.72 404.43 333.72C404.174 333.72 403.854 333.672 403.646 333.608L403.102 332.168L401.678 332.744L401.998 333.448C402.446 334.36 403.166 334.92 404.43 334.92ZM400.11 347H401.742L406.03 340.408L407.15 338.344H407.198L407.022 340.648V347H408.782V335.832H407.15L402.862 342.424L401.742 344.488H401.694L401.87 342.184V335.832H400.11V347ZM331.696 371.192C334.608 371.192 336.512 369.176 336.512 365.416C336.512 361.656 334.608 359.64 331.696 359.64C328.784 359.64 326.88 361.656 326.88 365.416C326.88 369.176 328.784 371.192 331.696 371.192ZM331.696 369.576C329.968 369.576 328.816 368.328 328.816 366.296V364.536C328.816 362.504 329.968 361.256 331.696 361.256C333.424 361.256 334.576 362.504 334.576 364.536V366.296C334.576 368.328 333.424 369.576 331.696 369.576ZM339.207 371H344.135C346.183 371 347.383 369.672 347.383 367.608C347.383 365.544 346.183 364.216 344.135 364.216H341.015V361.432H346.343V359.832H339.207V371ZM341.015 369.416V365.8H344.023C344.935 365.8 345.479 366.296 345.479 367.272V367.944C345.479 368.92 344.935 369.416 344.023 369.416H341.015ZM351.767 371V366.552H354.759C356.807 366.552 358.007 365.224 358.007 363.192C358.007 361.16 356.807 359.832 354.759 359.832H349.959V371H351.767ZM351.767 361.416H354.647C355.559 361.416 356.103 361.912 356.103 362.808V363.576C356.103 364.472 355.559 364.968 354.647 364.968H351.767V361.416ZM368.388 371L364.58 359.832H362.308L358.5 371H360.34L361.316 367.976H365.492L366.5 371H368.388ZM365.044 366.424H361.748L363.364 361.496H363.444L365.044 366.424ZM373.663 371.192C376.271 371.192 377.871 369.832 377.871 367.816C377.871 366.168 376.735 365.384 375.439 365.256V365.176C376.735 364.968 377.647 364.168 377.647 362.648C377.647 360.824 376.271 359.64 373.759 359.64C372.063 359.64 370.863 360.28 369.999 361.368L371.231 362.408C371.759 361.704 372.607 361.256 373.759 361.256C375.071 361.256 375.727 361.784 375.727 362.728V362.888C375.727 363.976 375.119 364.52 373.807 364.52H372.111V366.12H373.903C375.311 366.12 375.951 366.696 375.951 367.72V367.896C375.951 369.016 375.119 369.576 373.663 369.576C372.463 369.576 371.583 369.08 370.911 368.216L369.679 369.352C370.607 370.52 371.919 371.192 373.663 371.192Z" fill="white"/>
<path d="M96.8 155.432C103.064 155.432 105.908 150.644 105.908 142.436C105.908 134.228 103.064 129.44 96.8 129.44C90.536 129.44 87.692 134.228 87.692 142.436C87.692 150.644 90.536 155.432 96.8 155.432ZM96.8 151.976C93.308 151.976 92.012 149.024 92.012 144.632V140.24C92.012 135.848 93.308 132.896 96.8 132.896C100.292 132.896 101.588 135.848 101.588 140.24V144.632C101.588 149.024 100.292 151.976 96.8 151.976ZM128.366 155V151.616H122.246V129.872H116.054L109.646 136.82L112.13 139.052L117.962 132.824H118.25V151.616H111.194V155H128.366Z" fill="#F8F2EC"/>
<path d="M269.8 121.432C276.064 121.432 278.908 116.644 278.908 108.436C278.908 100.228 276.064 95.44 269.8 95.44C263.536 95.44 260.692 100.228 260.692 108.436C260.692 116.644 263.536 121.432 269.8 121.432ZM269.8 117.976C266.308 117.976 265.012 115.024 265.012 110.632V106.24C265.012 101.848 266.308 98.896 269.8 98.896C273.292 98.896 274.588 101.848 274.588 106.24V110.632C274.588 115.024 273.292 117.976 269.8 117.976ZM300.502 117.544H287.83L293.734 112.468C297.046 109.624 299.746 106.96 299.746 102.892C299.746 98.536 296.794 95.44 291.682 95.44C286.642 95.44 284.122 98.392 283.078 101.56L286.642 102.928C287.254 100.732 288.586 98.968 291.358 98.968C293.842 98.968 295.426 100.48 295.426 102.892V103.36C295.426 105.664 293.986 107.68 291.466 109.948L283.438 117.112V121H300.502V117.544Z" fill="#F8F2EC"/>
<path d="M99.8 377.432C106.064 377.432 108.908 372.644 108.908 364.436C108.908 356.228 106.064 351.44 99.8 351.44C93.536 351.44 90.692 356.228 90.692 364.436C90.692 372.644 93.536 377.432 99.8 377.432ZM99.8 373.976C96.308 373.976 95.012 371.024 95.012 366.632V362.24C95.012 357.848 96.308 354.896 99.8 354.896C103.292 354.896 104.588 357.848 104.588 362.24V366.632C104.588 371.024 103.292 373.976 99.8 373.976ZM127.802 377V372.104H131.222V368.9H127.802V351.872H122.474L112.286 368.612V372.104H123.95V377H127.802ZM123.698 355.58H123.95V368.9H115.742L123.698 355.58Z" fill="#F8F2EC"/>
<path d="M377.8 313.432C384.064 313.432 386.908 308.644 386.908 300.436C386.908 292.228 384.064 287.44 377.8 287.44C371.536 287.44 368.692 292.228 368.692 300.436C368.692 308.644 371.536 313.432 377.8 313.432ZM377.8 309.976C374.308 309.976 373.012 307.024 373.012 302.632V298.24C373.012 293.848 374.308 290.896 377.8 290.896C381.292 290.896 382.588 293.848 382.588 298.24V302.632C382.588 307.024 381.292 309.976 377.8 309.976ZM395.902 298.204V301.66H398.566C401.734 301.66 403.534 303.064 403.534 305.62V305.872C403.534 308.464 401.842 310.012 398.782 310.012C395.866 310.012 394.39 308.608 393.166 306.592L390.178 308.932C391.762 311.236 394.102 313.432 398.782 313.432C404.146 313.432 407.746 310.48 407.746 306.088C407.746 302.452 405.334 300.4 402.49 299.86V299.68C405.118 299.104 407.314 297.124 407.314 293.92C407.314 289.852 403.894 287.44 399.142 287.44C394.966 287.44 392.662 289.384 391.15 291.58L393.85 293.92C395.002 292.012 396.658 290.86 399.034 290.86C401.446 290.86 403.03 292.156 403.03 294.424V294.676C403.03 296.728 401.554 298.204 398.458 298.204H395.902Z" fill="#F8F2EC"/>
</svg>
