<svg width="2741" height="2730" viewBox="0 0 2741 2730" fill="none" xmlns="http://www.w3.org/2000/svg">
<path d="M1687.08 1533.71L0 1533.71C0.000882312 1724.65 195.92 2161.1 604.083 2417.52C1012.25 2673.94 1425.85 2625.78 1687.08 2532.09L1687.08 1533.71Z" fill="black" fill-opacity="0.1"/>
<path d="M1584.83 1554.16L0 1554.16C0.000828839 1733.09 184.046 2142.08 567.472 2382.36C950.897 2622.65 1339.44 2577.52 1584.83 2489.72L1584.83 1554.16Z" fill="#34847B"/>
<path d="M1625.73 1083.82L1625.73 2730C1811.22 2730 2235.2 2538.83 2484.29 2140.56C2733.38 1742.29 2686.6 1338.71 2595.58 1083.82L1625.73 1083.82Z" fill="black" fill-opacity="0.1"/>
<path d="M1584.83 1094.04L1584.83 2678.87C1763.75 2678.87 2172.74 2494.83 2413.03 2111.4C2653.32 1727.98 2608.19 1339.44 2520.39 1094.04L1584.83 1094.04Z" fill="#E95C7B"/>
<path d="M1104.27 1155.39L2740.22 1155.39C2740.22 970.987 2550.24 549.466 2154.45 301.818C1758.65 54.1706 1104.27 191.17 1104.27 191.17L1104.27 1155.39Z" fill="black" fill-opacity="0.1"/>
<path d="M1104.27 1098.07L2689.1 1098.07C2689.1 919.144 2505.06 510.154 2121.63 269.868C1738.2 29.5822 1349.66 74.71 1104.27 162.509L1104.27 1098.07Z" fill="#F3CF63"/>
<path d="M1166.51 1625.73L1166.51 40.8984C987.583 40.8993 578.593 224.945 338.307 608.37C98.0208 991.796 230.947 1625.73 230.947 1625.73L1166.51 1625.73Z" fill="black" fill-opacity="0.1"/>
<path d="M1105.16 1584.83L1105.16 0C926.232 0.000821018 517.242 184.046 276.956 567.472C36.6701 950.897 81.7979 1339.44 169.597 1584.83L1105.16 1584.83Z" fill="#895A8E"/>
<circle cx="1339.44" cy="1339.44" r="511.236" fill="black" fill-opacity="0.1"/>
<g filter="url(#filter0_d)">
<circle cx="1339.44" cy="1339.44" r="470.337" fill="white"/>
</g>
<circle cx="1334.32" cy="1334.33" r="414.101" fill="black" fill-opacity="0.1"/>
<circle cx="1334.33" cy="1334.33" r="393.652" fill="white"/>
<defs>
<filter id="filter0_d" x="865.104" y="869.1" width="948.674" height="948.674" filterUnits="userSpaceOnUse" color-interpolation-filters="sRGB">
<feFlood flood-opacity="0" result="BackgroundImageFix"/>
<feColorMatrix in="SourceAlpha" type="matrix" values="0 0 0 0 0 0 0 0 0 0 0 0 0 0 0 0 0 0 127 0"/>
<feOffset dy="4"/>
<feGaussianBlur stdDeviation="2"/>
<feColorMatrix type="matrix" values="0 0 0 0 0 0 0 0 0 0 0 0 0 0 0 0 0 0 0.25 0"/>
<feBlend mode="normal" in2="BackgroundImageFix" result="effect1_dropShadow"/>
<feBlend mode="normal" in="SourceGraphic" in2="effect1_dropShadow" result="shape"/>
</filter>
</defs>
</svg>
