<svg width="493" height="491" viewBox="0 0 493 491" fill="none" xmlns="http://www.w3.org/2000/svg">
<path d="M303.3 275.728L0 275.728C0.000158621 310.054 35.2222 388.519 108.601 434.617C181.98 480.716 256.338 472.058 303.3 455.214L303.3 275.728Z" fill="black" fill-opacity="0.1"/>
<path d="M284.918 279.404L0 279.404C0.000149007 311.571 33.0875 385.098 102.019 428.297C170.951 471.495 240.802 463.382 284.918 447.598V279.404Z" fill="#34847B"/>
<path d="M292.271 194.848L292.271 490.795C325.618 490.795 401.84 456.427 446.621 384.827C491.403 313.227 482.993 240.672 466.63 194.847L292.271 194.848Z" fill="black" fill-opacity="0.1"/>
<path d="M284.918 196.686L284.918 481.604C317.085 481.604 390.613 448.516 433.811 379.585C477.009 310.653 468.896 240.802 453.112 196.686L284.918 196.686Z" fill="#E95C7B"/>
<path d="M198.524 207.715L492.633 207.715C492.633 174.562 458.478 98.782 387.323 54.2603C316.168 9.73862 198.524 34.3681 198.524 34.3681L198.524 207.715Z" fill="black" fill-opacity="0.1"/>
<path d="M198.524 197.409L483.442 197.409C483.442 165.242 450.355 91.7141 381.423 48.5159C312.492 5.31766 242.64 13.4306 198.524 29.2149L198.524 197.409Z" fill="#F3CF63"/>
<path d="M209.713 292.271L209.713 7.35254C177.546 7.35269 104.018 40.4401 60.8201 109.372C17.6219 178.303 41.5192 292.271 41.5192 292.271L209.713 292.271Z" fill="black" fill-opacity="0.1"/>
<path d="M198.684 284.918L198.684 0C166.517 0.000147601 92.989 33.0875 49.7908 102.019C6.59257 170.951 14.7056 240.802 30.4899 284.918L198.684 284.918Z" fill="#895A8E"/>
<circle cx="240.802" cy="240.802" r="91.9091" fill="black" fill-opacity="0.1"/>
<circle cx="240.802" cy="240.802" r="84.0564" fill="white" stroke="black"/>
<circle cx="239.883" cy="239.883" r="74.4464" fill="black" fill-opacity="0.1"/>
<circle cx="239.882" cy="239.883" r="70.77" fill="white"/>
<path d="M201.148 233.084C203.308 233.084 204.244 231.968 204.244 230.456V229.664C204.244 228.152 203.308 227.036 201.148 227.036C198.988 227.036 198.052 228.152 198.052 229.664V230.456C198.052 231.968 198.988 233.084 201.148 233.084ZM198.484 254H203.812V235.1H198.484V254ZM219.737 254L222.905 240.392L224.165 234.884H224.273L225.497 240.392L228.665 254H234.893L240.725 228.872H235.541L233.129 240.932L231.797 247.916H231.689L230.141 240.932L227.333 228.872H221.357L218.585 240.932L217.001 247.916H216.893L215.561 240.932L213.185 228.872H207.785L213.473 254H219.737ZM251.65 254.432C255.106 254.432 257.878 253.244 259.57 251.3L256.906 247.988C255.718 249.212 254.494 250.256 252.262 250.256C249.418 250.256 248.086 248.672 248.086 246.188V245.9H260.218V244.316C260.218 239.204 257.698 234.668 251.434 234.668C245.746 234.668 242.578 238.556 242.578 244.532C242.578 250.58 245.854 254.432 251.65 254.432ZM251.542 238.592C253.666 238.592 254.71 240.14 254.71 242.444V242.768H248.086V242.48C248.086 240.14 249.418 238.592 251.542 238.592ZM272.125 254V249.86H269.749V227.36H264.421V248.816C264.421 252.164 266.077 254 269.713 254H272.125ZM283.182 254V249.86H280.806V227.36H275.478V248.816C275.478 252.164 277.134 254 280.77 254H283.182Z" fill="#4C4C4C"/>
<path d="M56.208 157.4H57.888V155H66.064V157.4H67.744V153.4H66.08V143.832H58.8V147.224C58.8 150.552 58.256 152.312 57.392 153.4H56.208V157.4ZM59.472 153.4V153.336C60.144 152.312 60.544 150.616 60.544 147.432V145.432H64.272V153.4H59.472ZM70.0347 155H75.4748C77.1228 155 78.3547 153.592 78.3547 151.784C78.3547 149.912 76.9307 149.208 76.0187 149.176V149.08C76.9307 149 77.9548 148.392 77.9548 146.712C77.9548 144.968 76.8188 143.832 74.9787 143.832H70.0347V155ZM71.8427 150.056H74.9467C75.8748 150.056 76.4507 150.568 76.4507 151.48V152.024C76.4507 152.936 75.8748 153.448 74.9467 153.448H71.8427V150.056ZM71.8427 145.384H74.6427C75.5227 145.384 76.0507 145.864 76.0507 146.712V147.224C76.0507 148.072 75.5227 148.552 74.6427 148.552H71.8427V145.384ZM81.0216 155H82.6536L86.9416 148.408L88.0616 146.344H88.1096L87.9336 148.648V155H89.6936V143.832H88.0616L83.7736 150.424L82.6536 152.488H82.6056L82.7816 150.184V143.832H81.0216V155ZM92.1795 155H93.2995C94.0355 155 94.4675 154.712 94.9475 153.752L96.7715 150.12H98.5315V155H100.34V150.12H102.1L103.924 153.752C104.404 154.712 104.836 155 105.572 155H106.692V153.4H105.7L104.18 150.392C103.844 149.72 103.508 149.432 103.012 149.32V149.24C103.46 149.096 103.828 148.824 104.116 148.2L105.411 145.432H106.404V143.832H105.524C104.724 143.832 104.163 144.168 103.748 145.048L102.1 148.536H100.34V143.832H98.5315V148.536H96.7715L95.1235 145.048C94.7075 144.168 94.1475 143.832 93.3475 143.832H92.4675V145.432H93.4595L94.7555 148.2C95.0435 148.824 95.4115 149.096 95.8595 149.24V149.32C95.3635 149.432 95.0275 149.72 94.6915 150.392L93.1715 153.4H92.1795V155ZM116.335 155V153.4H110.991V150.136H115.839V148.536H110.991V145.432H116.335V143.832H109.183V155H116.335ZM125.971 155H127.779V143.832H125.971V148.536H120.915V143.832H119.107V155H120.915V150.136H125.971V155ZM130.969 155H132.601L136.889 148.408L138.009 146.344H138.057L137.881 148.648V155H139.641V143.832H138.009L133.721 150.424L132.601 152.488H132.553L132.729 150.184V143.832H130.969V155ZM149.983 155V153.4H144.639V150.136H149.487V148.536H144.639V145.432H149.983V143.832H142.831V155H149.983Z" fill="white"/>
<path d="M57.204 181H58.786V172.628H63V181H64.582V171.228H57.204V181ZM70.1771 181.168C72.2071 181.168 73.5231 179.684 73.5231 177.36C73.5231 175.036 72.2071 173.552 70.1771 173.552C68.1471 173.552 66.8311 175.036 66.8311 177.36C66.8311 179.684 68.1471 181.168 70.1771 181.168ZM70.1771 179.908C69.1411 179.908 68.4411 179.264 68.4411 177.976V176.744C68.4411 175.456 69.1411 174.812 70.1771 174.812C71.2131 174.812 71.9131 175.456 71.9131 176.744V177.976C71.9131 179.264 71.2131 179.908 70.1771 179.908ZM74.6564 182.96H76.0424V181H81.5724V182.96H82.9584V179.754H81.7264V173.72H76.4064V175.806C76.4064 177.668 76.0844 178.914 75.5384 179.754H74.6564V182.96ZM77.1624 179.754C77.5404 179.04 77.8624 177.836 77.8624 175.89V174.966H80.2004V179.754H77.1624ZM84.0651 182.96H85.4511V181H90.9811V182.96H92.3671V179.754H91.1351V173.72H85.8151V175.806C85.8151 177.668 85.4931 178.914 84.9471 179.754H84.0651V182.96ZM86.5711 179.754C86.9491 179.04 87.2711 177.836 87.2711 175.89V174.966H89.6091V179.754H86.5711ZM97.0498 181.168C98.4078 181.168 99.4718 180.58 100.018 179.698L99.1218 178.816C98.7018 179.488 98.0998 179.908 97.2038 179.908C95.9718 179.908 95.2858 179.11 95.2858 177.99V177.752H100.284V177.178C100.284 175.162 99.1918 173.552 97.0498 173.552C94.9778 173.552 93.7038 175.036 93.7038 177.36C93.7038 179.684 94.9778 181.168 97.0498 181.168ZM97.0498 174.742C98.0578 174.742 98.6738 175.484 98.6738 176.604V176.744H95.2858V176.646C95.2858 175.526 95.9998 174.742 97.0498 174.742ZM102.413 183.8H103.939V179.796H104.009C104.317 180.65 105.087 181.168 106.053 181.168C107.887 181.168 108.951 179.754 108.951 177.36C108.951 174.966 107.887 173.552 106.053 173.552C105.087 173.552 104.317 174.056 104.009 174.924H103.939V173.72H102.413V183.8ZM105.591 179.852C104.667 179.852 103.939 179.348 103.939 178.606V176.114C103.939 175.372 104.667 174.868 105.591 174.868C106.641 174.868 107.341 175.61 107.341 176.73V177.99C107.341 179.11 106.641 179.852 105.591 179.852ZM110.428 181H111.296C111.926 181 112.36 180.748 112.71 179.992L113.662 177.892H114.796V181H116.322V177.892H117.456L118.408 179.992C118.758 180.748 119.192 181 119.822 181H120.69V179.754H119.878L119.08 177.99C118.884 177.556 118.576 177.346 118.226 177.276V177.22C118.576 177.122 118.856 176.87 119.052 176.464L119.738 174.966H120.55V173.72H119.808C119.15 173.72 118.716 174 118.394 174.672L117.456 176.66H116.322V173.72H114.796V176.66H113.662L112.724 174.672C112.402 174 111.968 173.72 111.31 173.72H110.568V174.966H111.38L112.066 176.464C112.262 176.87 112.542 177.122 112.892 177.22V177.276C112.542 177.346 112.234 177.556 112.038 177.99L111.24 179.754H110.428V181ZM122.762 181H124.148L126.668 177.276L127.536 175.722H127.592L127.452 177.444V181H128.95V173.72H127.564L125.044 177.444L124.176 178.998H124.12L124.26 177.276V173.72H122.762V181ZM133.081 181H134.607V174.966H136.931V173.72H130.757V174.966H133.081V181ZM141.469 181.168C142.827 181.168 143.891 180.58 144.437 179.698L143.541 178.816C143.121 179.488 142.519 179.908 141.623 179.908C140.391 179.908 139.705 179.11 139.705 177.99V177.752H144.703V177.178C144.703 175.162 143.611 173.552 141.469 173.552C139.397 173.552 138.123 175.036 138.123 177.36C138.123 179.684 139.397 181.168 141.469 181.168ZM141.469 174.742C142.477 174.742 143.093 175.484 143.093 176.604V176.744H139.705V176.646C139.705 175.526 140.419 174.742 141.469 174.742ZM60.648 200.8H62.174V197.23H62.23C62.58 197.832 63.084 198.168 63.798 198.168C65.408 198.168 66.178 197.006 66.178 194.36C66.178 191.728 65.408 190.552 63.798 190.552C63.084 190.552 62.58 190.902 62.23 191.504H62.174V188.06H60.648V191.504H60.592C60.242 190.902 59.738 190.552 59.024 190.552C57.414 190.552 56.644 191.728 56.644 194.36C56.644 197.006 57.414 198.168 59.024 198.168C59.738 198.168 60.242 197.832 60.592 197.23H60.648V200.8ZM59.542 196.964C58.632 196.964 58.24 196.404 58.24 195.018V193.702C58.24 192.33 58.632 191.756 59.542 191.756C60.312 191.756 60.662 192.092 60.662 192.666V196.054C60.662 196.642 60.312 196.964 59.542 196.964ZM63.28 196.964C62.51 196.964 62.16 196.642 62.16 196.054V192.666C62.16 192.092 62.51 191.756 63.28 191.756C64.19 191.756 64.582 192.33 64.582 193.702V195.018C64.582 196.404 64.19 196.964 63.28 196.964ZM68.3601 198H69.7461L72.2661 194.276L73.1341 192.722H73.1901L73.0501 194.444V198H74.5481V190.72H73.1621L70.6421 194.444L69.7741 195.998H69.7181L69.8581 194.276V190.72H68.3601V198ZM79.4353 198.168C81.3533 198.168 82.5433 197.286 82.5433 195.858C82.5433 194.948 81.9693 194.332 80.9193 194.206V194.136C81.8853 193.954 82.3753 193.45 82.3753 192.526C82.3753 191.336 81.4373 190.552 79.5053 190.552C78.0773 190.552 77.1533 191.112 76.5933 191.966L77.5453 192.792C77.9093 192.204 78.5393 191.812 79.4073 191.812C80.3733 191.812 80.8073 192.162 80.8073 192.694V192.848C80.8073 193.408 80.3873 193.702 79.6453 193.702H78.2313V194.822H79.7993C80.5413 194.822 80.9613 195.13 80.9613 195.732V195.9C80.9613 196.502 80.4713 196.908 79.4353 196.908C78.5533 196.908 77.8813 196.516 77.4333 195.858L76.4393 196.768C77.1113 197.664 77.9793 198.168 79.4353 198.168ZM84.7987 198H86.1847L88.7047 194.276L89.5727 192.722H89.6287L89.4887 194.444V198H90.9867V190.72H89.6007L87.0807 194.444L86.2127 195.998H86.1567L86.2967 194.276V190.72H84.7987V198ZM97.6659 198H99.1919V190.72H97.6659V193.562C97.6659 194.08 97.0499 194.374 96.0979 194.374C95.1599 194.374 94.7399 193.996 94.7399 193.184V190.72H93.2139V193.282C93.2139 194.892 94.0259 195.676 95.5659 195.676C96.5879 195.676 97.1899 195.312 97.5959 194.766H97.6659V198ZM104.668 198.168C106.026 198.168 107.09 197.58 107.636 196.698L106.74 195.816C106.32 196.488 105.718 196.908 104.822 196.908C103.59 196.908 102.904 196.11 102.904 194.99V194.752H107.902V194.178C107.902 192.162 106.81 190.552 104.668 190.552C102.596 190.552 101.322 192.036 101.322 194.36C101.322 196.684 102.596 198.168 104.668 198.168ZM104.668 191.742C105.676 191.742 106.292 192.484 106.292 193.604V193.744H102.904V193.646C102.904 192.526 103.618 191.742 104.668 191.742ZM112.845 198.168C114.245 198.168 115.239 197.51 115.715 196.32L114.553 195.704C114.245 196.432 113.727 196.908 112.845 196.908C111.725 196.908 111.151 196.138 111.151 195.018V193.716C111.151 192.596 111.725 191.826 112.845 191.826C113.671 191.826 114.189 192.26 114.399 192.932L115.659 192.344C115.225 191.266 114.301 190.552 112.845 190.552C110.745 190.552 109.541 192.036 109.541 194.36C109.541 196.684 110.745 198.168 112.845 198.168ZM117.608 198H119.134V194.892H120.422L121.626 197.048C122.018 197.748 122.424 198 123.04 198H123.908V196.754H123.11L122.13 194.99C121.864 194.5 121.598 194.346 121.234 194.276V194.22C121.584 194.122 121.752 193.982 122.032 193.506L122.956 191.966H123.768V190.72H123.026C122.396 190.72 122.046 190.93 121.626 191.63L120.422 193.66H119.134V190.72H117.608V198ZM128.669 198.168C130.699 198.168 132.015 196.684 132.015 194.36C132.015 192.036 130.699 190.552 128.669 190.552C126.639 190.552 125.323 192.036 125.323 194.36C125.323 196.684 126.639 198.168 128.669 198.168ZM128.669 196.908C127.633 196.908 126.933 196.264 126.933 194.976V193.744C126.933 192.456 127.633 191.812 128.669 191.812C129.705 191.812 130.405 192.456 130.405 193.744V194.976C130.405 196.264 129.705 196.908 128.669 196.908ZM137.012 198.168C138.37 198.168 139.434 197.58 139.98 196.698L139.084 195.816C138.664 196.488 138.062 196.908 137.166 196.908C135.934 196.908 135.248 196.11 135.248 194.99V194.752H140.246V194.178C140.246 192.162 139.154 190.552 137.012 190.552C134.94 190.552 133.666 192.036 133.666 194.36C133.666 196.684 134.94 198.168 137.012 198.168ZM137.012 191.742C138.02 191.742 138.636 192.484 138.636 193.604V193.744H135.248V193.646C135.248 192.526 135.962 191.742 137.012 191.742ZM59.36 215.168C61.278 215.168 62.468 214.286 62.468 212.858C62.468 211.948 61.894 211.332 60.844 211.206V211.136C61.81 210.954 62.3 210.45 62.3 209.526C62.3 208.336 61.362 207.552 59.43 207.552C58.002 207.552 57.078 208.112 56.518 208.966L57.47 209.792C57.834 209.204 58.464 208.812 59.332 208.812C60.298 208.812 60.732 209.162 60.732 209.694V209.848C60.732 210.408 60.312 210.702 59.57 210.702H58.156V211.822H59.724C60.466 211.822 60.886 212.13 60.886 212.732V212.9C60.886 213.502 60.396 213.908 59.36 213.908C58.478 213.908 57.806 213.516 57.358 212.858L56.364 213.768C57.036 214.664 57.904 215.168 59.36 215.168ZM63.7574 216.96H65.1434V215H70.6734V216.96H72.0594V213.754H70.8274V207.72H65.5074V209.806C65.5074 211.668 65.1854 212.914 64.6394 213.754H63.7574V216.96ZM66.2634 213.754C66.6414 213.04 66.9634 211.836 66.9634 209.89V208.966H69.3014V213.754H66.2634ZM76.7421 215.168C78.7721 215.168 80.0881 213.684 80.0881 211.36C80.0881 209.036 78.7721 207.552 76.7421 207.552C74.7121 207.552 73.3961 209.036 73.3961 211.36C73.3961 213.684 74.7121 215.168 76.7421 215.168ZM76.7421 213.908C75.7061 213.908 75.0061 213.264 75.0061 211.976V210.744C75.0061 209.456 75.7061 208.812 76.7421 208.812C77.7781 208.812 78.4781 209.456 78.4781 210.744V211.976C78.4781 213.264 77.7781 213.908 76.7421 213.908ZM82.2284 217.8H83.7544V213.796H83.8244C84.1324 214.65 84.9024 215.168 85.8684 215.168C87.7024 215.168 88.7664 213.754 88.7664 211.36C88.7664 208.966 87.7024 207.552 85.8684 207.552C84.9024 207.552 84.1324 208.056 83.8244 208.924H83.7544V207.72H82.2284V217.8ZM85.4064 213.852C84.4824 213.852 83.7544 213.348 83.7544 212.606V210.114C83.7544 209.372 84.4824 208.868 85.4064 208.868C86.4564 208.868 87.1564 209.61 87.1564 210.73V211.99C87.1564 213.11 86.4564 213.852 85.4064 213.852ZM93.8096 215.168C95.8396 215.168 97.1556 213.684 97.1556 211.36C97.1556 209.036 95.8396 207.552 93.8096 207.552C91.7796 207.552 90.4636 209.036 90.4636 211.36C90.4636 213.684 91.7796 215.168 93.8096 215.168ZM93.8096 213.908C92.7736 213.908 92.0736 213.264 92.0736 211.976V210.744C92.0736 209.456 92.7736 208.812 93.8096 208.812C94.8456 208.812 95.5456 209.456 95.5456 210.744V211.976C95.5456 213.264 94.8456 213.908 93.8096 213.908ZM99.2959 215H103.286C104.602 215 105.4 214.076 105.4 212.858C105.4 211.92 104.826 211.276 103.664 211.192V211.122C104.644 210.996 105.134 210.478 105.134 209.568C105.134 208.462 104.42 207.72 103.174 207.72H99.2959V215ZM100.794 213.838V211.794H102.936C103.482 211.794 103.818 212.102 103.818 212.634V213.012C103.818 213.544 103.482 213.838 102.936 213.838H100.794ZM100.794 210.744V208.882H102.74C103.258 208.882 103.552 209.162 103.552 209.638V209.988C103.552 210.464 103.258 210.744 102.74 210.744H100.794ZM107.666 215H111.208C112.664 215 113.644 214.118 113.644 212.578C113.644 211.052 112.65 210.156 111.194 210.156H109.192V207.72H107.666V215ZM109.192 213.81V211.346H110.914C111.628 211.346 112.062 211.626 112.062 212.284V212.858C112.062 213.516 111.628 213.81 110.914 213.81H109.192ZM118.495 215.168C119.853 215.168 120.917 214.58 121.463 213.698L120.567 212.816C120.147 213.488 119.545 213.908 118.649 213.908C117.417 213.908 116.731 213.11 116.731 211.99V211.752H121.729V211.178C121.729 209.162 120.637 207.552 118.495 207.552C116.423 207.552 115.149 209.036 115.149 211.36C115.149 213.684 116.423 215.168 118.495 215.168ZM118.495 208.742C119.503 208.742 120.119 209.484 120.119 210.604V210.744H116.731V210.646C116.731 209.526 117.445 208.742 118.495 208.742Z" fill="white"/>
<path d="M276.204 101H277.786V92.628H282V101H283.582V91.228H276.204V101ZM286.321 101H287.707L290.227 97.276L291.095 95.722H291.151L291.011 97.444V101H292.509V93.72H291.123L288.603 97.444L287.735 98.998H287.679L287.819 97.276V93.72H286.321V101ZM296.64 101H298.166V94.966H300.49V93.72H294.316V94.966H296.64V101ZM308.36 101V99.754H307.59V96.1C307.59 94.476 306.54 93.552 304.664 93.552C303.25 93.552 302.396 94.154 301.92 94.966L302.83 95.792C303.194 95.218 303.712 94.798 304.566 94.798C305.588 94.798 306.064 95.316 306.064 96.198V96.814H304.748C302.718 96.814 301.64 97.556 301.64 98.998C301.64 100.314 302.494 101.168 303.992 101.168C305.056 101.168 305.84 100.692 306.12 99.782H306.19C306.288 100.496 306.708 101 307.506 101H308.36ZM304.426 100.006C303.67 100.006 303.194 99.67 303.194 99.026V98.774C303.194 98.144 303.712 97.794 304.776 97.794H306.064V98.844C306.064 99.558 305.364 100.006 304.426 100.006ZM313.403 92.754C314.509 92.754 315.139 92.264 315.531 91.466L315.811 90.85L314.565 90.346L314.089 91.606C313.907 91.662 313.627 91.704 313.403 91.704C313.179 91.704 312.899 91.662 312.717 91.606L312.241 90.346L310.995 90.85L311.275 91.466C311.667 92.264 312.297 92.754 313.403 92.754ZM310.295 101H311.681L314.201 97.276L315.069 95.722H315.125L314.985 97.444V101H316.483V93.72H315.097L312.577 97.444L311.709 98.998H311.653L311.793 97.276V93.72H310.295V101ZM320.615 101H322.141V94.966H324.465V93.72H318.291V94.966H320.615V101ZM329.002 101.168C330.36 101.168 331.424 100.58 331.97 99.698L331.074 98.816C330.654 99.488 330.052 99.908 329.156 99.908C327.924 99.908 327.238 99.11 327.238 97.99V97.752H332.236V97.178C332.236 95.162 331.144 93.552 329.002 93.552C326.93 93.552 325.656 95.036 325.656 97.36C325.656 99.684 326.93 101.168 329.002 101.168ZM329.002 94.742C330.01 94.742 330.626 95.484 330.626 96.604V96.744H327.238V96.646C327.238 95.526 327.952 94.742 329.002 94.742ZM337.179 101.168C338.579 101.168 339.573 100.51 340.049 99.32L338.887 98.704C338.579 99.432 338.061 99.908 337.179 99.908C336.059 99.908 335.485 99.138 335.485 98.018V96.716C335.485 95.596 336.059 94.826 337.179 94.826C338.005 94.826 338.523 95.26 338.733 95.932L339.993 95.344C339.559 94.266 338.635 93.552 337.179 93.552C335.079 93.552 333.875 95.036 333.875 97.36C333.875 99.684 335.079 101.168 337.179 101.168ZM341.942 101H345.484C346.94 101 347.92 100.118 347.92 98.578C347.92 97.052 346.926 96.156 345.47 96.156H343.468V93.72H341.942V101ZM343.468 99.81V97.346H345.19C345.904 97.346 346.338 97.626 346.338 98.284V98.858C346.338 99.516 345.904 99.81 345.19 99.81H343.468ZM276.092 118H277.618V111.966H280.544V118H282.07V110.72H276.092V118ZM284.694 120.8H286.22V116.796H286.29C286.598 117.65 287.368 118.168 288.334 118.168C290.168 118.168 291.232 116.754 291.232 114.36C291.232 111.966 290.168 110.552 288.334 110.552C287.368 110.552 286.598 111.056 286.29 111.924H286.22V110.72H284.694V120.8ZM287.872 116.852C286.948 116.852 286.22 116.348 286.22 115.606V113.114C286.22 112.372 286.948 111.868 287.872 111.868C288.922 111.868 289.622 112.61 289.622 113.73V114.99C289.622 116.11 288.922 116.852 287.872 116.852ZM299.607 118V116.754H298.837V113.1C298.837 111.476 297.787 110.552 295.911 110.552C294.497 110.552 293.643 111.154 293.167 111.966L294.077 112.792C294.441 112.218 294.959 111.798 295.813 111.798C296.835 111.798 297.311 112.316 297.311 113.198V113.814H295.995C293.965 113.814 292.887 114.556 292.887 115.998C292.887 117.314 293.741 118.168 295.239 118.168C296.303 118.168 297.087 117.692 297.367 116.782H297.437C297.535 117.496 297.955 118 298.753 118H299.607ZM295.673 117.006C294.917 117.006 294.441 116.67 294.441 116.026V115.774C294.441 115.144 294.959 114.794 296.023 114.794H297.311V115.844C297.311 116.558 296.611 117.006 295.673 117.006ZM301.543 118H305.533C306.849 118 307.647 117.076 307.647 115.858C307.647 114.92 307.073 114.276 305.911 114.192V114.122C306.891 113.996 307.381 113.478 307.381 112.568C307.381 111.462 306.667 110.72 305.421 110.72H301.543V118ZM303.041 116.838V114.794H305.183C305.729 114.794 306.065 115.102 306.065 115.634V116.012C306.065 116.544 305.729 116.838 305.183 116.838H303.041ZM303.041 113.744V111.882H304.987C305.505 111.882 305.799 112.162 305.799 112.638V112.988C305.799 113.464 305.505 113.744 304.987 113.744H303.041ZM309.913 118H311.299L313.819 114.276L314.687 112.722H314.743L314.603 114.444V118H316.101V110.72H314.715L312.195 114.444L311.327 115.998H311.271L311.411 114.276V110.72H309.913V118ZM317.782 118.042H318.3C319.014 118.042 319.49 117.888 319.882 117.496C320.456 116.922 320.89 115.662 320.89 112.96V111.966H323.186V118H324.712V110.72H319.42V112.89C319.42 115.13 319.168 116.152 318.734 116.754H317.782V118.042ZM327.349 118H330.891C332.347 118 333.327 117.118 333.327 115.578C333.327 114.052 332.333 113.156 330.877 113.156H328.875V110.72H327.349V118ZM328.875 116.81V114.346H330.597C331.311 114.346 331.745 114.626 331.745 115.284V115.858C331.745 116.516 331.311 116.81 330.597 116.81H328.875ZM335.322 118H336.848V114.892H339.984V118H341.51V110.72H339.984V113.646H336.848V110.72H335.322V118ZM346.986 118.168C349.016 118.168 350.332 116.684 350.332 114.36C350.332 112.036 349.016 110.552 346.986 110.552C344.956 110.552 343.64 112.036 343.64 114.36C343.64 116.684 344.956 118.168 346.986 118.168ZM346.986 116.908C345.95 116.908 345.25 116.264 345.25 114.976V113.744C345.25 112.456 345.95 111.812 346.986 111.812C348.022 111.812 348.722 112.456 348.722 113.744V114.976C348.722 116.264 348.022 116.908 346.986 116.908Z" fill="white"/>
<path d="M122.872 378.168C124.566 378.168 125.742 377.314 126.4 375.9L125.126 375.13C124.776 376.082 124.034 376.754 122.872 376.754C121.374 376.754 120.45 375.662 120.45 373.856V372.372C120.45 370.566 121.374 369.474 122.872 369.474C124.006 369.474 124.692 370.076 125.028 371L126.358 370.272C125.7 368.816 124.566 368.06 122.872 368.06C120.324 368.06 118.77 369.838 118.77 373.114C118.77 376.39 120.324 378.168 122.872 378.168ZM131.261 378.168C133.291 378.168 134.607 376.684 134.607 374.36C134.607 372.036 133.291 370.552 131.261 370.552C129.231 370.552 127.915 372.036 127.915 374.36C127.915 376.684 129.231 378.168 131.261 378.168ZM131.261 376.908C130.225 376.908 129.525 376.264 129.525 374.976V373.744C129.525 372.456 130.225 371.812 131.261 371.812C132.297 371.812 132.997 372.456 132.997 373.744V374.976C132.997 376.264 132.297 376.908 131.261 376.908ZM135.744 378H137.368L139.118 375.354H139.16L140.84 378H142.604L140.07 374.304L142.562 370.72H140.938L139.258 373.254H139.216L137.578 370.72H135.814L138.306 374.318L135.744 378ZM144.42 380.8H145.946V376.796H146.016C146.324 377.65 147.094 378.168 148.06 378.168C149.894 378.168 150.958 376.754 150.958 374.36C150.958 371.966 149.894 370.552 148.06 370.552C147.094 370.552 146.324 371.056 146.016 371.924H145.946V370.72H144.42V380.8ZM147.598 376.852C146.674 376.852 145.946 376.348 145.946 375.606V373.114C145.946 372.372 146.674 371.868 147.598 371.868C148.648 371.868 149.348 372.61 149.348 373.73V374.99C149.348 376.11 148.648 376.852 147.598 376.852ZM159.333 378V376.754H158.563V373.1C158.563 371.476 157.513 370.552 155.637 370.552C154.223 370.552 153.369 371.154 152.893 371.966L153.803 372.792C154.167 372.218 154.685 371.798 155.539 371.798C156.561 371.798 157.037 372.316 157.037 373.198V373.814H155.721C153.691 373.814 152.613 374.556 152.613 375.998C152.613 377.314 153.467 378.168 154.965 378.168C156.029 378.168 156.813 377.692 157.093 376.782H157.163C157.261 377.496 157.681 378 158.479 378H159.333ZM155.399 377.006C154.643 377.006 154.167 376.67 154.167 376.026V375.774C154.167 375.144 154.685 374.794 155.749 374.794H157.037V375.844C157.037 376.558 156.337 377.006 155.399 377.006ZM161.269 378H162.795V374.892H165.931V378H167.457V370.72H165.931V373.646H162.795V370.72H161.269V378ZM169.558 378H170.426C171.042 378 171.476 377.748 171.826 376.978L172.596 375.312H174.15V378H175.676V370.72H172.134C170.692 370.72 169.698 371.616 169.698 373.058C169.698 374.262 170.398 374.99 171.588 375.116V375.172C171.238 375.214 170.944 375.438 170.748 375.858L170.342 376.754H169.558V378ZM172.428 374.15C171.714 374.15 171.28 373.842 171.28 373.226V372.862C171.28 372.204 171.714 371.91 172.428 371.91H174.15V374.15H172.428ZM181.403 369.754C182.509 369.754 183.139 369.264 183.531 368.466L183.811 367.85L182.565 367.346L182.089 368.606C181.907 368.662 181.627 368.704 181.403 368.704C181.179 368.704 180.899 368.662 180.717 368.606L180.241 367.346L178.995 367.85L179.275 368.466C179.667 369.264 180.297 369.754 181.403 369.754ZM178.295 378H179.681L182.201 374.276L183.069 372.722H183.125L182.985 374.444V378H184.483V370.72H183.097L180.577 374.444L179.709 375.998H179.653L179.793 374.276V370.72H178.295V378ZM188.614 378H190.14V371.966H192.464V370.72H186.29V371.966H188.614V378ZM197.002 378.168C198.36 378.168 199.424 377.58 199.97 376.698L199.074 375.816C198.654 376.488 198.052 376.908 197.156 376.908C195.924 376.908 195.238 376.11 195.238 374.99V374.752H200.236V374.178C200.236 372.162 199.144 370.552 197.002 370.552C194.93 370.552 193.656 372.036 193.656 374.36C193.656 376.684 194.93 378.168 197.002 378.168ZM197.002 371.742C198.01 371.742 198.626 372.484 198.626 373.604V373.744H195.238V373.646C195.238 372.526 195.952 371.742 197.002 371.742ZM119.092 395H120.618V388.966H123.544V395H125.07V387.72H119.092V395ZM130.508 395.168C131.908 395.168 132.902 394.51 133.378 393.32L132.216 392.704C131.908 393.432 131.39 393.908 130.508 393.908C129.388 393.908 128.814 393.138 128.814 392.018V390.716C128.814 389.596 129.388 388.826 130.508 388.826C131.334 388.826 131.852 389.26 132.062 389.932L133.322 389.344C132.888 388.266 131.964 387.552 130.508 387.552C128.408 387.552 127.204 389.036 127.204 391.36C127.204 393.684 128.408 395.168 130.508 395.168ZM135.271 395H136.657L139.177 391.276L140.045 389.722H140.101L139.961 391.444V395H141.459V387.72H140.073L137.553 391.444L136.685 392.998H136.629L136.769 391.276V387.72H135.271V395ZM143.266 395H144.89L146.64 392.354H146.682L148.362 395H150.126L147.592 391.304L150.084 387.72H148.46L146.78 390.254H146.738L145.1 387.72H143.336L145.828 391.318L143.266 395ZM154.606 395.168C156.636 395.168 157.952 393.684 157.952 391.36C157.952 389.036 156.636 387.552 154.606 387.552C152.576 387.552 151.26 389.036 151.26 391.36C151.26 393.684 152.576 395.168 154.606 395.168ZM154.606 393.908C153.57 393.908 152.87 393.264 152.87 391.976V390.744C152.87 389.456 153.57 388.812 154.606 388.812C155.642 388.812 156.342 389.456 156.342 390.744V391.976C156.342 393.264 155.642 393.908 154.606 393.908ZM159.073 395.042H159.591C160.305 395.042 160.781 394.888 161.173 394.496C161.747 393.922 162.181 392.662 162.181 389.96V388.966H164.477V395H166.003V387.72H160.711V389.89C160.711 392.13 160.459 393.152 160.025 393.754H159.073V395.042ZM171.496 395.168C173.526 395.168 174.842 393.684 174.842 391.36C174.842 389.036 173.526 387.552 171.496 387.552C169.466 387.552 168.15 389.036 168.15 391.36C168.15 393.684 169.466 395.168 171.496 395.168ZM171.496 393.908C170.46 393.908 169.76 393.264 169.76 391.976V390.744C169.76 389.456 170.46 388.812 171.496 388.812C172.532 388.812 173.232 389.456 173.232 390.744V391.976C173.232 393.264 172.532 393.908 171.496 393.908ZM176.983 395H178.509V388.966H181.729V387.72H176.983V395ZM183.575 395H184.961L187.481 391.276L188.349 389.722H188.405L188.265 391.444V395H189.763V387.72H188.377L185.857 391.444L184.989 392.998H184.933L185.073 391.276V387.72H183.575V395ZM196.442 395H197.968V387.72H196.442V390.562C196.442 391.08 195.826 391.374 194.874 391.374C193.936 391.374 193.516 390.996 193.516 390.184V387.72H191.99V390.282C191.99 391.892 192.802 392.676 194.342 392.676C195.364 392.676 195.966 392.312 196.372 391.766H196.442V395ZM203.444 395.168C204.802 395.168 205.866 394.58 206.412 393.698L205.516 392.816C205.096 393.488 204.494 393.908 203.598 393.908C202.366 393.908 201.68 393.11 201.68 391.99V391.752H206.678V391.178C206.678 389.162 205.586 387.552 203.444 387.552C201.372 387.552 200.098 389.036 200.098 391.36C200.098 393.684 201.372 395.168 203.444 395.168ZM203.444 388.742C204.452 388.742 205.068 389.484 205.068 390.604V390.744H201.68V390.646C201.68 389.526 202.394 388.742 203.444 388.742ZM211.621 395.168C213.021 395.168 214.015 394.51 214.491 393.32L213.329 392.704C213.021 393.432 212.503 393.908 211.621 393.908C210.501 393.908 209.927 393.138 209.927 392.018V390.716C209.927 389.596 210.501 388.826 211.621 388.826C212.447 388.826 212.965 389.26 213.175 389.932L214.435 389.344C214.001 388.266 213.077 387.552 211.621 387.552C209.521 387.552 208.317 389.036 208.317 391.36C208.317 393.684 209.521 395.168 211.621 395.168ZM216.384 395H217.91V391.892H219.198L220.402 394.048C220.794 394.748 221.2 395 221.816 395H222.684V393.754H221.886L220.906 391.99C220.64 391.5 220.374 391.346 220.01 391.276V391.22C220.36 391.122 220.528 390.982 220.808 390.506L221.732 388.966H222.544V387.72H221.802C221.172 387.72 220.822 387.93 220.402 388.63L219.198 390.66H217.91V387.72H216.384V395ZM227.445 395.168C229.475 395.168 230.791 393.684 230.791 391.36C230.791 389.036 229.475 387.552 227.445 387.552C225.415 387.552 224.099 389.036 224.099 391.36C224.099 393.684 225.415 395.168 227.445 395.168ZM227.445 393.908C226.409 393.908 225.709 393.264 225.709 391.976V390.744C225.709 389.456 226.409 388.812 227.445 388.812C228.481 388.812 229.181 389.456 229.181 390.744V391.976C229.181 393.264 228.481 393.908 227.445 393.908ZM235.788 395.168C237.146 395.168 238.21 394.58 238.756 393.698L237.86 392.816C237.44 393.488 236.838 393.908 235.942 393.908C234.71 393.908 234.024 393.11 234.024 391.99V391.752H239.022V391.178C239.022 389.162 237.93 387.552 235.788 387.552C233.716 387.552 232.442 389.036 232.442 391.36C232.442 393.684 233.716 395.168 235.788 395.168ZM235.788 388.742C236.796 388.742 237.412 389.484 237.412 390.604V390.744H234.024V390.646C234.024 389.526 234.738 388.742 235.788 388.742ZM121.36 412.168C123.278 412.168 124.468 411.286 124.468 409.858C124.468 408.948 123.894 408.332 122.844 408.206V408.136C123.81 407.954 124.3 407.45 124.3 406.526C124.3 405.336 123.362 404.552 121.43 404.552C120.002 404.552 119.078 405.112 118.518 405.966L119.47 406.792C119.834 406.204 120.464 405.812 121.332 405.812C122.298 405.812 122.732 406.162 122.732 406.694V406.848C122.732 407.408 122.312 407.702 121.57 407.702H120.156V408.822H121.724C122.466 408.822 122.886 409.13 122.886 409.732V409.9C122.886 410.502 122.396 410.908 121.36 410.908C120.478 410.908 119.806 410.516 119.358 409.858L118.364 410.768C119.036 411.664 119.904 412.168 121.36 412.168ZM125.757 413.96H127.143V412H132.673V413.96H134.059V410.754H132.827V404.72H127.507V406.806C127.507 408.668 127.185 409.914 126.639 410.754H125.757V413.96ZM128.263 410.754C128.641 410.04 128.963 408.836 128.963 406.89V405.966H131.301V410.754H128.263ZM138.742 412.168C140.772 412.168 142.088 410.684 142.088 408.36C142.088 406.036 140.772 404.552 138.742 404.552C136.712 404.552 135.396 406.036 135.396 408.36C135.396 410.684 136.712 412.168 138.742 412.168ZM138.742 410.908C137.706 410.908 137.006 410.264 137.006 408.976V407.744C137.006 406.456 137.706 405.812 138.742 405.812C139.778 405.812 140.478 406.456 140.478 407.744V408.976C140.478 410.264 139.778 410.908 138.742 410.908ZM144.228 414.8H145.754V410.796H145.824C146.132 411.65 146.902 412.168 147.868 412.168C149.702 412.168 150.766 410.754 150.766 408.36C150.766 405.966 149.702 404.552 147.868 404.552C146.902 404.552 146.132 405.056 145.824 405.924H145.754V404.72H144.228V414.8ZM147.406 410.852C146.482 410.852 145.754 410.348 145.754 409.606V407.114C145.754 406.372 146.482 405.868 147.406 405.868C148.456 405.868 149.156 406.61 149.156 407.73V408.99C149.156 410.11 148.456 410.852 147.406 410.852ZM155.81 412.168C157.84 412.168 159.156 410.684 159.156 408.36C159.156 406.036 157.84 404.552 155.81 404.552C153.78 404.552 152.464 406.036 152.464 408.36C152.464 410.684 153.78 412.168 155.81 412.168ZM155.81 410.908C154.774 410.908 154.074 410.264 154.074 408.976V407.744C154.074 406.456 154.774 405.812 155.81 405.812C156.846 405.812 157.546 406.456 157.546 407.744V408.976C157.546 410.264 156.846 410.908 155.81 410.908ZM161.296 412H165.286C166.602 412 167.4 411.076 167.4 409.858C167.4 408.92 166.826 408.276 165.664 408.192V408.122C166.644 407.996 167.134 407.478 167.134 406.568C167.134 405.462 166.42 404.72 165.174 404.72H161.296V412ZM162.794 410.838V408.794H164.936C165.482 408.794 165.818 409.102 165.818 409.634V410.012C165.818 410.544 165.482 410.838 164.936 410.838H162.794ZM162.794 407.744V405.882H164.74C165.258 405.882 165.552 406.162 165.552 406.638V406.988C165.552 407.464 165.258 407.744 164.74 407.744H162.794ZM169.666 412H173.208C174.664 412 175.644 411.118 175.644 409.578C175.644 408.052 174.65 407.156 173.194 407.156H171.192V404.72H169.666V412ZM171.192 410.81V408.346H172.914C173.628 408.346 174.062 408.626 174.062 409.284V409.858C174.062 410.516 173.628 410.81 172.914 410.81H171.192ZM180.495 412.168C181.853 412.168 182.917 411.58 183.463 410.698L182.567 409.816C182.147 410.488 181.545 410.908 180.649 410.908C179.417 410.908 178.731 410.11 178.731 408.99V408.752H183.729V408.178C183.729 406.162 182.637 404.552 180.495 404.552C178.423 404.552 177.149 406.036 177.149 408.36C177.149 410.684 178.423 412.168 180.495 412.168ZM180.495 405.742C181.503 405.742 182.119 406.484 182.119 407.604V407.744H178.731V407.646C178.731 406.526 179.445 405.742 180.495 405.742Z" fill="white"/>
<path d="M326.204 346H330.516C332.308 346 333.358 344.838 333.358 343.032C333.358 341.226 332.308 340.064 330.516 340.064H327.786V337.628H332.448V336.228H326.204V346ZM327.786 344.614V341.45H330.418C331.216 341.45 331.692 341.884 331.692 342.738V343.326C331.692 344.18 331.216 344.614 330.418 344.614H327.786ZM338.429 343.004L337.967 344.586H337.897L337.477 343.004L336.021 338.72H334.495L337.141 346.322L336.721 347.554H335.489V348.8H336.371C337.505 348.8 337.939 348.422 338.289 347.442L341.355 338.72H339.885L338.429 343.004ZM341.811 347.96H343.197V346H348.727V347.96H350.113V344.754H348.881V338.72H343.561V340.806C343.561 342.668 343.239 343.914 342.693 344.754H341.811V347.96ZM344.317 344.754C344.695 344.04 345.017 342.836 345.017 340.89V339.966H347.355V344.754H344.317ZM351.939 346H355.481C356.937 346 357.917 345.118 357.917 343.578C357.917 342.052 356.923 341.156 355.467 341.156H353.465V338.72H351.939V346ZM353.465 344.81V342.346H355.187C355.901 342.346 356.335 342.626 356.335 343.284V343.858C356.335 344.516 355.901 344.81 355.187 344.81H353.465ZM360.714 346H362.24V339.966H364.564V338.72H358.39V339.966H360.714V346ZM369.101 346.168C370.459 346.168 371.523 345.58 372.069 344.698L371.173 343.816C370.753 344.488 370.151 344.908 369.255 344.908C368.023 344.908 367.337 344.11 367.337 342.99V342.752H372.335V342.178C372.335 340.162 371.243 338.552 369.101 338.552C367.029 338.552 365.755 340.036 365.755 342.36C365.755 344.684 367.029 346.168 369.101 346.168ZM369.101 339.742C370.109 339.742 370.725 340.484 370.725 341.604V341.744H367.337V341.646C367.337 340.526 368.051 339.742 369.101 339.742ZM328.906 363.168C330.306 363.168 331.3 362.51 331.776 361.32L330.614 360.704C330.306 361.432 329.788 361.908 328.906 361.908C327.786 361.908 327.212 361.138 327.212 360.018V358.716C327.212 357.596 327.786 356.826 328.906 356.826C329.732 356.826 330.25 357.26 330.46 357.932L331.72 357.344C331.286 356.266 330.362 355.552 328.906 355.552C326.806 355.552 325.602 357.036 325.602 359.36C325.602 361.684 326.806 363.168 328.906 363.168ZM335.263 363H336.789V356.966H339.113V355.72H332.939V356.966H335.263V363ZM340.931 363H342.317L344.837 359.276L345.705 357.722H345.761L345.621 359.444V363H347.119V355.72H345.733L343.213 359.444L342.345 360.998H342.289L342.429 359.276V355.72H340.931V363ZM348.8 363.042H349.318C350.032 363.042 350.508 362.888 350.9 362.496C351.474 361.922 351.908 360.662 351.908 357.96V356.966H354.204V363H355.73V355.72H350.438V357.89C350.438 360.13 350.186 361.152 349.752 361.754H348.8V363.042ZM358.368 363H361.91C363.366 363 364.346 362.118 364.346 360.578C364.346 359.052 363.352 358.156 361.896 358.156H359.894V355.72H358.368V363ZM359.894 361.81V359.346H361.616C362.33 359.346 362.764 359.626 362.764 360.284V360.858C362.764 361.516 362.33 361.81 361.616 361.81H359.894ZM366.341 363H367.867V359.892H371.003V363H372.529V355.72H371.003V358.646H367.867V355.72H366.341V363ZM375.148 363H378.55C379.992 363 380.986 362.118 380.986 360.578C380.986 359.052 379.978 358.156 378.536 358.156H376.674V355.72H375.148V363ZM376.674 361.81V359.346H378.256C378.97 359.346 379.404 359.626 379.404 360.284V360.858C379.404 361.516 378.97 361.81 378.256 361.81H376.674ZM382.078 363H383.604V355.72H382.078V363ZM386.225 363H387.723V357.596H387.779L388.255 358.492L390.103 361.572L391.951 358.492L392.427 357.596H392.483V363H393.981V355.72H392.217L390.159 359.164H390.131L388.073 355.72H386.225V363ZM397.542 361.054C396.856 361.054 396.52 361.446 396.52 362.006V362.23C396.52 362.678 396.758 363.028 397.248 363.126C397.052 363.812 396.66 364.33 396.058 364.932H397.192C398.032 364.246 398.564 363.14 398.564 362.23V362.006C398.564 361.446 398.228 361.054 397.542 361.054ZM328.906 380.168C330.306 380.168 331.3 379.51 331.776 378.32L330.614 377.704C330.306 378.432 329.788 378.908 328.906 378.908C327.786 378.908 327.212 378.138 327.212 377.018V375.716C327.212 374.596 327.786 373.826 328.906 373.826C329.732 373.826 330.25 374.26 330.46 374.932L331.72 374.344C331.286 373.266 330.362 372.552 328.906 372.552C326.806 372.552 325.602 374.036 325.602 376.36C325.602 378.684 326.806 380.168 328.906 380.168ZM336.443 380.168C338.473 380.168 339.789 378.684 339.789 376.36C339.789 374.036 338.473 372.552 336.443 372.552C334.413 372.552 333.097 374.036 333.097 376.36C333.097 378.684 334.413 380.168 336.443 380.168ZM336.443 378.908C335.407 378.908 334.707 378.264 334.707 376.976V375.744C334.707 374.456 335.407 373.812 336.443 373.812C337.479 373.812 338.179 374.456 338.179 375.744V376.976C338.179 378.264 337.479 378.908 336.443 378.908ZM340.926 380H342.55L344.3 377.354H344.342L346.022 380H347.786L345.252 376.304L347.744 372.72H346.12L344.44 375.254H344.398L342.76 372.72H340.996L343.488 376.318L340.926 380ZM349.601 382.8H351.127V378.796H351.197C351.505 379.65 352.275 380.168 353.241 380.168C355.075 380.168 356.139 378.754 356.139 376.36C356.139 373.966 355.075 372.552 353.241 372.552C352.275 372.552 351.505 373.056 351.197 373.924H351.127V372.72H349.601V382.8ZM352.779 378.852C351.855 378.852 351.127 378.348 351.127 377.606V375.114C351.127 374.372 351.855 373.868 352.779 373.868C353.829 373.868 354.529 374.61 354.529 375.73V376.99C354.529 378.11 353.829 378.852 352.779 378.852ZM364.515 380V378.754H363.745V375.1C363.745 373.476 362.695 372.552 360.819 372.552C359.405 372.552 358.551 373.154 358.075 373.966L358.985 374.792C359.349 374.218 359.867 373.798 360.721 373.798C361.743 373.798 362.219 374.316 362.219 375.198V375.814H360.903C358.873 375.814 357.795 376.556 357.795 377.998C357.795 379.314 358.649 380.168 360.147 380.168C361.211 380.168 361.995 379.692 362.275 378.782H362.345C362.443 379.496 362.863 380 363.661 380H364.515ZM360.581 379.006C359.825 379.006 359.349 378.67 359.349 378.026V377.774C359.349 377.144 359.867 376.794 360.931 376.794H362.219V377.844C362.219 378.558 361.519 379.006 360.581 379.006ZM366.45 380H367.976V376.892H371.112V380H372.638V372.72H371.112V375.646H367.976V372.72H366.45V380ZM374.739 380H375.607C376.223 380 376.657 379.748 377.007 378.978L377.777 377.312H379.331V380H380.857V372.72H377.315C375.873 372.72 374.879 373.616 374.879 375.058C374.879 376.262 375.579 376.99 376.769 377.116V377.172C376.419 377.214 376.125 377.438 375.929 377.858L375.523 378.754H374.739V380ZM377.609 376.15C376.895 376.15 376.461 375.842 376.461 375.226V374.862C376.461 374.204 376.895 373.91 377.609 373.91H379.331V376.15H377.609ZM386.585 371.754C387.691 371.754 388.321 371.264 388.713 370.466L388.993 369.85L387.747 369.346L387.271 370.606C387.089 370.662 386.809 370.704 386.585 370.704C386.361 370.704 386.081 370.662 385.899 370.606L385.423 369.346L384.177 369.85L384.457 370.466C384.849 371.264 385.479 371.754 386.585 371.754ZM383.477 380H384.863L387.383 376.276L388.251 374.722H388.307L388.167 376.444V380H389.665V372.72H388.279L385.759 376.444L384.891 377.998H384.835L384.975 376.276V372.72H383.477V380ZM393.796 380H395.322V373.966H397.646V372.72H391.472V373.966H393.796V380ZM402.183 380.168C403.541 380.168 404.605 379.58 405.151 378.698L404.255 377.816C403.835 378.488 403.233 378.908 402.337 378.908C401.105 378.908 400.419 378.11 400.419 376.99V376.752H405.417V376.178C405.417 374.162 404.325 372.552 402.183 372.552C400.111 372.552 398.837 374.036 398.837 376.36C398.837 378.684 400.111 380.168 402.183 380.168ZM402.183 373.742C403.191 373.742 403.807 374.484 403.807 375.604V375.744H400.419V375.646C400.419 374.526 401.133 373.742 402.183 373.742ZM326.092 397H327.618V393.892H328.906L330.11 396.048C330.502 396.748 330.908 397 331.524 397H332.392V395.754H331.594L330.614 393.99C330.348 393.5 330.082 393.346 329.718 393.276V393.22C330.068 393.122 330.236 392.982 330.516 392.506L331.44 390.966H332.252V389.72H331.51C330.88 389.72 330.53 389.93 330.11 390.63L328.906 392.66H327.618V389.72H326.092V397ZM334.489 399.8H336.015V395.796H336.085C336.393 396.65 337.163 397.168 338.129 397.168C339.963 397.168 341.027 395.754 341.027 393.36C341.027 390.966 339.963 389.552 338.129 389.552C337.163 389.552 336.393 390.056 336.085 390.924H336.015V389.72H334.489V399.8ZM337.667 395.852C336.743 395.852 336.015 395.348 336.015 394.606V392.114C336.015 391.372 336.743 390.868 337.667 390.868C338.717 390.868 339.417 391.61 339.417 392.73V393.99C339.417 395.11 338.717 395.852 337.667 395.852ZM349.402 397V395.754H348.632V392.1C348.632 390.476 347.582 389.552 345.706 389.552C344.292 389.552 343.438 390.154 342.962 390.966L343.872 391.792C344.236 391.218 344.754 390.798 345.608 390.798C346.63 390.798 347.106 391.316 347.106 392.198V392.814H345.79C343.76 392.814 342.682 393.556 342.682 394.998C342.682 396.314 343.536 397.168 345.034 397.168C346.098 397.168 346.882 396.692 347.162 395.782H347.232C347.33 396.496 347.75 397 348.548 397H349.402ZM345.468 396.006C344.712 396.006 344.236 395.67 344.236 395.026V394.774C344.236 394.144 344.754 393.794 345.818 393.794H347.106V394.844C347.106 395.558 346.406 396.006 345.468 396.006ZM354.152 397.168C355.552 397.168 356.546 396.51 357.022 395.32L355.86 394.704C355.552 395.432 355.034 395.908 354.152 395.908C353.032 395.908 352.458 395.138 352.458 394.018V392.716C352.458 391.596 353.032 390.826 354.152 390.826C354.978 390.826 355.496 391.26 355.706 391.932L356.966 391.344C356.532 390.266 355.608 389.552 354.152 389.552C352.052 389.552 350.848 391.036 350.848 393.36C350.848 395.684 352.052 397.168 354.152 397.168ZM361.688 397.168C363.718 397.168 365.034 395.684 365.034 393.36C365.034 391.036 363.718 389.552 361.688 389.552C359.658 389.552 358.342 391.036 358.342 393.36C358.342 395.684 359.658 397.168 361.688 397.168ZM361.688 395.908C360.652 395.908 359.952 395.264 359.952 393.976V392.744C359.952 391.456 360.652 390.812 361.688 390.812C362.724 390.812 363.424 391.456 363.424 392.744V393.976C363.424 395.264 362.724 395.908 361.688 395.908ZM368.55 397H370.076V390.966H372.4V389.72H366.226V390.966H368.55V397ZM377.406 394.004L376.944 395.586H376.874L376.454 394.004L374.998 389.72H373.472L376.118 397.322L375.698 398.554H374.466V399.8H375.348C376.482 399.8 376.916 399.422 377.266 398.442L380.332 389.72H378.862L377.406 394.004Z" fill="white"/>
<path d="M276.376 75H278.184V65.432H283V75H284.808V63.832H276.376V75ZM288.003 75H289.635L293.924 68.408L295.043 66.344H295.092L294.915 68.648V75H296.675V63.832H295.043L290.755 70.424L289.635 72.488H289.587L289.763 70.184V63.832H288.003V75ZM302.201 75H304.009V65.432H307.337V63.832H298.873V65.432H302.201V75ZM317.357 75L313.549 63.832H311.277L307.469 75H309.309L310.285 71.976H314.461L315.469 75H317.357ZM314.013 70.424H310.717L312.333 65.496H312.413L314.013 70.424ZM326.391 75H328.199V63.832H326.391V68.536H321.335V63.832H319.527V75H321.335V70.136H326.391V75ZM331.389 75H333.021L337.309 68.408L338.429 66.344H338.477L338.301 68.648V75H340.061V63.832H338.429L334.141 70.424L333.021 72.488H332.973L333.149 70.184V63.832H331.389V75ZM350.402 75V73.4H345.058V70.136H349.906V68.536H345.058V65.432H350.402V63.832H343.25V75H350.402Z" fill="white"/>
<path d="M119.376 352H121.184V342.432H126V352H127.808V340.832H119.376V352ZM135.195 352.192C137.131 352.192 138.476 351.216 139.227 349.6L137.771 348.72C137.372 349.808 136.523 350.576 135.195 350.576C133.483 350.576 132.427 349.328 132.427 347.264V345.568C132.427 343.504 133.483 342.256 135.195 342.256C136.491 342.256 137.275 342.944 137.66 344L139.179 343.168C138.427 341.504 137.131 340.64 135.195 340.64C132.283 340.64 130.507 342.672 130.507 346.416C130.507 350.16 132.283 352.192 135.195 352.192ZM141.584 352H143.216L147.504 345.408L148.624 343.344H148.672L148.496 345.648V352H150.256V340.832H148.624L144.336 347.424L143.216 349.488H143.168L143.344 347.184V340.832H141.584V352ZM152.406 352H154.406L157.078 347.552H157.126L159.83 352H161.958L158.294 346.272L161.814 340.832H159.814L157.238 344.992H157.206L154.662 340.832H152.534L156.022 346.288L152.406 352ZM168.081 352.192C170.993 352.192 172.897 350.176 172.897 346.416C172.897 342.656 170.993 340.64 168.081 340.64C165.169 340.64 163.265 342.656 163.265 346.416C163.265 350.176 165.169 352.192 168.081 352.192ZM168.081 350.576C166.353 350.576 165.201 349.328 165.201 347.296V345.536C165.201 343.504 166.353 342.256 168.081 342.256C169.809 342.256 170.961 343.504 170.961 345.536V347.296C170.961 349.328 169.809 350.576 168.081 350.576ZM174.033 352.048H174.721C175.633 352.048 176.241 351.808 176.785 351.28C177.697 350.368 178.273 348.64 178.273 344.32V342.432H181.937V352H183.745V340.832H176.529V344.112C176.529 348.112 176.113 349.536 175.265 350.4H174.033V352.048ZM191.258 352.192C194.17 352.192 196.074 350.176 196.074 346.416C196.074 342.656 194.17 340.64 191.258 340.64C188.346 340.64 186.442 342.656 186.442 346.416C186.442 350.176 188.346 352.192 191.258 352.192ZM191.258 350.576C189.53 350.576 188.378 349.328 188.378 347.296V345.536C188.378 343.504 189.53 342.256 191.258 342.256C192.986 342.256 194.138 343.504 194.138 345.536V347.296C194.138 349.328 192.986 350.576 191.258 350.576ZM198.769 352H200.577V342.432H205.057V340.832H198.769V352ZM207.287 352H208.919L213.207 345.408L214.327 343.344H214.375L214.199 345.648V352H215.959V340.832H214.327L210.039 347.424L208.919 349.488H208.871L209.047 347.184V340.832H207.287V352ZM218.428 352H219.516C220.22 352 220.652 351.76 221.164 350.864L223.052 347.504H225.084V352H226.892V340.832H222.076C220.06 340.832 218.844 342.096 218.844 344.176C218.844 345.952 219.804 347.136 221.676 347.248V347.328C221.132 347.456 220.892 347.712 220.588 348.256L219.404 350.4H218.428V352ZM222.22 345.968C221.308 345.968 220.748 345.472 220.748 344.576V343.808C220.748 342.912 221.308 342.416 222.22 342.416H225.084V345.968H222.22Z" fill="white"/>
<path d="M327.376 296H332.816C334.464 296 335.696 294.592 335.696 292.784C335.696 290.912 334.272 290.208 333.36 290.176V290.08C334.272 290 335.296 289.392 335.296 287.712C335.296 285.968 334.16 284.832 332.32 284.832H327.376V296ZM329.184 291.056H332.288C333.216 291.056 333.792 291.568 333.792 292.48V293.024C333.792 293.936 333.216 294.448 332.288 294.448H329.184V291.056ZM329.184 286.384H331.984C332.864 286.384 333.392 286.864 333.392 287.712V288.224C333.392 289.072 332.864 289.552 331.984 289.552H329.184V286.384ZM345.227 296H347.035V284.832H345.227V289.536H340.171V284.832H338.363V296H340.171V291.136H345.227V296ZM357.377 296V294.4H352.033V291.136H356.881V289.536H352.033V286.432H357.377V284.832H350.225V296H357.377ZM360.149 296H373.189V284.832H371.381V294.4H367.573V284.832H365.765V294.4H361.957V284.832H360.149V296ZM383.25 296H385.058V284.832H383.25V289.536H378.194V284.832H376.386V296H378.194V291.136H383.25V296ZM388.248 296H389.88L394.168 289.408L395.288 287.344H395.336L395.16 289.648V296H396.92V284.832H395.288L391 291.424L389.88 293.488H389.832L390.008 291.184V284.832H388.248V296ZM404.43 283.92C405.694 283.92 406.414 283.36 406.862 282.448L407.182 281.744L405.758 281.168L405.214 282.608C405.006 282.672 404.686 282.72 404.43 282.72C404.174 282.72 403.854 282.672 403.646 282.608L403.102 281.168L401.678 281.744L401.998 282.448C402.446 283.36 403.166 283.92 404.43 283.92ZM400.11 296H401.742L406.03 289.408L407.15 287.344H407.198L407.022 289.648V296H408.782V284.832H407.15L402.862 291.424L401.742 293.488H401.694L401.87 291.184V284.832H400.11V296ZM331.696 320.192C334.608 320.192 336.512 318.176 336.512 314.416C336.512 310.656 334.608 308.64 331.696 308.64C328.784 308.64 326.88 310.656 326.88 314.416C326.88 318.176 328.784 320.192 331.696 320.192ZM331.696 318.576C329.968 318.576 328.816 317.328 328.816 315.296V313.536C328.816 311.504 329.968 310.256 331.696 310.256C333.424 310.256 334.576 311.504 334.576 313.536V315.296C334.576 317.328 333.424 318.576 331.696 318.576ZM339.207 320H344.135C346.183 320 347.383 318.672 347.383 316.608C347.383 314.544 346.183 313.216 344.135 313.216H341.015V310.432H346.343V308.832H339.207V320ZM341.015 318.416V314.8H344.023C344.935 314.8 345.479 315.296 345.479 316.272V316.944C345.479 317.92 344.935 318.416 344.023 318.416H341.015ZM351.767 320V315.552H354.759C356.807 315.552 358.007 314.224 358.007 312.192C358.007 310.16 356.807 308.832 354.759 308.832H349.959V320H351.767ZM351.767 310.416H354.647C355.559 310.416 356.103 310.912 356.103 311.808V312.576C356.103 313.472 355.559 313.968 354.647 313.968H351.767V310.416ZM368.388 320L364.58 308.832H362.308L358.5 320H360.34L361.316 316.976H365.492L366.5 320H368.388ZM365.044 315.424H361.748L363.364 310.496H363.444L365.044 315.424ZM373.663 320.192C376.271 320.192 377.871 318.832 377.871 316.816C377.871 315.168 376.735 314.384 375.439 314.256V314.176C376.735 313.968 377.647 313.168 377.647 311.648C377.647 309.824 376.271 308.64 373.759 308.64C372.063 308.64 370.863 309.28 369.999 310.368L371.231 311.408C371.759 310.704 372.607 310.256 373.759 310.256C375.071 310.256 375.727 310.784 375.727 311.728V311.888C375.727 312.976 375.119 313.52 373.807 313.52H372.111V315.12H373.903C375.311 315.12 375.951 315.696 375.951 316.72V316.896C375.951 318.016 375.119 318.576 373.663 318.576C372.463 318.576 371.583 318.08 370.911 317.216L369.679 318.352C370.607 319.52 371.919 320.192 373.663 320.192Z" fill="white"/>
<path d="M96.8 121.432C103.064 121.432 105.908 116.644 105.908 108.436C105.908 100.228 103.064 95.44 96.8 95.44C90.536 95.44 87.692 100.228 87.692 108.436C87.692 116.644 90.536 121.432 96.8 121.432ZM96.8 117.976C93.308 117.976 92.012 115.024 92.012 110.632V106.24C92.012 101.848 93.308 98.896 96.8 98.896C100.292 98.896 101.588 101.848 101.588 106.24V110.632C101.588 115.024 100.292 117.976 96.8 117.976ZM128.366 121V117.616H122.246V95.872H116.054L109.646 102.82L112.13 105.052L117.962 98.824H118.25V117.616H111.194V121H128.366Z" fill="#F8F2EC"/>
<path d="M235.8 83.432C242.064 83.432 244.908 78.644 244.908 70.436C244.908 62.228 242.064 57.44 235.8 57.44C229.536 57.44 226.692 62.228 226.692 70.436C226.692 78.644 229.536 83.432 235.8 83.432ZM235.8 79.976C232.308 79.976 231.012 77.024 231.012 72.632V68.24C231.012 63.848 232.308 60.896 235.8 60.896C239.292 60.896 240.588 63.848 240.588 68.24V72.632C240.588 77.024 239.292 79.976 235.8 79.976ZM266.502 79.544H253.83L259.734 74.468C263.046 71.624 265.746 68.96 265.746 64.892C265.746 60.536 262.794 57.44 257.682 57.44C252.642 57.44 250.122 60.392 249.078 63.56L252.642 64.928C253.254 62.732 254.586 60.968 257.358 60.968C259.842 60.968 261.426 62.48 261.426 64.892V65.36C261.426 67.664 259.986 69.68 257.466 71.948L249.438 79.112V83H266.502V79.544Z" fill="#F8F2EC"/>
<path d="M78.8 360.432C85.064 360.432 87.908 355.644 87.908 347.436C87.908 339.228 85.064 334.44 78.8 334.44C72.536 334.44 69.692 339.228 69.692 347.436C69.692 355.644 72.536 360.432 78.8 360.432ZM78.8 356.976C75.308 356.976 74.012 354.024 74.012 349.632V345.24C74.012 340.848 75.308 337.896 78.8 337.896C82.292 337.896 83.588 340.848 83.588 345.24V349.632C83.588 354.024 82.292 356.976 78.8 356.976ZM106.802 360V355.104H110.222V351.9H106.802V334.872H101.474L91.2859 351.612V355.104H102.95V360H106.802ZM102.698 338.58H102.95V351.9H94.7419L102.698 338.58Z" fill="#F8F2EC"/>
<path d="M377.8 262.432C384.064 262.432 386.908 257.644 386.908 249.436C386.908 241.228 384.064 236.44 377.8 236.44C371.536 236.44 368.692 241.228 368.692 249.436C368.692 257.644 371.536 262.432 377.8 262.432ZM377.8 258.976C374.308 258.976 373.012 256.024 373.012 251.632V247.24C373.012 242.848 374.308 239.896 377.8 239.896C381.292 239.896 382.588 242.848 382.588 247.24V251.632C382.588 256.024 381.292 258.976 377.8 258.976ZM395.902 247.204V250.66H398.566C401.734 250.66 403.534 252.064 403.534 254.62V254.872C403.534 257.464 401.842 259.012 398.782 259.012C395.866 259.012 394.39 257.608 393.166 255.592L390.178 257.932C391.762 260.236 394.102 262.432 398.782 262.432C404.146 262.432 407.746 259.48 407.746 255.088C407.746 251.452 405.334 249.4 402.49 248.86V248.68C405.118 248.104 407.314 246.124 407.314 242.92C407.314 238.852 403.894 236.44 399.142 236.44C394.966 236.44 392.662 238.384 391.15 240.58L393.85 242.92C395.002 241.012 396.658 239.86 399.034 239.86C401.446 239.86 403.03 241.156 403.03 243.424V243.676C403.03 245.728 401.554 247.204 398.458 247.204H395.902Z" fill="#F8F2EC"/>
</svg>
