<svg width="249" height="248" viewBox="0 0 249 248" fill="none" xmlns="http://www.w3.org/2000/svg">
<path d="M153.258 139.326L0 139.326C8.01515e-05 156.671 17.7979 196.319 54.8764 219.613C91.9549 242.907 129.528 238.532 153.258 230.021L153.258 139.326Z" fill="black" fill-opacity="0.1"/>
<path d="M143.97 141.184L0 141.184C7.52938e-05 157.438 16.7192 194.591 51.5506 216.42C86.3819 238.248 121.678 234.148 143.97 226.172V141.184Z" fill="#34847B"/>
<path d="M147.686 98.4569L147.686 248C164.535 248 203.051 230.634 225.679 194.454C248.307 158.274 244.057 121.612 235.789 98.4569L147.686 98.4569Z" fill="black" fill-opacity="0.1"/>
<path d="M143.971 99.3859L143.971 243.356C160.225 243.356 197.378 226.637 219.207 191.805C241.035 156.974 236.935 121.678 228.959 99.3859L143.971 99.3859Z" fill="#E95C7B"/>
<path d="M100.315 104.959L248.93 104.959C248.93 88.2069 231.671 49.9149 195.716 27.418C159.761 4.92103 100.315 17.3664 100.315 17.3664L100.315 104.959Z" fill="black" fill-opacity="0.1"/>
<path d="M100.315 99.751L244.285 99.751C244.285 83.4969 227.566 46.3432 192.735 24.515C157.903 2.68682 122.607 6.78634 100.315 14.7622L100.315 99.751Z" fill="#F3CF63"/>
<path d="M105.969 147.685L105.969 3.71533C89.7147 3.71541 52.561 20.4345 30.7328 55.2659C8.90461 90.0972 20.98 147.685 20.98 147.685L105.969 147.685Z" fill="black" fill-opacity="0.1"/>
<path d="M100.395 143.97L100.395 0C84.1404 7.45833e-05 46.9867 16.7192 25.1586 51.5506C3.33038 86.3819 7.4299 121.678 15.4057 143.97L100.395 143.97Z" fill="#895A8E"/>
<circle cx="121.678" cy="121.678" r="46.4419" fill="black" fill-opacity="0.1"/>
<circle cx="121.678" cy="121.678" r="42.2266" fill="white" stroke="black"/>
<circle cx="121.214" cy="121.214" r="37.618" fill="black" fill-opacity="0.1"/>
<circle cx="121.213" cy="121.213" r="35.7603" fill="white"/>
<path d="M101.574 119.542C102.654 119.542 103.122 118.984 103.122 118.228V117.832C103.122 117.076 102.654 116.518 101.574 116.518C100.494 116.518 100.026 117.076 100.026 117.832V118.228C100.026 118.984 100.494 119.542 101.574 119.542ZM100.242 130H102.906V120.55H100.242V130ZM111.088 130L112.672 123.196L113.302 120.442H113.356L113.968 123.196L115.552 130H118.666L121.582 117.436H118.99L117.784 123.466L117.118 126.958H117.064L116.29 123.466L114.886 117.436H111.898L110.512 123.466L109.72 126.958H109.666L109 123.466L107.812 117.436H105.112L107.956 130H111.088ZM127.265 130.216C128.993 130.216 130.379 129.622 131.225 128.65L129.893 126.994C129.299 127.606 128.687 128.128 127.571 128.128C126.149 128.128 125.483 127.336 125.483 126.094V125.95H131.549V125.158C131.549 122.602 130.289 120.334 127.157 120.334C124.313 120.334 122.729 122.278 122.729 125.266C122.729 128.29 124.367 130.216 127.265 130.216ZM127.211 122.296C128.273 122.296 128.795 123.07 128.795 124.222V124.384H125.483V124.24C125.483 123.07 126.149 122.296 127.211 122.296ZM137.723 130V127.93H136.535V116.68H133.871V127.408C133.871 129.082 134.699 130 136.517 130H137.723ZM143.471 130V127.93H142.283V116.68H139.619V127.408C139.619 129.082 140.447 130 142.265 130H143.471Z" fill="#4C4C4C"/>
<path d="M22.156 77.8H23.416V76H29.548V77.8H30.808V74.8H29.56V67.624H24.1V70.168C24.1 72.664 23.692 73.984 23.044 74.8H22.156V77.8ZM24.604 74.8V74.752C25.108 73.984 25.408 72.712 25.408 70.324V68.824H28.204V74.8H24.604ZM32.6361 76H36.7161C37.9521 76 38.8761 74.944 38.8761 73.588C38.8761 72.184 37.8081 71.656 37.1241 71.632V71.56C37.8081 71.5 38.5761 71.044 38.5761 69.784C38.5761 68.476 37.7241 67.624 36.3441 67.624H32.6361V76ZM33.9921 72.292H36.3201C37.0161 72.292 37.4481 72.676 37.4481 73.36V73.768C37.4481 74.452 37.0161 74.836 36.3201 74.836H33.9921V72.292ZM33.9921 68.788H36.0921C36.7521 68.788 37.1481 69.148 37.1481 69.784V70.168C37.1481 70.804 36.7521 71.164 36.0921 71.164H33.9921V68.788ZM40.9862 76H42.2102L45.4262 71.056L46.2662 69.508H46.3022L46.1702 71.236V76H47.4902V67.624H46.2662L43.0502 72.568L42.2102 74.116H42.1742L42.3062 72.388V67.624H40.9862V76ZM49.4646 76H50.3046C50.8566 76 51.1806 75.784 51.5406 75.064L52.9086 72.34H54.2286V76H55.5846V72.34H56.9046L58.2726 75.064C58.6326 75.784 58.9566 76 59.5086 76H60.3486V74.8H59.6046L58.4646 72.544C58.2126 72.04 57.9606 71.824 57.5886 71.74V71.68C57.9246 71.572 58.2006 71.368 58.4166 70.9L59.3886 68.824H60.1326V67.624H59.4726C58.8726 67.624 58.4526 67.876 58.1406 68.536L56.9046 71.152H55.5846V67.624H54.2286V71.152H52.9086L51.6726 68.536C51.3606 67.876 50.9406 67.624 50.3406 67.624H49.6806V68.824H50.4246L51.3966 70.9C51.6126 71.368 51.8886 71.572 52.2246 71.68V71.74C51.8526 71.824 51.6006 72.04 51.3486 72.544L50.2086 74.8H49.4646V76ZM67.6912 76V74.8H63.6832V72.352H67.3192V71.152H63.6832V68.824H67.6912V67.624H62.3272V76H67.6912ZM75.0284 76H76.3844V67.624H75.0284V71.152H71.2364V67.624H69.8804V76H71.2364V72.352H75.0284V76ZM78.8868 76H80.1108L83.3268 71.056L84.1668 69.508H84.2028L84.0708 71.236V76H85.3908V67.624H84.1668L80.9508 72.568L80.1108 74.116H80.0748L80.2068 72.388V67.624H78.8868V76ZM93.2573 76V74.8H89.2493V72.352H92.8853V71.152H89.2493V68.824H93.2573V67.624H87.8933V76H93.2573Z" fill="white"/>
<path d="M144.032 58H145.388V50.824H149V58H150.356V49.624H144.032V58ZM152.863 58H154.087L157.303 53.056L158.143 51.508H158.179L158.047 53.236V58H159.367V49.624H158.143L154.927 54.568L154.087 56.116H154.051L154.183 54.388V49.624H152.863V58ZM163.621 58H164.977V50.824H167.473V49.624H161.125V50.824H163.621V58ZM175.098 58L172.242 49.624H170.538L167.682 58H169.062L169.794 55.732H172.926L173.682 58H175.098ZM172.59 54.568H170.118L171.33 50.872H171.39L172.59 54.568ZM181.983 58H183.339V49.624H181.983V53.152H178.191V49.624H176.835V58H178.191V54.352H181.983V58ZM185.841 58H187.065L190.281 53.056L191.121 51.508H191.157L191.025 53.236V58H192.345V49.624H191.121L187.905 54.568L187.065 56.116H187.029L187.161 54.388V49.624H185.841V58ZM200.212 58V56.8H196.204V54.352H199.84V53.152H196.204V50.824H200.212V49.624H194.848V58H200.212Z" fill="white"/>
<path d="M42.032 191H43.388V183.824H47V191H48.356V182.624H42.032V191ZM54.0066 191.144C55.4586 191.144 56.4666 190.412 57.0306 189.2L55.9386 188.54C55.6386 189.356 55.0026 189.932 54.0066 189.932C52.7226 189.932 51.9306 188.996 51.9306 187.448V186.176C51.9306 184.628 52.7226 183.692 54.0066 183.692C54.9786 183.692 55.5666 184.208 55.8546 185L56.9946 184.376C56.4306 183.128 55.4586 182.48 54.0066 182.48C51.8226 182.48 50.4906 184.004 50.4906 186.812C50.4906 189.62 51.8226 191.144 54.0066 191.144ZM58.9081 191H60.1321L63.3481 186.056L64.1881 184.508H64.2241L64.0921 186.236V191H65.4121V182.624H64.1881L60.9721 187.568L60.1321 189.116H60.0961L60.2281 187.388V182.624H58.9081V191ZM67.1345 191H68.6345L70.6385 187.664H70.6745L72.7025 191H74.2985L71.5505 186.704L74.1905 182.624H72.6905L70.7585 185.744H70.7345L68.8265 182.624H67.2305L69.8465 186.716L67.1345 191ZM79.0007 191.144C81.1847 191.144 82.6127 189.632 82.6127 186.812C82.6127 183.992 81.1847 182.48 79.0007 182.48C76.8167 182.48 75.3887 183.992 75.3887 186.812C75.3887 189.632 76.8167 191.144 79.0007 191.144ZM79.0007 189.932C77.7047 189.932 76.8407 188.996 76.8407 187.472V186.152C76.8407 184.628 77.7047 183.692 79.0007 183.692C80.2967 183.692 81.1607 184.628 81.1607 186.152V187.472C81.1607 188.996 80.2967 189.932 79.0007 189.932ZM83.575 191.036H84.091C84.775 191.036 85.231 190.856 85.639 190.46C86.323 189.776 86.755 188.48 86.755 185.24V183.824H89.503V191H90.859V182.624H85.447V185.084C85.447 188.084 85.135 189.152 84.499 189.8H83.575V191.036ZM96.6034 191.144C98.7874 191.144 100.215 189.632 100.215 186.812C100.215 183.992 98.7874 182.48 96.6034 182.48C94.4194 182.48 92.9914 183.992 92.9914 186.812C92.9914 189.632 94.4194 191.144 96.6034 191.144ZM96.6034 189.932C95.3074 189.932 94.4434 188.996 94.4434 187.472V186.152C94.4434 184.628 95.3074 183.692 96.6034 183.692C97.8994 183.692 98.7634 184.628 98.7634 186.152V187.472C98.7634 188.996 97.8994 189.932 96.6034 189.932ZM102.346 191H103.702V183.824H107.062V182.624H102.346V191ZM108.845 191H110.069L113.285 186.056L114.125 184.508H114.161L114.029 186.236V191H115.349V182.624H114.125L110.909 187.568L110.069 189.116H110.033L110.165 187.388V182.624H108.845V191ZM117.311 191H118.127C118.655 191 118.979 190.82 119.363 190.148L120.779 187.628H122.303V191H123.659V182.624H120.047C118.535 182.624 117.623 183.572 117.623 185.132C117.623 186.464 118.343 187.352 119.747 187.436V187.496C119.339 187.592 119.159 187.784 118.931 188.192L118.043 189.8H117.311V191ZM120.155 186.476C119.471 186.476 119.051 186.104 119.051 185.432V184.856C119.051 184.184 119.471 183.812 120.155 183.812H122.303V186.476H120.155Z" fill="white"/>
<path d="M154.032 167H158.112C159.348 167 160.272 165.944 160.272 164.588C160.272 163.184 159.204 162.656 158.52 162.632V162.56C159.204 162.5 159.972 162.044 159.972 160.784C159.972 159.476 159.12 158.624 157.74 158.624H154.032V167ZM155.388 163.292H157.716C158.412 163.292 158.844 163.676 158.844 164.36V164.768C158.844 165.452 158.412 165.836 157.716 165.836H155.388V163.292ZM155.388 159.788H157.488C158.148 159.788 158.544 160.148 158.544 160.784V161.168C158.544 161.804 158.148 162.164 157.488 162.164H155.388V159.788ZM167.53 167H168.886V158.624H167.53V162.152H163.738V158.624H162.382V167H163.738V163.352H167.53V167ZM176.753 167V165.8H172.745V163.352H176.381V162.152H172.745V159.824H176.753V158.624H171.389V167H176.753ZM178.942 167H188.722V158.624H187.366V165.8H184.51V158.624H183.154V165.8H180.298V158.624H178.942V167ZM196.377 167H197.733V158.624H196.377V162.152H192.585V158.624H191.229V167H192.585V163.352H196.377V167ZM200.236 167H201.46L204.676 162.056L205.516 160.508H205.552L205.42 162.236V167H206.74V158.624H205.516L202.3 163.568L201.46 165.116H201.424L201.556 163.388V158.624H200.236V167ZM212.482 157.94C213.43 157.94 213.97 157.52 214.306 156.836L214.546 156.308L213.478 155.876L213.07 156.956C212.914 157.004 212.674 157.04 212.482 157.04C212.29 157.04 212.05 157.004 211.894 156.956L211.486 155.876L210.418 156.308L210.658 156.836C210.994 157.52 211.534 157.94 212.482 157.94ZM209.242 167H210.466L213.682 162.056L214.522 160.508H214.558L214.426 162.236V167H215.746V158.624H214.522L211.306 163.568L210.466 165.116H210.43L210.562 163.388V158.624H209.242V167ZM157.272 181.144C159.456 181.144 160.884 179.632 160.884 176.812C160.884 173.992 159.456 172.48 157.272 172.48C155.088 172.48 153.66 173.992 153.66 176.812C153.66 179.632 155.088 181.144 157.272 181.144ZM157.272 179.932C155.976 179.932 155.112 178.996 155.112 177.472V176.152C155.112 174.628 155.976 173.692 157.272 173.692C158.568 173.692 159.432 174.628 159.432 176.152V177.472C159.432 178.996 158.568 179.932 157.272 179.932ZM163.015 181H166.711C168.247 181 169.147 180.004 169.147 178.456C169.147 176.908 168.247 175.912 166.711 175.912H164.371V173.824H168.367V172.624H163.015V181ZM164.371 179.812V177.1H166.627C167.311 177.1 167.719 177.472 167.719 178.204V178.708C167.719 179.44 167.311 179.812 166.627 179.812H164.371ZM172.545 181V177.664H174.789C176.325 177.664 177.225 176.668 177.225 175.144C177.225 173.62 176.325 172.624 174.789 172.624H171.189V181H172.545ZM172.545 173.812H174.705C175.389 173.812 175.797 174.184 175.797 174.856V175.432C175.797 176.104 175.389 176.476 174.705 176.476H172.545V173.812ZM185.121 181L182.265 172.624H180.561L177.705 181H179.085L179.817 178.732H182.949L183.705 181H185.121ZM182.613 177.568H180.141L181.353 173.872H181.413L182.613 177.568ZM189.187 181.144C191.143 181.144 192.343 180.124 192.343 178.612C192.343 177.376 191.491 176.788 190.519 176.692V176.632C191.491 176.476 192.175 175.876 192.175 174.736C192.175 173.368 191.143 172.48 189.259 172.48C187.987 172.48 187.087 172.96 186.439 173.776L187.363 174.556C187.759 174.028 188.395 173.692 189.259 173.692C190.243 173.692 190.735 174.088 190.735 174.796V174.916C190.735 175.732 190.279 176.14 189.295 176.14H188.023V177.34H189.367C190.423 177.34 190.903 177.772 190.903 178.54V178.672C190.903 179.512 190.279 179.932 189.187 179.932C188.287 179.932 187.627 179.56 187.123 178.912L186.199 179.764C186.895 180.64 187.879 181.144 189.187 181.144Z" fill="white"/>
<path d="M52.4 60.216C55.532 60.216 56.954 57.822 56.954 53.718C56.954 49.614 55.532 47.22 52.4 47.22C49.268 47.22 47.846 49.614 47.846 53.718C47.846 57.822 49.268 60.216 52.4 60.216ZM52.4 58.488C50.654 58.488 50.006 57.012 50.006 54.816V52.62C50.006 50.424 50.654 48.948 52.4 48.948C54.146 48.948 54.794 50.424 54.794 52.62V54.816C54.794 57.012 54.146 58.488 52.4 58.488ZM68.403 60V58.308H65.343V47.436H62.247L59.043 50.91L60.285 52.026L63.201 48.912H63.345V58.308H59.817V60H68.403Z" fill="#F8F2EC"/>
<path d="M121.4 60.216C124.532 60.216 125.954 57.822 125.954 53.718C125.954 49.614 124.532 47.22 121.4 47.22C118.268 47.22 116.846 49.614 116.846 53.718C116.846 57.822 118.268 60.216 121.4 60.216ZM121.4 58.488C119.654 58.488 119.006 57.012 119.006 54.816V52.62C119.006 50.424 119.654 48.948 121.4 48.948C123.146 48.948 123.794 50.424 123.794 52.62V54.816C123.794 57.012 123.146 58.488 121.4 58.488ZM136.971 58.272H130.635L133.587 55.734C135.243 54.312 136.593 52.98 136.593 50.946C136.593 48.768 135.117 47.22 132.561 47.22C130.041 47.22 128.781 48.696 128.259 50.28L130.041 50.964C130.347 49.866 131.013 48.984 132.399 48.984C133.641 48.984 134.433 49.74 134.433 50.946V51.18C134.433 52.332 133.713 53.34 132.453 54.474L128.439 58.056V60H136.971V58.272Z" fill="#F8F2EC"/>
<path d="M46.4 175.216C49.532 175.216 50.954 172.822 50.954 168.718C50.954 164.614 49.532 162.22 46.4 162.22C43.268 162.22 41.846 164.614 41.846 168.718C41.846 172.822 43.268 175.216 46.4 175.216ZM46.4 173.488C44.654 173.488 44.006 172.012 44.006 169.816V167.62C44.006 165.424 44.654 163.948 46.4 163.948C48.146 163.948 48.794 165.424 48.794 167.62V169.816C48.794 172.012 48.146 173.488 46.4 173.488ZM60.621 175V172.552H62.331V170.95H60.621V162.436H57.957L52.863 170.806V172.552H58.695V175H60.621ZM58.569 164.29H58.695V170.95H54.591L58.569 164.29Z" fill="#F8F2EC"/>
<path d="M180.4 151.216C183.532 151.216 184.954 148.822 184.954 144.718C184.954 140.614 183.532 138.22 180.4 138.22C177.268 138.22 175.846 140.614 175.846 144.718C175.846 148.822 177.268 151.216 180.4 151.216ZM180.4 149.488C178.654 149.488 178.006 148.012 178.006 145.816V143.62C178.006 141.424 178.654 139.948 180.4 139.948C182.146 139.948 182.794 141.424 182.794 143.62V145.816C182.794 148.012 182.146 149.488 180.4 149.488ZM189.671 143.602V145.33H191.003C192.587 145.33 193.487 146.032 193.487 147.31V147.436C193.487 148.732 192.641 149.506 191.111 149.506C189.653 149.506 188.915 148.804 188.303 147.796L186.809 148.966C187.601 150.118 188.771 151.216 191.111 151.216C193.793 151.216 195.593 149.74 195.593 147.544C195.593 145.726 194.387 144.7 192.965 144.43V144.34C194.279 144.052 195.377 143.062 195.377 141.46C195.377 139.426 193.667 138.22 191.291 138.22C189.203 138.22 188.051 139.192 187.295 140.29L188.645 141.46C189.221 140.506 190.049 139.93 191.237 139.93C192.443 139.93 193.235 140.578 193.235 141.712V141.838C193.235 142.864 192.497 143.602 190.949 143.602H189.671Z" fill="#F8F2EC"/>
</svg>
