<svg width="2741" height="2730" viewBox="0 0 2741 2730" fill="none" xmlns="http://www.w3.org/2000/svg">
<path d="M1687.08 1533.71L0 1533.71C0.000882312 1724.65 195.92 2161.1 604.083 2417.52C1012.25 2673.94 1425.85 2625.78 1687.08 2532.09L1687.08 1533.71Z" fill="black" fill-opacity="0.1"/>
<path d="M1584.83 1554.16L0 1554.16C0.000828839 1733.09 184.046 2142.08 567.472 2382.36C950.897 2622.65 1339.44 2577.52 1584.83 2489.72L1584.83 1554.16Z" fill="#34847B"/>
<path d="M1625.73 1083.82L1625.73 2730C1811.22 2730 2235.2 2538.83 2484.29 2140.56C2733.38 1742.29 2686.6 1338.71 2595.58 1083.82L1625.73 1083.82Z" fill="black" fill-opacity="0.1"/>
<path d="M1584.83 1094.04L1584.83 2678.87C1763.75 2678.87 2172.74 2494.83 2413.03 2111.4C2653.32 1727.98 2608.19 1339.44 2520.39 1094.04L1584.83 1094.04Z" fill="#E95C7B"/>
<path d="M1104.27 1155.39L2740.22 1155.39C2740.22 970.987 2550.24 549.466 2154.45 301.818C1758.65 54.1706 1104.27 191.17 1104.27 191.17L1104.27 1155.39Z" fill="black" fill-opacity="0.1"/>
<path d="M1104.27 1098.07L2689.1 1098.07C2689.1 919.144 2505.06 510.154 2121.63 269.868C1738.2 29.5822 1349.66 74.71 1104.27 162.509L1104.27 1098.07Z" fill="#F3CF63"/>
<path d="M1166.51 1625.73L1166.51 40.8984C987.583 40.8993 578.593 224.945 338.307 608.37C98.0208 991.796 230.947 1625.73 230.947 1625.73L1166.51 1625.73Z" fill="black" fill-opacity="0.1"/>
<path d="M1105.16 1584.83L1105.16 0C926.232 0.000821018 517.242 184.046 276.956 567.472C36.6701 950.897 81.7979 1339.44 169.597 1584.83L1105.16 1584.83Z" fill="#895A8E"/>
<circle cx="1339.44" cy="1339.44" r="511.236" fill="black" fill-opacity="0.1"/>
<g filter="url(#filter0_d)">
<circle cx="1339.44" cy="1339.44" r="470.337" fill="white"/>
</g>
<circle cx="1334.32" cy="1334.33" r="414.101" fill="black" fill-opacity="0.1"/>
<circle cx="1334.33" cy="1334.33" r="393.652" fill="white"/>
<path d="M1024.33 1258.16C1015.87 1258.16 1009.66 1256.28 1005.71 1252.52C1001.95 1248.57 1000.07 1243.59 1000.07 1237.57V1231.37C1000.07 1225.35 1001.95 1220.46 1005.71 1216.7C1009.66 1212.76 1015.87 1210.78 1024.33 1210.78C1032.79 1210.78 1038.9 1212.76 1042.66 1216.7C1046.6 1220.46 1048.58 1225.35 1048.58 1231.37V1237.57C1048.58 1243.59 1046.6 1248.57 1042.66 1252.52C1038.9 1256.28 1032.79 1258.16 1024.33 1258.16ZM1003.46 1273.95H1045.19V1422H1003.46V1273.95ZM1117.86 1422L1073.31 1225.16H1115.61L1134.22 1319.63L1144.65 1374.34H1145.5L1157.91 1319.63L1179.62 1225.16H1226.43L1248.43 1319.63L1260.56 1374.34H1261.4L1271.84 1319.63L1290.73 1225.16H1331.34L1285.65 1422H1236.87L1212.05 1315.4L1202.46 1272.26H1201.62L1191.75 1315.4L1166.93 1422H1117.86ZM1413.91 1425.38C1402.63 1425.38 1392.58 1423.6 1383.74 1420.03C1374.9 1416.27 1367.38 1411.1 1361.18 1404.52C1355.16 1397.75 1350.56 1389.57 1347.36 1379.98C1344.35 1370.39 1342.85 1359.68 1342.85 1347.83C1342.85 1336.18 1344.35 1325.65 1347.36 1316.25C1350.37 1306.66 1354.79 1298.48 1360.62 1291.72C1366.63 1284.95 1373.96 1279.78 1382.61 1276.21C1391.26 1272.45 1401.13 1270.57 1412.22 1270.57C1424.44 1270.57 1434.88 1272.63 1443.52 1276.77C1452.36 1280.91 1459.5 1286.45 1464.96 1293.41C1470.6 1300.36 1474.64 1308.45 1477.08 1317.66C1479.71 1326.68 1481.03 1336.18 1481.03 1346.14V1358.55H1386V1360.81C1386 1370.58 1388.63 1378.38 1393.89 1384.21C1399.16 1389.85 1407.43 1392.67 1418.71 1392.67C1427.36 1392.67 1434.41 1390.98 1439.86 1387.6C1445.31 1384.02 1450.39 1379.79 1455.09 1374.91L1475.95 1400.85C1469.37 1408.56 1460.73 1414.57 1450.01 1418.9C1439.48 1423.22 1427.45 1425.38 1413.91 1425.38ZM1413.07 1301.3C1404.61 1301.3 1397.93 1304.12 1393.05 1309.76C1388.35 1315.22 1386 1322.55 1386 1331.76V1334.02H1437.88V1331.48C1437.88 1322.45 1435.82 1315.22 1431.68 1309.76C1427.73 1304.12 1421.53 1301.3 1413.07 1301.3ZM1552.4 1422C1538.11 1422 1527.58 1418.52 1520.82 1411.57C1514.24 1404.61 1510.95 1394.55 1510.95 1381.39V1213.32H1552.68V1389.57H1571.29V1422H1552.4ZM1636.01 1422C1621.72 1422 1611.19 1418.52 1604.42 1411.57C1597.84 1404.61 1594.55 1394.55 1594.55 1381.39V1213.32H1636.29V1389.57H1654.9V1422H1636.01Z" fill="#4C4C4C"/>
<defs>
<filter id="filter0_d" x="865.104" y="869.1" width="948.674" height="948.674" filterUnits="userSpaceOnUse" color-interpolation-filters="sRGB">
<feFlood flood-opacity="0" result="BackgroundImageFix"/>
<feColorMatrix in="SourceAlpha" type="matrix" values="0 0 0 0 0 0 0 0 0 0 0 0 0 0 0 0 0 0 127 0"/>
<feOffset dy="4"/>
<feGaussianBlur stdDeviation="2"/>
<feColorMatrix type="matrix" values="0 0 0 0 0 0 0 0 0 0 0 0 0 0 0 0 0 0 0.25 0"/>
<feBlend mode="normal" in2="BackgroundImageFix" result="effect1_dropShadow"/>
<feBlend mode="normal" in="SourceGraphic" in2="effect1_dropShadow" result="shape"/>
</filter>
</defs>
</svg>
